<?xml version="1.0" encoding="utf-8" standalone="no"?>
<!DOCTYPE svg PUBLIC "-//W3C//DTD SVG 1.1//EN"
  "http://www.w3.org/Graphics/SVG/1.1/DTD/svg11.dtd">
<svg height="572.4pt" version="1.1" viewBox="0 0 988.56 572.4" width="988.56pt" xmlns="http://www.w3.org/2000/svg" xmlns:xlink="http://www.w3.org/1999/xlink">
 <metadata>
  <rdf:RDF xmlns:cc="http://creativecommons.org/ns#" xmlns:dc="http://purl.org/dc/elements/1.1/" xmlns:rdf="http://www.w3.org/1999/02/22-rdf-syntax-ns#">
   <cc:Work>
    <dc:type rdf:resource="http://purl.org/dc/dcmitype/StillImage"/>
    <dc:date>2022-08-04T14:06:41.498625</dc:date>
    <dc:format>image/svg+xml</dc:format>
    <dc:creator>
     <cc:Agent>
      <dc:title>Matplotlib v3.4.3, https://matplotlib.org/</dc:title>
     </cc:Agent>
    </dc:creator>
   </cc:Work>
  </rdf:RDF>
 </metadata>
 <defs>
  <style type="text/css">*{stroke-linecap:butt;stroke-linejoin:round;}</style>
 </defs>
 <g id="figure_1">
  <g id="patch_1">
   <path d="M 0 572.4 
L 988.56 572.4 
L 988.56 0 
L 0 0 
z
" style="fill:#ffffff;"/>
  </g>
  <g id="axes_1">
   <g id="patch_2">
    <path d="M 163.966234 464.74375 
L 916.155703 464.74375 
L 916.155703 43.52625 
L 163.966234 43.52625 
z
" style="fill:#ffffff;"/>
   </g>
   <g id="patch_3">
    <path clip-path="url(#p24f3f952f4)" d="M 198.156665 525.604473 
L 205.509446 525.604473 
L 205.509446 456.717048 
L 198.156665 456.717048 
z
" style="fill:#ff1f5b;"/>
   </g>
   <g id="patch_4">
    <path clip-path="url(#p24f3f952f4)" d="M 271.684472 525.604473 
L 279.037253 525.604473 
L 279.037253 461.398059 
L 271.684472 461.398059 
z
" style="fill:#ff1f5b;"/>
   </g>
   <g id="patch_5">
    <path clip-path="url(#p24f3f952f4)" d="M 345.212279 525.604473 
L 352.56506 525.604473 
L 352.56506 459.515431 
L 345.212279 459.515431 
z
" style="fill:#ff1f5b;"/>
   </g>
   <g id="patch_6">
    <path clip-path="url(#p24f3f952f4)" d="M 418.740087 525.604473 
L 426.092867 525.604473 
L 426.092867 461.376734 
L 418.740087 461.376734 
z
" style="fill:#ff1f5b;"/>
   </g>
   <g id="patch_7">
    <path clip-path="url(#p24f3f952f4)" d="M 492.267894 525.604473 
L 499.620675 525.604473 
L 499.620675 460.480336 
L 492.267894 460.480336 
z
" style="fill:#ff1f5b;"/>
   </g>
   <g id="patch_8">
    <path clip-path="url(#p24f3f952f4)" d="M 565.795701 525.604473 
L 573.148482 525.604473 
L 573.148482 459.226859 
L 565.795701 459.226859 
z
" style="fill:#ff1f5b;"/>
   </g>
   <g id="patch_9">
    <path clip-path="url(#p24f3f952f4)" d="M 639.323509 525.604473 
L 646.676289 525.604473 
L 646.676289 461.361177 
L 639.323509 461.361177 
z
" style="fill:#ff1f5b;"/>
   </g>
   <g id="patch_10">
    <path clip-path="url(#p24f3f952f4)" d="M 712.851316 525.604473 
L 720.204097 525.604473 
L 720.204097 460.486216 
L 712.851316 460.486216 
z
" style="fill:#ff1f5b;"/>
   </g>
   <g id="patch_11">
    <path clip-path="url(#p24f3f952f4)" d="M 786.379123 525.604473 
L 793.731904 525.604473 
L 793.731904 461.311087 
L 786.379123 461.311087 
z
" style="fill:#ff1f5b;"/>
   </g>
   <g id="patch_12">
    <path clip-path="url(#p24f3f952f4)" d="M 859.906931 525.604473 
L 867.259711 525.604473 
L 867.259711 460.745508 
L 859.906931 460.745508 
z
" style="fill:#ff1f5b;"/>
   </g>
   <g id="patch_13">
    <path clip-path="url(#p24f3f952f4)" d="M 205.509446 525.604473 
L 212.862226 525.604473 
L 212.862226 460.761473 
L 205.509446 460.761473 
z
" style="fill:#009ade;"/>
   </g>
   <g id="patch_14">
    <path clip-path="url(#p24f3f952f4)" d="M 279.037253 525.604473 
L 286.390034 525.604473 
L 286.390034 455.104603 
L 279.037253 455.104603 
z
" style="fill:#009ade;"/>
   </g>
   <g id="patch_15">
    <path clip-path="url(#p24f3f952f4)" d="M 352.56506 525.604473 
L 359.917841 525.604473 
L 359.917841 447.511362 
L 352.56506 447.511362 
z
" style="fill:#009ade;"/>
   </g>
   <g id="patch_16">
    <path clip-path="url(#p24f3f952f4)" d="M 426.092867 525.604473 
L 433.445648 525.604473 
L 433.445648 457.200793 
L 426.092867 457.200793 
z
" style="fill:#009ade;"/>
   </g>
   <g id="patch_17">
    <path clip-path="url(#p24f3f952f4)" d="M 499.620675 525.604473 
L 506.973455 525.604473 
L 506.973455 458.480624 
L 499.620675 458.480624 
z
" style="fill:#009ade;"/>
   </g>
   <g id="patch_18">
    <path clip-path="url(#p24f3f952f4)" d="M 573.148482 525.604473 
L 580.501263 525.604473 
L 580.501263 456.668156 
L 573.148482 456.668156 
z
" style="fill:#009ade;"/>
   </g>
   <g id="patch_19">
    <path clip-path="url(#p24f3f952f4)" d="M 646.676289 525.604473 
L 654.02907 525.604473 
L 654.02907 456.703285 
L 646.676289 456.703285 
z
" style="fill:#009ade;"/>
   </g>
   <g id="patch_20">
    <path clip-path="url(#p24f3f952f4)" d="M 720.204097 525.604473 
L 727.556877 525.604473 
L 727.556877 456.295853 
L 720.204097 456.295853 
z
" style="fill:#009ade;"/>
   </g>
   <g id="patch_21">
    <path clip-path="url(#p24f3f952f4)" d="M 793.731904 525.604473 
L 801.084685 525.604473 
L 801.084685 455.5284 
L 793.731904 455.5284 
z
" style="fill:#009ade;"/>
   </g>
   <g id="patch_22">
    <path clip-path="url(#p24f3f952f4)" d="M 867.259711 525.604473 
L 874.612492 525.604473 
L 874.612492 457.158433 
L 867.259711 457.158433 
z
" style="fill:#009ade;"/>
   </g>
   <g id="patch_23">
    <path clip-path="url(#p24f3f952f4)" d="M 212.862226 525.604473 
L 220.215007 525.604473 
L 220.215007 439.01779 
L 212.862226 439.01779 
z
" style="fill:#f28522;"/>
   </g>
   <g id="patch_24">
    <path clip-path="url(#p24f3f952f4)" d="M 286.390034 525.604473 
L 293.742814 525.604473 
L 293.742814 409.686431 
L 286.390034 409.686431 
z
" style="fill:#f28522;"/>
   </g>
   <g id="patch_25">
    <path clip-path="url(#p24f3f952f4)" d="M 359.917841 525.604473 
L 367.270622 525.604473 
L 367.270622 444.035382 
L 359.917841 444.035382 
z
" style="fill:#f28522;"/>
   </g>
   <g id="patch_26">
    <path clip-path="url(#p24f3f952f4)" d="M 433.445648 525.604473 
L 440.798429 525.604473 
L 440.798429 276.628258 
L 433.445648 276.628258 
z
" style="fill:#f28522;"/>
   </g>
   <g id="patch_27">
    <path clip-path="url(#p24f3f952f4)" d="M 506.973455 525.604473 
L 514.326236 525.604473 
L 514.326236 373.059659 
L 506.973455 373.059659 
z
" style="fill:#f28522;"/>
   </g>
   <g id="patch_28">
    <path clip-path="url(#p24f3f952f4)" d="M 580.501263 525.604473 
L 587.854043 525.604473 
L 587.854043 181.572749 
L 580.501263 181.572749 
z
" style="fill:#f28522;"/>
   </g>
   <g id="patch_29">
    <path clip-path="url(#p24f3f952f4)" d="M 654.02907 525.604473 
L 661.381851 525.604473 
L 661.381851 173.076101 
L 654.02907 173.076101 
z
" style="fill:#f28522;"/>
   </g>
   <g id="patch_30">
    <path clip-path="url(#p24f3f952f4)" d="M 727.556877 525.604473 
L 734.909658 525.604473 
L 734.909658 92.23178 
L 727.556877 92.23178 
z
" style="fill:#f28522;"/>
   </g>
   <g id="patch_31">
    <path clip-path="url(#p24f3f952f4)" d="M 801.084685 525.604473 
L 808.437465 525.604473 
L 808.437465 63.227702 
L 801.084685 63.227702 
z
" style="fill:#f28522;"/>
   </g>
   <g id="patch_32">
    <path clip-path="url(#p24f3f952f4)" d="M 874.612492 525.604473 
L 881.965273 525.604473 
L 881.965273 44.134857 
L 874.612492 44.134857 
z
" style="fill:#f28522;"/>
   </g>
   <g id="matplotlib.axis_1">
    <g id="xtick_1">
     <g id="line2d_1">
      <path clip-path="url(#p24f3f952f4)" d="M 209.185836 464.74375 
L 209.185836 43.52625 
" style="fill:none;stroke:#b0b0b0;stroke-dasharray:2.96,1.28;stroke-dashoffset:0;stroke-width:0.8;"/>
     </g>
     <g id="line2d_2">
      <defs>
       <path d="M 0 0 
L 0 3.5 
" id="m4745a3b0b4" style="stroke:#000000;stroke-width:0.8;"/>
      </defs>
      <g>
       <use style="stroke:#000000;stroke-width:0.8;" x="209.185836" xlink:href="#m4745a3b0b4" y="464.74375"/>
      </g>
     </g>
     <g id="text_1">
      <!-- 10 -->
      <g transform="translate(197.733336 485.420937)scale(0.18 -0.18)">
       <defs>
        <path d="M 794 531 
L 1825 531 
L 1825 4091 
L 703 3866 
L 703 4441 
L 1819 4666 
L 2450 4666 
L 2450 531 
L 3481 531 
L 3481 0 
L 794 0 
L 794 531 
z
" id="DejaVuSans-31" transform="scale(0.015625)"/>
        <path d="M 2034 4250 
Q 1547 4250 1301 3770 
Q 1056 3291 1056 2328 
Q 1056 1369 1301 889 
Q 1547 409 2034 409 
Q 2525 409 2770 889 
Q 3016 1369 3016 2328 
Q 3016 3291 2770 3770 
Q 2525 4250 2034 4250 
z
M 2034 4750 
Q 2819 4750 3233 4129 
Q 3647 3509 3647 2328 
Q 3647 1150 3233 529 
Q 2819 -91 2034 -91 
Q 1250 -91 836 529 
Q 422 1150 422 2328 
Q 422 3509 836 4129 
Q 1250 4750 2034 4750 
z
" id="DejaVuSans-30" transform="scale(0.015625)"/>
       </defs>
       <use xlink:href="#DejaVuSans-31"/>
       <use x="63.623047" xlink:href="#DejaVuSans-30"/>
      </g>
     </g>
    </g>
    <g id="xtick_2">
     <g id="line2d_3">
      <path clip-path="url(#p24f3f952f4)" d="M 282.713643 464.74375 
L 282.713643 43.52625 
" style="fill:none;stroke:#b0b0b0;stroke-dasharray:2.96,1.28;stroke-dashoffset:0;stroke-width:0.8;"/>
     </g>
     <g id="line2d_4">
      <g>
       <use style="stroke:#000000;stroke-width:0.8;" x="282.713643" xlink:href="#m4745a3b0b4" y="464.74375"/>
      </g>
     </g>
     <g id="text_2">
      <!-- 20 -->
      <g transform="translate(271.261143 485.420937)scale(0.18 -0.18)">
       <defs>
        <path d="M 1228 531 
L 3431 531 
L 3431 0 
L 469 0 
L 469 531 
Q 828 903 1448 1529 
Q 2069 2156 2228 2338 
Q 2531 2678 2651 2914 
Q 2772 3150 2772 3378 
Q 2772 3750 2511 3984 
Q 2250 4219 1831 4219 
Q 1534 4219 1204 4116 
Q 875 4013 500 3803 
L 500 4441 
Q 881 4594 1212 4672 
Q 1544 4750 1819 4750 
Q 2544 4750 2975 4387 
Q 3406 4025 3406 3419 
Q 3406 3131 3298 2873 
Q 3191 2616 2906 2266 
Q 2828 2175 2409 1742 
Q 1991 1309 1228 531 
z
" id="DejaVuSans-32" transform="scale(0.015625)"/>
       </defs>
       <use xlink:href="#DejaVuSans-32"/>
       <use x="63.623047" xlink:href="#DejaVuSans-30"/>
      </g>
     </g>
    </g>
    <g id="xtick_3">
     <g id="line2d_5">
      <path clip-path="url(#p24f3f952f4)" d="M 356.24145 464.74375 
L 356.24145 43.52625 
" style="fill:none;stroke:#b0b0b0;stroke-dasharray:2.96,1.28;stroke-dashoffset:0;stroke-width:0.8;"/>
     </g>
     <g id="line2d_6">
      <g>
       <use style="stroke:#000000;stroke-width:0.8;" x="356.24145" xlink:href="#m4745a3b0b4" y="464.74375"/>
      </g>
     </g>
     <g id="text_3">
      <!-- 30 -->
      <g transform="translate(344.78895 485.420937)scale(0.18 -0.18)">
       <defs>
        <path d="M 2597 2516 
Q 3050 2419 3304 2112 
Q 3559 1806 3559 1356 
Q 3559 666 3084 287 
Q 2609 -91 1734 -91 
Q 1441 -91 1130 -33 
Q 819 25 488 141 
L 488 750 
Q 750 597 1062 519 
Q 1375 441 1716 441 
Q 2309 441 2620 675 
Q 2931 909 2931 1356 
Q 2931 1769 2642 2001 
Q 2353 2234 1838 2234 
L 1294 2234 
L 1294 2753 
L 1863 2753 
Q 2328 2753 2575 2939 
Q 2822 3125 2822 3475 
Q 2822 3834 2567 4026 
Q 2313 4219 1838 4219 
Q 1578 4219 1281 4162 
Q 984 4106 628 3988 
L 628 4550 
Q 988 4650 1302 4700 
Q 1616 4750 1894 4750 
Q 2613 4750 3031 4423 
Q 3450 4097 3450 3541 
Q 3450 3153 3228 2886 
Q 3006 2619 2597 2516 
z
" id="DejaVuSans-33" transform="scale(0.015625)"/>
       </defs>
       <use xlink:href="#DejaVuSans-33"/>
       <use x="63.623047" xlink:href="#DejaVuSans-30"/>
      </g>
     </g>
    </g>
    <g id="xtick_4">
     <g id="line2d_7">
      <path clip-path="url(#p24f3f952f4)" d="M 429.769258 464.74375 
L 429.769258 43.52625 
" style="fill:none;stroke:#b0b0b0;stroke-dasharray:2.96,1.28;stroke-dashoffset:0;stroke-width:0.8;"/>
     </g>
     <g id="line2d_8">
      <g>
       <use style="stroke:#000000;stroke-width:0.8;" x="429.769258" xlink:href="#m4745a3b0b4" y="464.74375"/>
      </g>
     </g>
     <g id="text_4">
      <!-- 40 -->
      <g transform="translate(418.316758 485.420937)scale(0.18 -0.18)">
       <defs>
        <path d="M 2419 4116 
L 825 1625 
L 2419 1625 
L 2419 4116 
z
M 2253 4666 
L 3047 4666 
L 3047 1625 
L 3713 1625 
L 3713 1100 
L 3047 1100 
L 3047 0 
L 2419 0 
L 2419 1100 
L 313 1100 
L 313 1709 
L 2253 4666 
z
" id="DejaVuSans-34" transform="scale(0.015625)"/>
       </defs>
       <use xlink:href="#DejaVuSans-34"/>
       <use x="63.623047" xlink:href="#DejaVuSans-30"/>
      </g>
     </g>
    </g>
    <g id="xtick_5">
     <g id="line2d_9">
      <path clip-path="url(#p24f3f952f4)" d="M 503.297065 464.74375 
L 503.297065 43.52625 
" style="fill:none;stroke:#b0b0b0;stroke-dasharray:2.96,1.28;stroke-dashoffset:0;stroke-width:0.8;"/>
     </g>
     <g id="line2d_10">
      <g>
       <use style="stroke:#000000;stroke-width:0.8;" x="503.297065" xlink:href="#m4745a3b0b4" y="464.74375"/>
      </g>
     </g>
     <g id="text_5">
      <!-- 50 -->
      <g transform="translate(491.844565 485.420937)scale(0.18 -0.18)">
       <defs>
        <path d="M 691 4666 
L 3169 4666 
L 3169 4134 
L 1269 4134 
L 1269 2991 
Q 1406 3038 1543 3061 
Q 1681 3084 1819 3084 
Q 2600 3084 3056 2656 
Q 3513 2228 3513 1497 
Q 3513 744 3044 326 
Q 2575 -91 1722 -91 
Q 1428 -91 1123 -41 
Q 819 9 494 109 
L 494 744 
Q 775 591 1075 516 
Q 1375 441 1709 441 
Q 2250 441 2565 725 
Q 2881 1009 2881 1497 
Q 2881 1984 2565 2268 
Q 2250 2553 1709 2553 
Q 1456 2553 1204 2497 
Q 953 2441 691 2322 
L 691 4666 
z
" id="DejaVuSans-35" transform="scale(0.015625)"/>
       </defs>
       <use xlink:href="#DejaVuSans-35"/>
       <use x="63.623047" xlink:href="#DejaVuSans-30"/>
      </g>
     </g>
    </g>
    <g id="xtick_6">
     <g id="line2d_11">
      <path clip-path="url(#p24f3f952f4)" d="M 576.824872 464.74375 
L 576.824872 43.52625 
" style="fill:none;stroke:#b0b0b0;stroke-dasharray:2.96,1.28;stroke-dashoffset:0;stroke-width:0.8;"/>
     </g>
     <g id="line2d_12">
      <g>
       <use style="stroke:#000000;stroke-width:0.8;" x="576.824872" xlink:href="#m4745a3b0b4" y="464.74375"/>
      </g>
     </g>
     <g id="text_6">
      <!-- 60 -->
      <g transform="translate(565.372372 485.420937)scale(0.18 -0.18)">
       <defs>
        <path d="M 2113 2584 
Q 1688 2584 1439 2293 
Q 1191 2003 1191 1497 
Q 1191 994 1439 701 
Q 1688 409 2113 409 
Q 2538 409 2786 701 
Q 3034 994 3034 1497 
Q 3034 2003 2786 2293 
Q 2538 2584 2113 2584 
z
M 3366 4563 
L 3366 3988 
Q 3128 4100 2886 4159 
Q 2644 4219 2406 4219 
Q 1781 4219 1451 3797 
Q 1122 3375 1075 2522 
Q 1259 2794 1537 2939 
Q 1816 3084 2150 3084 
Q 2853 3084 3261 2657 
Q 3669 2231 3669 1497 
Q 3669 778 3244 343 
Q 2819 -91 2113 -91 
Q 1303 -91 875 529 
Q 447 1150 447 2328 
Q 447 3434 972 4092 
Q 1497 4750 2381 4750 
Q 2619 4750 2861 4703 
Q 3103 4656 3366 4563 
z
" id="DejaVuSans-36" transform="scale(0.015625)"/>
       </defs>
       <use xlink:href="#DejaVuSans-36"/>
       <use x="63.623047" xlink:href="#DejaVuSans-30"/>
      </g>
     </g>
    </g>
    <g id="xtick_7">
     <g id="line2d_13">
      <path clip-path="url(#p24f3f952f4)" d="M 650.35268 464.74375 
L 650.35268 43.52625 
" style="fill:none;stroke:#b0b0b0;stroke-dasharray:2.96,1.28;stroke-dashoffset:0;stroke-width:0.8;"/>
     </g>
     <g id="line2d_14">
      <g>
       <use style="stroke:#000000;stroke-width:0.8;" x="650.35268" xlink:href="#m4745a3b0b4" y="464.74375"/>
      </g>
     </g>
     <g id="text_7">
      <!-- 70 -->
      <g transform="translate(638.90018 485.420937)scale(0.18 -0.18)">
       <defs>
        <path d="M 525 4666 
L 3525 4666 
L 3525 4397 
L 1831 0 
L 1172 0 
L 2766 4134 
L 525 4134 
L 525 4666 
z
" id="DejaVuSans-37" transform="scale(0.015625)"/>
       </defs>
       <use xlink:href="#DejaVuSans-37"/>
       <use x="63.623047" xlink:href="#DejaVuSans-30"/>
      </g>
     </g>
    </g>
    <g id="xtick_8">
     <g id="line2d_15">
      <path clip-path="url(#p24f3f952f4)" d="M 723.880487 464.74375 
L 723.880487 43.52625 
" style="fill:none;stroke:#b0b0b0;stroke-dasharray:2.96,1.28;stroke-dashoffset:0;stroke-width:0.8;"/>
     </g>
     <g id="line2d_16">
      <g>
       <use style="stroke:#000000;stroke-width:0.8;" x="723.880487" xlink:href="#m4745a3b0b4" y="464.74375"/>
      </g>
     </g>
     <g id="text_8">
      <!-- 80 -->
      <g transform="translate(712.427987 485.420937)scale(0.18 -0.18)">
       <defs>
        <path d="M 2034 2216 
Q 1584 2216 1326 1975 
Q 1069 1734 1069 1313 
Q 1069 891 1326 650 
Q 1584 409 2034 409 
Q 2484 409 2743 651 
Q 3003 894 3003 1313 
Q 3003 1734 2745 1975 
Q 2488 2216 2034 2216 
z
M 1403 2484 
Q 997 2584 770 2862 
Q 544 3141 544 3541 
Q 544 4100 942 4425 
Q 1341 4750 2034 4750 
Q 2731 4750 3128 4425 
Q 3525 4100 3525 3541 
Q 3525 3141 3298 2862 
Q 3072 2584 2669 2484 
Q 3125 2378 3379 2068 
Q 3634 1759 3634 1313 
Q 3634 634 3220 271 
Q 2806 -91 2034 -91 
Q 1263 -91 848 271 
Q 434 634 434 1313 
Q 434 1759 690 2068 
Q 947 2378 1403 2484 
z
M 1172 3481 
Q 1172 3119 1398 2916 
Q 1625 2713 2034 2713 
Q 2441 2713 2670 2916 
Q 2900 3119 2900 3481 
Q 2900 3844 2670 4047 
Q 2441 4250 2034 4250 
Q 1625 4250 1398 4047 
Q 1172 3844 1172 3481 
z
" id="DejaVuSans-38" transform="scale(0.015625)"/>
       </defs>
       <use xlink:href="#DejaVuSans-38"/>
       <use x="63.623047" xlink:href="#DejaVuSans-30"/>
      </g>
     </g>
    </g>
    <g id="xtick_9">
     <g id="line2d_17">
      <path clip-path="url(#p24f3f952f4)" d="M 797.408294 464.74375 
L 797.408294 43.52625 
" style="fill:none;stroke:#b0b0b0;stroke-dasharray:2.96,1.28;stroke-dashoffset:0;stroke-width:0.8;"/>
     </g>
     <g id="line2d_18">
      <g>
       <use style="stroke:#000000;stroke-width:0.8;" x="797.408294" xlink:href="#m4745a3b0b4" y="464.74375"/>
      </g>
     </g>
     <g id="text_9">
      <!-- 90 -->
      <g transform="translate(785.955794 485.420937)scale(0.18 -0.18)">
       <defs>
        <path d="M 703 97 
L 703 672 
Q 941 559 1184 500 
Q 1428 441 1663 441 
Q 2288 441 2617 861 
Q 2947 1281 2994 2138 
Q 2813 1869 2534 1725 
Q 2256 1581 1919 1581 
Q 1219 1581 811 2004 
Q 403 2428 403 3163 
Q 403 3881 828 4315 
Q 1253 4750 1959 4750 
Q 2769 4750 3195 4129 
Q 3622 3509 3622 2328 
Q 3622 1225 3098 567 
Q 2575 -91 1691 -91 
Q 1453 -91 1209 -44 
Q 966 3 703 97 
z
M 1959 2075 
Q 2384 2075 2632 2365 
Q 2881 2656 2881 3163 
Q 2881 3666 2632 3958 
Q 2384 4250 1959 4250 
Q 1534 4250 1286 3958 
Q 1038 3666 1038 3163 
Q 1038 2656 1286 2365 
Q 1534 2075 1959 2075 
z
" id="DejaVuSans-39" transform="scale(0.015625)"/>
       </defs>
       <use xlink:href="#DejaVuSans-39"/>
       <use x="63.623047" xlink:href="#DejaVuSans-30"/>
      </g>
     </g>
    </g>
    <g id="xtick_10">
     <g id="line2d_19">
      <path clip-path="url(#p24f3f952f4)" d="M 870.936102 464.74375 
L 870.936102 43.52625 
" style="fill:none;stroke:#b0b0b0;stroke-dasharray:2.96,1.28;stroke-dashoffset:0;stroke-width:0.8;"/>
     </g>
     <g id="line2d_20">
      <g>
       <use style="stroke:#000000;stroke-width:0.8;" x="870.936102" xlink:href="#m4745a3b0b4" y="464.74375"/>
      </g>
     </g>
     <g id="text_10">
      <!-- 100 -->
      <g transform="translate(853.757352 485.420937)scale(0.18 -0.18)">
       <use xlink:href="#DejaVuSans-31"/>
       <use x="63.623047" xlink:href="#DejaVuSans-30"/>
       <use x="127.246094" xlink:href="#DejaVuSans-30"/>
      </g>
     </g>
    </g>
    <g id="text_11">
     <!-- Budget -->
     <g transform="translate(507.689094 506.841563)scale(0.18 -0.18)">
      <defs>
       <path d="M 1259 2228 
L 1259 519 
L 2272 519 
Q 2781 519 3026 730 
Q 3272 941 3272 1375 
Q 3272 1813 3026 2020 
Q 2781 2228 2272 2228 
L 1259 2228 
z
M 1259 4147 
L 1259 2741 
L 2194 2741 
Q 2656 2741 2882 2914 
Q 3109 3088 3109 3444 
Q 3109 3797 2882 3972 
Q 2656 4147 2194 4147 
L 1259 4147 
z
M 628 4666 
L 2241 4666 
Q 2963 4666 3353 4366 
Q 3744 4066 3744 3513 
Q 3744 3084 3544 2831 
Q 3344 2578 2956 2516 
Q 3422 2416 3680 2098 
Q 3938 1781 3938 1306 
Q 3938 681 3513 340 
Q 3088 0 2303 0 
L 628 0 
L 628 4666 
z
" id="DejaVuSans-42" transform="scale(0.015625)"/>
       <path d="M 544 1381 
L 544 3500 
L 1119 3500 
L 1119 1403 
Q 1119 906 1312 657 
Q 1506 409 1894 409 
Q 2359 409 2629 706 
Q 2900 1003 2900 1516 
L 2900 3500 
L 3475 3500 
L 3475 0 
L 2900 0 
L 2900 538 
Q 2691 219 2414 64 
Q 2138 -91 1772 -91 
Q 1169 -91 856 284 
Q 544 659 544 1381 
z
M 1991 3584 
L 1991 3584 
z
" id="DejaVuSans-75" transform="scale(0.015625)"/>
       <path d="M 2906 2969 
L 2906 4863 
L 3481 4863 
L 3481 0 
L 2906 0 
L 2906 525 
Q 2725 213 2448 61 
Q 2172 -91 1784 -91 
Q 1150 -91 751 415 
Q 353 922 353 1747 
Q 353 2572 751 3078 
Q 1150 3584 1784 3584 
Q 2172 3584 2448 3432 
Q 2725 3281 2906 2969 
z
M 947 1747 
Q 947 1113 1208 752 
Q 1469 391 1925 391 
Q 2381 391 2643 752 
Q 2906 1113 2906 1747 
Q 2906 2381 2643 2742 
Q 2381 3103 1925 3103 
Q 1469 3103 1208 2742 
Q 947 2381 947 1747 
z
" id="DejaVuSans-64" transform="scale(0.015625)"/>
       <path d="M 2906 1791 
Q 2906 2416 2648 2759 
Q 2391 3103 1925 3103 
Q 1463 3103 1205 2759 
Q 947 2416 947 1791 
Q 947 1169 1205 825 
Q 1463 481 1925 481 
Q 2391 481 2648 825 
Q 2906 1169 2906 1791 
z
M 3481 434 
Q 3481 -459 3084 -895 
Q 2688 -1331 1869 -1331 
Q 1566 -1331 1297 -1286 
Q 1028 -1241 775 -1147 
L 775 -588 
Q 1028 -725 1275 -790 
Q 1522 -856 1778 -856 
Q 2344 -856 2625 -561 
Q 2906 -266 2906 331 
L 2906 616 
Q 2728 306 2450 153 
Q 2172 0 1784 0 
Q 1141 0 747 490 
Q 353 981 353 1791 
Q 353 2603 747 3093 
Q 1141 3584 1784 3584 
Q 2172 3584 2450 3431 
Q 2728 3278 2906 2969 
L 2906 3500 
L 3481 3500 
L 3481 434 
z
" id="DejaVuSans-67" transform="scale(0.015625)"/>
       <path d="M 3597 1894 
L 3597 1613 
L 953 1613 
Q 991 1019 1311 708 
Q 1631 397 2203 397 
Q 2534 397 2845 478 
Q 3156 559 3463 722 
L 3463 178 
Q 3153 47 2828 -22 
Q 2503 -91 2169 -91 
Q 1331 -91 842 396 
Q 353 884 353 1716 
Q 353 2575 817 3079 
Q 1281 3584 2069 3584 
Q 2775 3584 3186 3129 
Q 3597 2675 3597 1894 
z
M 3022 2063 
Q 3016 2534 2758 2815 
Q 2500 3097 2075 3097 
Q 1594 3097 1305 2825 
Q 1016 2553 972 2059 
L 3022 2063 
z
" id="DejaVuSans-65" transform="scale(0.015625)"/>
       <path d="M 1172 4494 
L 1172 3500 
L 2356 3500 
L 2356 3053 
L 1172 3053 
L 1172 1153 
Q 1172 725 1289 603 
Q 1406 481 1766 481 
L 2356 481 
L 2356 0 
L 1766 0 
Q 1100 0 847 248 
Q 594 497 594 1153 
L 594 3053 
L 172 3053 
L 172 3500 
L 594 3500 
L 594 4494 
L 1172 4494 
z
" id="DejaVuSans-74" transform="scale(0.015625)"/>
      </defs>
      <use xlink:href="#DejaVuSans-42"/>
      <use x="68.603516" xlink:href="#DejaVuSans-75"/>
      <use x="131.982422" xlink:href="#DejaVuSans-64"/>
      <use x="195.458984" xlink:href="#DejaVuSans-67"/>
      <use x="258.935547" xlink:href="#DejaVuSans-65"/>
      <use x="320.458984" xlink:href="#DejaVuSans-74"/>
     </g>
    </g>
   </g>
   <g id="matplotlib.axis_2">
    <g id="ytick_1">
     <g id="line2d_21">
      <path clip-path="url(#p24f3f952f4)" d="M 163.966234 464.74375 
L 916.155703 464.74375 
" style="fill:none;stroke:#b0b0b0;stroke-dasharray:2.96,1.28;stroke-dashoffset:0;stroke-width:0.8;"/>
     </g>
     <g id="line2d_22">
      <defs>
       <path d="M 0 0 
L -3.5 0 
" id="m351b71de8f" style="stroke:#000000;stroke-width:0.8;"/>
      </defs>
      <g>
       <use style="stroke:#000000;stroke-width:0.8;" x="163.966234" xlink:href="#m351b71de8f" y="464.74375"/>
      </g>
     </g>
     <g id="text_12">
      <!-- 1 -->
      <g transform="translate(145.513734 471.582344)scale(0.18 -0.18)">
       <use xlink:href="#DejaVuSans-31"/>
      </g>
     </g>
    </g>
    <g id="ytick_2">
     <g id="line2d_23">
      <path clip-path="url(#p24f3f952f4)" d="M 163.966234 403.883027 
L 916.155703 403.883027 
" style="fill:none;stroke:#b0b0b0;stroke-dasharray:2.96,1.28;stroke-dashoffset:0;stroke-width:0.8;"/>
     </g>
     <g id="line2d_24">
      <g>
       <use style="stroke:#000000;stroke-width:0.8;" x="163.966234" xlink:href="#m351b71de8f" y="403.883027"/>
      </g>
     </g>
     <g id="text_13">
      <!-- 2 -->
      <g transform="translate(145.513734 410.721621)scale(0.18 -0.18)">
       <use xlink:href="#DejaVuSans-32"/>
      </g>
     </g>
    </g>
    <g id="ytick_3">
     <g id="line2d_25">
      <path clip-path="url(#p24f3f952f4)" d="M 163.966234 343.022304 
L 916.155703 343.022304 
" style="fill:none;stroke:#b0b0b0;stroke-dasharray:2.96,1.28;stroke-dashoffset:0;stroke-width:0.8;"/>
     </g>
     <g id="line2d_26">
      <g>
       <use style="stroke:#000000;stroke-width:0.8;" x="163.966234" xlink:href="#m351b71de8f" y="343.022304"/>
      </g>
     </g>
     <g id="text_14">
      <!-- 3 -->
      <g transform="translate(145.513734 349.860897)scale(0.18 -0.18)">
       <use xlink:href="#DejaVuSans-33"/>
      </g>
     </g>
    </g>
    <g id="ytick_4">
     <g id="line2d_27">
      <path clip-path="url(#p24f3f952f4)" d="M 163.966234 282.16158 
L 916.155703 282.16158 
" style="fill:none;stroke:#b0b0b0;stroke-dasharray:2.96,1.28;stroke-dashoffset:0;stroke-width:0.8;"/>
     </g>
     <g id="line2d_28">
      <g>
       <use style="stroke:#000000;stroke-width:0.8;" x="163.966234" xlink:href="#m351b71de8f" y="282.16158"/>
      </g>
     </g>
     <g id="text_15">
      <!-- 4 -->
      <g transform="translate(145.513734 289.000174)scale(0.18 -0.18)">
       <use xlink:href="#DejaVuSans-34"/>
      </g>
     </g>
    </g>
    <g id="ytick_5">
     <g id="line2d_29">
      <path clip-path="url(#p24f3f952f4)" d="M 163.966234 221.300857 
L 916.155703 221.300857 
" style="fill:none;stroke:#b0b0b0;stroke-dasharray:2.96,1.28;stroke-dashoffset:0;stroke-width:0.8;"/>
     </g>
     <g id="line2d_30">
      <g>
       <use style="stroke:#000000;stroke-width:0.8;" x="163.966234" xlink:href="#m351b71de8f" y="221.300857"/>
      </g>
     </g>
     <g id="text_16">
      <!-- 5 -->
      <g transform="translate(145.513734 228.139451)scale(0.18 -0.18)">
       <use xlink:href="#DejaVuSans-35"/>
      </g>
     </g>
    </g>
    <g id="ytick_6">
     <g id="line2d_31">
      <path clip-path="url(#p24f3f952f4)" d="M 163.966234 160.440134 
L 916.155703 160.440134 
" style="fill:none;stroke:#b0b0b0;stroke-dasharray:2.96,1.28;stroke-dashoffset:0;stroke-width:0.8;"/>
     </g>
     <g id="line2d_32">
      <g>
       <use style="stroke:#000000;stroke-width:0.8;" x="163.966234" xlink:href="#m351b71de8f" y="160.440134"/>
      </g>
     </g>
     <g id="text_17">
      <!-- 6 -->
      <g transform="translate(145.513734 167.278728)scale(0.18 -0.18)">
       <use xlink:href="#DejaVuSans-36"/>
      </g>
     </g>
    </g>
    <g id="ytick_7">
     <g id="line2d_33">
      <path clip-path="url(#p24f3f952f4)" d="M 163.966234 99.579411 
L 916.155703 99.579411 
" style="fill:none;stroke:#b0b0b0;stroke-dasharray:2.96,1.28;stroke-dashoffset:0;stroke-width:0.8;"/>
     </g>
     <g id="line2d_34">
      <g>
       <use style="stroke:#000000;stroke-width:0.8;" x="163.966234" xlink:href="#m351b71de8f" y="99.579411"/>
      </g>
     </g>
     <g id="text_18">
      <!-- 7 -->
      <g transform="translate(145.513734 106.418005)scale(0.18 -0.18)">
       <use xlink:href="#DejaVuSans-37"/>
      </g>
     </g>
    </g>
    <g id="text_19">
     <!-- Approximate Ratio -->
     <g transform="translate(137.770297 337.579062)rotate(-90)scale(0.18 -0.18)">
      <defs>
       <path d="M 2188 4044 
L 1331 1722 
L 3047 1722 
L 2188 4044 
z
M 1831 4666 
L 2547 4666 
L 4325 0 
L 3669 0 
L 3244 1197 
L 1141 1197 
L 716 0 
L 50 0 
L 1831 4666 
z
" id="DejaVuSans-41" transform="scale(0.015625)"/>
       <path d="M 1159 525 
L 1159 -1331 
L 581 -1331 
L 581 3500 
L 1159 3500 
L 1159 2969 
Q 1341 3281 1617 3432 
Q 1894 3584 2278 3584 
Q 2916 3584 3314 3078 
Q 3713 2572 3713 1747 
Q 3713 922 3314 415 
Q 2916 -91 2278 -91 
Q 1894 -91 1617 61 
Q 1341 213 1159 525 
z
M 3116 1747 
Q 3116 2381 2855 2742 
Q 2594 3103 2138 3103 
Q 1681 3103 1420 2742 
Q 1159 2381 1159 1747 
Q 1159 1113 1420 752 
Q 1681 391 2138 391 
Q 2594 391 2855 752 
Q 3116 1113 3116 1747 
z
" id="DejaVuSans-70" transform="scale(0.015625)"/>
       <path d="M 2631 2963 
Q 2534 3019 2420 3045 
Q 2306 3072 2169 3072 
Q 1681 3072 1420 2755 
Q 1159 2438 1159 1844 
L 1159 0 
L 581 0 
L 581 3500 
L 1159 3500 
L 1159 2956 
Q 1341 3275 1631 3429 
Q 1922 3584 2338 3584 
Q 2397 3584 2469 3576 
Q 2541 3569 2628 3553 
L 2631 2963 
z
" id="DejaVuSans-72" transform="scale(0.015625)"/>
       <path d="M 1959 3097 
Q 1497 3097 1228 2736 
Q 959 2375 959 1747 
Q 959 1119 1226 758 
Q 1494 397 1959 397 
Q 2419 397 2687 759 
Q 2956 1122 2956 1747 
Q 2956 2369 2687 2733 
Q 2419 3097 1959 3097 
z
M 1959 3584 
Q 2709 3584 3137 3096 
Q 3566 2609 3566 1747 
Q 3566 888 3137 398 
Q 2709 -91 1959 -91 
Q 1206 -91 779 398 
Q 353 888 353 1747 
Q 353 2609 779 3096 
Q 1206 3584 1959 3584 
z
" id="DejaVuSans-6f" transform="scale(0.015625)"/>
       <path d="M 3513 3500 
L 2247 1797 
L 3578 0 
L 2900 0 
L 1881 1375 
L 863 0 
L 184 0 
L 1544 1831 
L 300 3500 
L 978 3500 
L 1906 2253 
L 2834 3500 
L 3513 3500 
z
" id="DejaVuSans-78" transform="scale(0.015625)"/>
       <path d="M 603 3500 
L 1178 3500 
L 1178 0 
L 603 0 
L 603 3500 
z
M 603 4863 
L 1178 4863 
L 1178 4134 
L 603 4134 
L 603 4863 
z
" id="DejaVuSans-69" transform="scale(0.015625)"/>
       <path d="M 3328 2828 
Q 3544 3216 3844 3400 
Q 4144 3584 4550 3584 
Q 5097 3584 5394 3201 
Q 5691 2819 5691 2113 
L 5691 0 
L 5113 0 
L 5113 2094 
Q 5113 2597 4934 2840 
Q 4756 3084 4391 3084 
Q 3944 3084 3684 2787 
Q 3425 2491 3425 1978 
L 3425 0 
L 2847 0 
L 2847 2094 
Q 2847 2600 2669 2842 
Q 2491 3084 2119 3084 
Q 1678 3084 1418 2786 
Q 1159 2488 1159 1978 
L 1159 0 
L 581 0 
L 581 3500 
L 1159 3500 
L 1159 2956 
Q 1356 3278 1631 3431 
Q 1906 3584 2284 3584 
Q 2666 3584 2933 3390 
Q 3200 3197 3328 2828 
z
" id="DejaVuSans-6d" transform="scale(0.015625)"/>
       <path d="M 2194 1759 
Q 1497 1759 1228 1600 
Q 959 1441 959 1056 
Q 959 750 1161 570 
Q 1363 391 1709 391 
Q 2188 391 2477 730 
Q 2766 1069 2766 1631 
L 2766 1759 
L 2194 1759 
z
M 3341 1997 
L 3341 0 
L 2766 0 
L 2766 531 
Q 2569 213 2275 61 
Q 1981 -91 1556 -91 
Q 1019 -91 701 211 
Q 384 513 384 1019 
Q 384 1609 779 1909 
Q 1175 2209 1959 2209 
L 2766 2209 
L 2766 2266 
Q 2766 2663 2505 2880 
Q 2244 3097 1772 3097 
Q 1472 3097 1187 3025 
Q 903 2953 641 2809 
L 641 3341 
Q 956 3463 1253 3523 
Q 1550 3584 1831 3584 
Q 2591 3584 2966 3190 
Q 3341 2797 3341 1997 
z
" id="DejaVuSans-61" transform="scale(0.015625)"/>
       <path id="DejaVuSans-20" transform="scale(0.015625)"/>
       <path d="M 2841 2188 
Q 3044 2119 3236 1894 
Q 3428 1669 3622 1275 
L 4263 0 
L 3584 0 
L 2988 1197 
Q 2756 1666 2539 1819 
Q 2322 1972 1947 1972 
L 1259 1972 
L 1259 0 
L 628 0 
L 628 4666 
L 2053 4666 
Q 2853 4666 3247 4331 
Q 3641 3997 3641 3322 
Q 3641 2881 3436 2590 
Q 3231 2300 2841 2188 
z
M 1259 4147 
L 1259 2491 
L 2053 2491 
Q 2509 2491 2742 2702 
Q 2975 2913 2975 3322 
Q 2975 3731 2742 3939 
Q 2509 4147 2053 4147 
L 1259 4147 
z
" id="DejaVuSans-52" transform="scale(0.015625)"/>
      </defs>
      <use xlink:href="#DejaVuSans-41"/>
      <use x="68.408203" xlink:href="#DejaVuSans-70"/>
      <use x="131.884766" xlink:href="#DejaVuSans-70"/>
      <use x="195.361328" xlink:href="#DejaVuSans-72"/>
      <use x="234.224609" xlink:href="#DejaVuSans-6f"/>
      <use x="292.28125" xlink:href="#DejaVuSans-78"/>
      <use x="351.460938" xlink:href="#DejaVuSans-69"/>
      <use x="379.244141" xlink:href="#DejaVuSans-6d"/>
      <use x="476.65625" xlink:href="#DejaVuSans-61"/>
      <use x="537.935547" xlink:href="#DejaVuSans-74"/>
      <use x="577.144531" xlink:href="#DejaVuSans-65"/>
      <use x="638.667969" xlink:href="#DejaVuSans-20"/>
      <use x="670.455078" xlink:href="#DejaVuSans-52"/>
      <use x="737.6875" xlink:href="#DejaVuSans-61"/>
      <use x="798.966797" xlink:href="#DejaVuSans-74"/>
      <use x="838.175781" xlink:href="#DejaVuSans-69"/>
      <use x="865.958984" xlink:href="#DejaVuSans-6f"/>
     </g>
    </g>
   </g>
   <g id="patch_33">
    <path d="M 163.966234 464.74375 
L 163.966234 43.52625 
" style="fill:none;stroke:#000000;stroke-linecap:square;stroke-linejoin:miter;stroke-width:0.8;"/>
   </g>
   <g id="patch_34">
    <path d="M 916.155703 464.74375 
L 916.155703 43.52625 
" style="fill:none;stroke:#000000;stroke-linecap:square;stroke-linejoin:miter;stroke-width:0.8;"/>
   </g>
   <g id="patch_35">
    <path d="M 163.966234 464.74375 
L 916.155703 464.74375 
" style="fill:none;stroke:#000000;stroke-linecap:square;stroke-linejoin:miter;stroke-width:0.8;"/>
   </g>
   <g id="patch_36">
    <path d="M 163.966234 43.52625 
L 916.155703 43.52625 
" style="fill:none;stroke:#000000;stroke-linecap:square;stroke-linejoin:miter;stroke-width:0.8;"/>
   </g>
   <g id="legend_1">
    <g id="patch_37">
     <path d="M 176.566234 138.69 
L 511.056859 138.69 
Q 514.656859 138.69 514.656859 135.09 
L 514.656859 56.12625 
Q 514.656859 52.52625 511.056859 52.52625 
L 176.566234 52.52625 
Q 172.966234 52.52625 172.966234 56.12625 
L 172.966234 135.09 
Q 172.966234 138.69 176.566234 138.69 
z
" style="fill:#ffffff;opacity:0.8;stroke:#cccccc;stroke-linejoin:miter;"/>
    </g>
    <g id="patch_38">
     <path d="M 180.166234 73.403437 
L 216.166234 73.403437 
L 216.166234 60.803437 
L 180.166234 60.803437 
z
" style="fill:#ff1f5b;"/>
    </g>
    <g id="text_20">
     <!-- min_max_greedy -->
     <g transform="translate(230.566234 73.403437)scale(0.18 -0.18)">
      <defs>
       <path d="M 3513 2113 
L 3513 0 
L 2938 0 
L 2938 2094 
Q 2938 2591 2744 2837 
Q 2550 3084 2163 3084 
Q 1697 3084 1428 2787 
Q 1159 2491 1159 1978 
L 1159 0 
L 581 0 
L 581 3500 
L 1159 3500 
L 1159 2956 
Q 1366 3272 1645 3428 
Q 1925 3584 2291 3584 
Q 2894 3584 3203 3211 
Q 3513 2838 3513 2113 
z
" id="DejaVuSans-6e" transform="scale(0.015625)"/>
       <path d="M 3263 -1063 
L 3263 -1509 
L -63 -1509 
L -63 -1063 
L 3263 -1063 
z
" id="DejaVuSans-5f" transform="scale(0.015625)"/>
       <path d="M 2059 -325 
Q 1816 -950 1584 -1140 
Q 1353 -1331 966 -1331 
L 506 -1331 
L 506 -850 
L 844 -850 
Q 1081 -850 1212 -737 
Q 1344 -625 1503 -206 
L 1606 56 
L 191 3500 
L 800 3500 
L 1894 763 
L 2988 3500 
L 3597 3500 
L 2059 -325 
z
" id="DejaVuSans-79" transform="scale(0.015625)"/>
      </defs>
      <use xlink:href="#DejaVuSans-6d"/>
      <use x="97.412109" xlink:href="#DejaVuSans-69"/>
      <use x="125.195312" xlink:href="#DejaVuSans-6e"/>
      <use x="188.574219" xlink:href="#DejaVuSans-5f"/>
      <use x="238.574219" xlink:href="#DejaVuSans-6d"/>
      <use x="335.986328" xlink:href="#DejaVuSans-61"/>
      <use x="397.265625" xlink:href="#DejaVuSans-78"/>
      <use x="456.445312" xlink:href="#DejaVuSans-5f"/>
      <use x="506.445312" xlink:href="#DejaVuSans-67"/>
      <use x="569.921875" xlink:href="#DejaVuSans-72"/>
      <use x="608.785156" xlink:href="#DejaVuSans-65"/>
      <use x="670.308594" xlink:href="#DejaVuSans-65"/>
      <use x="731.832031" xlink:href="#DejaVuSans-64"/>
      <use x="795.308594" xlink:href="#DejaVuSans-79"/>
     </g>
    </g>
    <g id="patch_39">
     <path d="M 180.166234 100.324687 
L 216.166234 100.324687 
L 216.166234 87.724687 
L 180.166234 87.724687 
z
" style="fill:#009ade;"/>
    </g>
    <g id="text_21">
     <!-- min_max_equal_weight -->
     <g transform="translate(230.566234 100.324687)scale(0.18 -0.18)">
      <defs>
       <path d="M 947 1747 
Q 947 1113 1208 752 
Q 1469 391 1925 391 
Q 2381 391 2643 752 
Q 2906 1113 2906 1747 
Q 2906 2381 2643 2742 
Q 2381 3103 1925 3103 
Q 1469 3103 1208 2742 
Q 947 2381 947 1747 
z
M 2906 525 
Q 2725 213 2448 61 
Q 2172 -91 1784 -91 
Q 1150 -91 751 415 
Q 353 922 353 1747 
Q 353 2572 751 3078 
Q 1150 3584 1784 3584 
Q 2172 3584 2448 3432 
Q 2725 3281 2906 2969 
L 2906 3500 
L 3481 3500 
L 3481 -1331 
L 2906 -1331 
L 2906 525 
z
" id="DejaVuSans-71" transform="scale(0.015625)"/>
       <path d="M 603 4863 
L 1178 4863 
L 1178 0 
L 603 0 
L 603 4863 
z
" id="DejaVuSans-6c" transform="scale(0.015625)"/>
       <path d="M 269 3500 
L 844 3500 
L 1563 769 
L 2278 3500 
L 2956 3500 
L 3675 769 
L 4391 3500 
L 4966 3500 
L 4050 0 
L 3372 0 
L 2619 2869 
L 1863 0 
L 1184 0 
L 269 3500 
z
" id="DejaVuSans-77" transform="scale(0.015625)"/>
       <path d="M 3513 2113 
L 3513 0 
L 2938 0 
L 2938 2094 
Q 2938 2591 2744 2837 
Q 2550 3084 2163 3084 
Q 1697 3084 1428 2787 
Q 1159 2491 1159 1978 
L 1159 0 
L 581 0 
L 581 4863 
L 1159 4863 
L 1159 2956 
Q 1366 3272 1645 3428 
Q 1925 3584 2291 3584 
Q 2894 3584 3203 3211 
Q 3513 2838 3513 2113 
z
" id="DejaVuSans-68" transform="scale(0.015625)"/>
      </defs>
      <use xlink:href="#DejaVuSans-6d"/>
      <use x="97.412109" xlink:href="#DejaVuSans-69"/>
      <use x="125.195312" xlink:href="#DejaVuSans-6e"/>
      <use x="188.574219" xlink:href="#DejaVuSans-5f"/>
      <use x="238.574219" xlink:href="#DejaVuSans-6d"/>
      <use x="335.986328" xlink:href="#DejaVuSans-61"/>
      <use x="397.265625" xlink:href="#DejaVuSans-78"/>
      <use x="456.445312" xlink:href="#DejaVuSans-5f"/>
      <use x="506.445312" xlink:href="#DejaVuSans-65"/>
      <use x="567.96875" xlink:href="#DejaVuSans-71"/>
      <use x="631.445312" xlink:href="#DejaVuSans-75"/>
      <use x="694.824219" xlink:href="#DejaVuSans-61"/>
      <use x="756.103516" xlink:href="#DejaVuSans-6c"/>
      <use x="783.886719" xlink:href="#DejaVuSans-5f"/>
      <use x="833.886719" xlink:href="#DejaVuSans-77"/>
      <use x="915.673828" xlink:href="#DejaVuSans-65"/>
      <use x="977.197266" xlink:href="#DejaVuSans-69"/>
      <use x="1004.980469" xlink:href="#DejaVuSans-67"/>
      <use x="1068.457031" xlink:href="#DejaVuSans-68"/>
      <use x="1131.835938" xlink:href="#DejaVuSans-74"/>
     </g>
    </g>
    <g id="patch_40">
     <path d="M 180.166234 127.245937 
L 216.166234 127.245937 
L 216.166234 114.645937 
L 180.166234 114.645937 
z
" style="fill:#f28522;"/>
    </g>
    <g id="text_22">
     <!-- min_max_surrogate_relaxation -->
     <g transform="translate(230.566234 127.245937)scale(0.18 -0.18)">
      <defs>
       <path d="M 2834 3397 
L 2834 2853 
Q 2591 2978 2328 3040 
Q 2066 3103 1784 3103 
Q 1356 3103 1142 2972 
Q 928 2841 928 2578 
Q 928 2378 1081 2264 
Q 1234 2150 1697 2047 
L 1894 2003 
Q 2506 1872 2764 1633 
Q 3022 1394 3022 966 
Q 3022 478 2636 193 
Q 2250 -91 1575 -91 
Q 1294 -91 989 -36 
Q 684 19 347 128 
L 347 722 
Q 666 556 975 473 
Q 1284 391 1588 391 
Q 1994 391 2212 530 
Q 2431 669 2431 922 
Q 2431 1156 2273 1281 
Q 2116 1406 1581 1522 
L 1381 1569 
Q 847 1681 609 1914 
Q 372 2147 372 2553 
Q 372 3047 722 3315 
Q 1072 3584 1716 3584 
Q 2034 3584 2315 3537 
Q 2597 3491 2834 3397 
z
" id="DejaVuSans-73" transform="scale(0.015625)"/>
      </defs>
      <use xlink:href="#DejaVuSans-6d"/>
      <use x="97.412109" xlink:href="#DejaVuSans-69"/>
      <use x="125.195312" xlink:href="#DejaVuSans-6e"/>
      <use x="188.574219" xlink:href="#DejaVuSans-5f"/>
      <use x="238.574219" xlink:href="#DejaVuSans-6d"/>
      <use x="335.986328" xlink:href="#DejaVuSans-61"/>
      <use x="397.265625" xlink:href="#DejaVuSans-78"/>
      <use x="456.445312" xlink:href="#DejaVuSans-5f"/>
      <use x="506.445312" xlink:href="#DejaVuSans-73"/>
      <use x="558.544922" xlink:href="#DejaVuSans-75"/>
      <use x="621.923828" xlink:href="#DejaVuSans-72"/>
      <use x="661.287109" xlink:href="#DejaVuSans-72"/>
      <use x="700.150391" xlink:href="#DejaVuSans-6f"/>
      <use x="761.332031" xlink:href="#DejaVuSans-67"/>
      <use x="824.808594" xlink:href="#DejaVuSans-61"/>
      <use x="886.087891" xlink:href="#DejaVuSans-74"/>
      <use x="925.296875" xlink:href="#DejaVuSans-65"/>
      <use x="986.820312" xlink:href="#DejaVuSans-5f"/>
      <use x="1036.820312" xlink:href="#DejaVuSans-72"/>
      <use x="1075.683594" xlink:href="#DejaVuSans-65"/>
      <use x="1137.207031" xlink:href="#DejaVuSans-6c"/>
      <use x="1164.990234" xlink:href="#DejaVuSans-61"/>
      <use x="1226.269531" xlink:href="#DejaVuSans-78"/>
      <use x="1285.449219" xlink:href="#DejaVuSans-61"/>
      <use x="1346.728516" xlink:href="#DejaVuSans-74"/>
      <use x="1385.9375" xlink:href="#DejaVuSans-69"/>
      <use x="1413.720703" xlink:href="#DejaVuSans-6f"/>
      <use x="1474.902344" xlink:href="#DejaVuSans-6e"/>
     </g>
    </g>
   </g>
  </g>
 </g>
 <defs>
  <clipPath id="p24f3f952f4">
   <rect height="421.2175" width="752.189469" x="163.966234" y="43.52625"/>
  </clipPath>
 </defs>
</svg>
