<?xml version="1.0" encoding="utf-8" standalone="no"?>
<!DOCTYPE svg PUBLIC "-//W3C//DTD SVG 1.1//EN"
  "http://www.w3.org/Graphics/SVG/1.1/DTD/svg11.dtd">
<svg height="509.04pt" version="1.1" viewBox="0 0 814.32 509.04" width="814.32pt" xmlns="http://www.w3.org/2000/svg" xmlns:xlink="http://www.w3.org/1999/xlink">
 <metadata>
  <rdf:RDF xmlns:cc="http://creativecommons.org/ns#" xmlns:dc="http://purl.org/dc/elements/1.1/" xmlns:rdf="http://www.w3.org/1999/02/22-rdf-syntax-ns#">
   <cc:Work>
    <dc:type rdf:resource="http://purl.org/dc/dcmitype/StillImage"/>
    <dc:date>2022-08-15T13:19:21.426212</dc:date>
    <dc:format>image/svg+xml</dc:format>
    <dc:creator>
     <cc:Agent>
      <dc:title>Matplotlib v3.4.3, https://matplotlib.org/</dc:title>
     </cc:Agent>
    </dc:creator>
   </cc:Work>
  </rdf:RDF>
 </metadata>
 <defs>
  <style type="text/css">*{stroke-linecap:butt;stroke-linejoin:round;}</style>
 </defs>
 <g id="figure_1">
  <g id="patch_1">
   <path d="M 0 509.04 
L 814.32 509.04 
L 814.32 0 
L 0 0 
z
" style="fill:#ffffff;"/>
  </g>
  <g id="axes_1">
   <g id="patch_2">
    <path d="M 135.066141 413.300417 
L 754.677422 413.300417 
L 754.677422 38.70825 
L 135.066141 38.70825 
z
" style="fill:#ffffff;"/>
   </g>
   <g id="patch_3">
    <path clip-path="url(#p8fb82c79fd)" d="M 163.23029 1691.141115 
L 169.287096 1691.141115 
L 169.287096 244.770594 
L 163.23029 244.770594 
z
" style="fill:#ff1f5b;"/>
   </g>
   <g id="patch_4">
    <path clip-path="url(#p8fb82c79fd)" d="M 223.798352 1691.141115 
L 229.855159 1691.141115 
L 229.855159 343.053805 
L 223.798352 343.053805 
z
" style="fill:#ff1f5b;"/>
   </g>
   <g id="patch_5">
    <path clip-path="url(#p8fb82c79fd)" d="M 284.366415 1691.141115 
L 290.423221 1691.141115 
L 290.423221 303.52586 
L 284.366415 303.52586 
z
" style="fill:#ff1f5b;"/>
   </g>
   <g id="patch_6">
    <path clip-path="url(#p8fb82c79fd)" d="M 344.934478 1691.141115 
L 350.991284 1691.141115 
L 350.991284 342.606063 
L 344.934478 342.606063 
z
" style="fill:#ff1f5b;"/>
   </g>
   <g id="patch_7">
    <path clip-path="url(#p8fb82c79fd)" d="M 405.502541 1691.141115 
L 411.559347 1691.141115 
L 411.559347 323.785157 
L 405.502541 323.785157 
z
" style="fill:#ff1f5b;"/>
   </g>
   <g id="patch_8">
    <path clip-path="url(#p8fb82c79fd)" d="M 466.070603 1691.141115 
L 472.127409 1691.141115 
L 472.127409 297.466962 
L 466.070603 297.466962 
z
" style="fill:#ff1f5b;"/>
   </g>
   <g id="patch_9">
    <path clip-path="url(#p8fb82c79fd)" d="M 526.638666 1691.141115 
L 532.695472 1691.141115 
L 532.695472 342.279422 
L 526.638666 342.279422 
z
" style="fill:#ff1f5b;"/>
   </g>
   <g id="patch_10">
    <path clip-path="url(#p8fb82c79fd)" d="M 587.206729 1691.141115 
L 593.263535 1691.141115 
L 593.263535 323.908604 
L 587.206729 323.908604 
z
" style="fill:#ff1f5b;"/>
   </g>
   <g id="patch_11">
    <path clip-path="url(#p8fb82c79fd)" d="M 647.774791 1691.141115 
L 653.831598 1691.141115 
L 653.831598 341.227722 
L 647.774791 341.227722 
z
" style="fill:#ff1f5b;"/>
   </g>
   <g id="patch_12">
    <path clip-path="url(#p8fb82c79fd)" d="M 708.342854 1691.141115 
L 714.39966 1691.141115 
L 714.39966 329.352749 
L 708.342854 329.352749 
z
" style="fill:#ff1f5b;"/>
   </g>
   <g id="patch_13">
    <path clip-path="url(#p8fb82c79fd)" d="M 169.287096 1691.141115 
L 175.343902 1691.141115 
L 175.343902 329.687948 
L 169.287096 329.687948 
z
" style="fill:#009ade;"/>
   </g>
   <g id="patch_14">
    <path clip-path="url(#p8fb82c79fd)" d="M 229.855159 1691.141115 
L 235.911965 1691.141115 
L 235.911965 210.915471 
L 229.855159 210.915471 
z
" style="fill:#009ade;"/>
   </g>
   <g id="patch_15">
    <path clip-path="url(#p8fb82c79fd)" d="M 290.423221 1691.141115 
L 296.480028 1691.141115 
L 296.480028 51.486657 
L 290.423221 51.486657 
z
" style="fill:#009ade;"/>
   </g>
   <g id="patch_16">
    <path clip-path="url(#p8fb82c79fd)" d="M 350.991284 1691.141115 
L 357.04809 1691.141115 
L 357.04809 254.927377 
L 350.991284 254.927377 
z
" style="fill:#009ade;"/>
   </g>
   <g id="patch_17">
    <path clip-path="url(#p8fb82c79fd)" d="M 411.559347 1691.141115 
L 417.616153 1691.141115 
L 417.616153 281.798903 
L 411.559347 281.798903 
z
" style="fill:#009ade;"/>
   </g>
   <g id="patch_18">
    <path clip-path="url(#p8fb82c79fd)" d="M 472.127409 1691.141115 
L 478.184216 1691.141115 
L 478.184216 243.744064 
L 472.127409 243.744064 
z
" style="fill:#009ade;"/>
   </g>
   <g id="patch_19">
    <path clip-path="url(#p8fb82c79fd)" d="M 532.695472 1691.141115 
L 538.752278 1691.141115 
L 538.752278 244.481628 
L 532.695472 244.481628 
z
" style="fill:#009ade;"/>
   </g>
   <g id="patch_20">
    <path clip-path="url(#p8fb82c79fd)" d="M 593.263535 1691.141115 
L 599.320341 1691.141115 
L 599.320341 235.927135 
L 593.263535 235.927135 
z
" style="fill:#009ade;"/>
   </g>
   <g id="patch_21">
    <path clip-path="url(#p8fb82c79fd)" d="M 653.831598 1691.141115 
L 659.888404 1691.141115 
L 659.888404 219.813572 
L 653.831598 219.813572 
z
" style="fill:#009ade;"/>
   </g>
   <g id="patch_22">
    <path clip-path="url(#p8fb82c79fd)" d="M 714.39966 1691.141115 
L 720.456466 1691.141115 
L 720.456466 254.037979 
L 714.39966 254.037979 
z
" style="fill:#009ade;"/>
   </g>
   <g id="patch_23">
    <path clip-path="url(#p8fb82c79fd)" d="M 175.343902 1691.141115 
L 181.400709 1691.141115 
L 181.400709 390.709265 
L 175.343902 390.709265 
z
" style="fill:#f28522;"/>
   </g>
   <g id="patch_24">
    <path clip-path="url(#p8fb82c79fd)" d="M 235.911965 1691.141115 
L 241.968771 1691.141115 
L 241.968771 378.853348 
L 235.911965 378.853348 
z
" style="fill:#f28522;"/>
   </g>
   <g id="patch_25">
    <path clip-path="url(#p8fb82c79fd)" d="M 296.480028 1691.141115 
L 302.536834 1691.141115 
L 302.536834 357.513794 
L 296.480028 357.513794 
z
" style="fill:#f28522;"/>
   </g>
   <g id="patch_26">
    <path clip-path="url(#p8fb82c79fd)" d="M 357.04809 1691.141115 
L 363.104897 1691.141115 
L 363.104897 373.816418 
L 357.04809 373.816418 
z
" style="fill:#f28522;"/>
   </g>
   <g id="patch_27">
    <path clip-path="url(#p8fb82c79fd)" d="M 417.616153 1691.141115 
L 423.672959 1691.141115 
L 423.672959 380.070997 
L 417.616153 380.070997 
z
" style="fill:#f28522;"/>
   </g>
   <g id="patch_28">
    <path clip-path="url(#p8fb82c79fd)" d="M 478.184216 1691.141115 
L 484.241022 1691.141115 
L 484.241022 370.379136 
L 478.184216 370.379136 
z
" style="fill:#f28522;"/>
   </g>
   <g id="patch_29">
    <path clip-path="url(#p8fb82c79fd)" d="M 538.752278 1691.141115 
L 544.809085 1691.141115 
L 544.809085 385.373886 
L 538.752278 385.373886 
z
" style="fill:#f28522;"/>
   </g>
   <g id="patch_30">
    <path clip-path="url(#p8fb82c79fd)" d="M 599.320341 1691.141115 
L 605.377147 1691.141115 
L 605.377147 374.493797 
L 599.320341 374.493797 
z
" style="fill:#f28522;"/>
   </g>
   <g id="patch_31">
    <path clip-path="url(#p8fb82c79fd)" d="M 659.888404 1691.141115 
L 665.94521 1691.141115 
L 665.94521 348.381463 
L 659.888404 348.381463 
z
" style="fill:#f28522;"/>
   </g>
   <g id="patch_32">
    <path clip-path="url(#p8fb82c79fd)" d="M 720.456466 1691.141115 
L 726.513273 1691.141115 
L 726.513273 364.241325 
L 720.456466 364.241325 
z
" style="fill:#f28522;"/>
   </g>
   <g id="matplotlib.axis_1">
    <g id="xtick_1">
     <g id="line2d_1">
      <path clip-path="url(#p8fb82c79fd)" d="M 172.315499 413.300417 
L 172.315499 38.70825 
" style="fill:none;stroke:#b0b0b0;stroke-dasharray:2.96,1.28;stroke-dashoffset:0;stroke-width:0.8;"/>
     </g>
     <g id="line2d_2">
      <defs>
       <path d="M 0 0 
L 0 3.5 
" id="m9df37e8c80" style="stroke:#000000;stroke-width:0.8;"/>
      </defs>
      <g>
       <use style="stroke:#000000;stroke-width:0.8;" x="172.315499" xlink:href="#m9df37e8c80" y="413.300417"/>
      </g>
     </g>
     <g id="text_1">
      <!-- 10 -->
      <g transform="translate(160.862999 433.977604)scale(0.18 -0.18)">
       <defs>
        <path d="M 794 531 
L 1825 531 
L 1825 4091 
L 703 3866 
L 703 4441 
L 1819 4666 
L 2450 4666 
L 2450 531 
L 3481 531 
L 3481 0 
L 794 0 
L 794 531 
z
" id="DejaVuSans-31" transform="scale(0.015625)"/>
        <path d="M 2034 4250 
Q 1547 4250 1301 3770 
Q 1056 3291 1056 2328 
Q 1056 1369 1301 889 
Q 1547 409 2034 409 
Q 2525 409 2770 889 
Q 3016 1369 3016 2328 
Q 3016 3291 2770 3770 
Q 2525 4250 2034 4250 
z
M 2034 4750 
Q 2819 4750 3233 4129 
Q 3647 3509 3647 2328 
Q 3647 1150 3233 529 
Q 2819 -91 2034 -91 
Q 1250 -91 836 529 
Q 422 1150 422 2328 
Q 422 3509 836 4129 
Q 1250 4750 2034 4750 
z
" id="DejaVuSans-30" transform="scale(0.015625)"/>
       </defs>
       <use xlink:href="#DejaVuSans-31"/>
       <use x="63.623047" xlink:href="#DejaVuSans-30"/>
      </g>
     </g>
    </g>
    <g id="xtick_2">
     <g id="line2d_3">
      <path clip-path="url(#p8fb82c79fd)" d="M 232.883562 413.300417 
L 232.883562 38.70825 
" style="fill:none;stroke:#b0b0b0;stroke-dasharray:2.96,1.28;stroke-dashoffset:0;stroke-width:0.8;"/>
     </g>
     <g id="line2d_4">
      <g>
       <use style="stroke:#000000;stroke-width:0.8;" x="232.883562" xlink:href="#m9df37e8c80" y="413.300417"/>
      </g>
     </g>
     <g id="text_2">
      <!-- 20 -->
      <g transform="translate(221.431062 433.977604)scale(0.18 -0.18)">
       <defs>
        <path d="M 1228 531 
L 3431 531 
L 3431 0 
L 469 0 
L 469 531 
Q 828 903 1448 1529 
Q 2069 2156 2228 2338 
Q 2531 2678 2651 2914 
Q 2772 3150 2772 3378 
Q 2772 3750 2511 3984 
Q 2250 4219 1831 4219 
Q 1534 4219 1204 4116 
Q 875 4013 500 3803 
L 500 4441 
Q 881 4594 1212 4672 
Q 1544 4750 1819 4750 
Q 2544 4750 2975 4387 
Q 3406 4025 3406 3419 
Q 3406 3131 3298 2873 
Q 3191 2616 2906 2266 
Q 2828 2175 2409 1742 
Q 1991 1309 1228 531 
z
" id="DejaVuSans-32" transform="scale(0.015625)"/>
       </defs>
       <use xlink:href="#DejaVuSans-32"/>
       <use x="63.623047" xlink:href="#DejaVuSans-30"/>
      </g>
     </g>
    </g>
    <g id="xtick_3">
     <g id="line2d_5">
      <path clip-path="url(#p8fb82c79fd)" d="M 293.451625 413.300417 
L 293.451625 38.70825 
" style="fill:none;stroke:#b0b0b0;stroke-dasharray:2.96,1.28;stroke-dashoffset:0;stroke-width:0.8;"/>
     </g>
     <g id="line2d_6">
      <g>
       <use style="stroke:#000000;stroke-width:0.8;" x="293.451625" xlink:href="#m9df37e8c80" y="413.300417"/>
      </g>
     </g>
     <g id="text_3">
      <!-- 30 -->
      <g transform="translate(281.999125 433.977604)scale(0.18 -0.18)">
       <defs>
        <path d="M 2597 2516 
Q 3050 2419 3304 2112 
Q 3559 1806 3559 1356 
Q 3559 666 3084 287 
Q 2609 -91 1734 -91 
Q 1441 -91 1130 -33 
Q 819 25 488 141 
L 488 750 
Q 750 597 1062 519 
Q 1375 441 1716 441 
Q 2309 441 2620 675 
Q 2931 909 2931 1356 
Q 2931 1769 2642 2001 
Q 2353 2234 1838 2234 
L 1294 2234 
L 1294 2753 
L 1863 2753 
Q 2328 2753 2575 2939 
Q 2822 3125 2822 3475 
Q 2822 3834 2567 4026 
Q 2313 4219 1838 4219 
Q 1578 4219 1281 4162 
Q 984 4106 628 3988 
L 628 4550 
Q 988 4650 1302 4700 
Q 1616 4750 1894 4750 
Q 2613 4750 3031 4423 
Q 3450 4097 3450 3541 
Q 3450 3153 3228 2886 
Q 3006 2619 2597 2516 
z
" id="DejaVuSans-33" transform="scale(0.015625)"/>
       </defs>
       <use xlink:href="#DejaVuSans-33"/>
       <use x="63.623047" xlink:href="#DejaVuSans-30"/>
      </g>
     </g>
    </g>
    <g id="xtick_4">
     <g id="line2d_7">
      <path clip-path="url(#p8fb82c79fd)" d="M 354.019687 413.300417 
L 354.019687 38.70825 
" style="fill:none;stroke:#b0b0b0;stroke-dasharray:2.96,1.28;stroke-dashoffset:0;stroke-width:0.8;"/>
     </g>
     <g id="line2d_8">
      <g>
       <use style="stroke:#000000;stroke-width:0.8;" x="354.019687" xlink:href="#m9df37e8c80" y="413.300417"/>
      </g>
     </g>
     <g id="text_4">
      <!-- 40 -->
      <g transform="translate(342.567187 433.977604)scale(0.18 -0.18)">
       <defs>
        <path d="M 2419 4116 
L 825 1625 
L 2419 1625 
L 2419 4116 
z
M 2253 4666 
L 3047 4666 
L 3047 1625 
L 3713 1625 
L 3713 1100 
L 3047 1100 
L 3047 0 
L 2419 0 
L 2419 1100 
L 313 1100 
L 313 1709 
L 2253 4666 
z
" id="DejaVuSans-34" transform="scale(0.015625)"/>
       </defs>
       <use xlink:href="#DejaVuSans-34"/>
       <use x="63.623047" xlink:href="#DejaVuSans-30"/>
      </g>
     </g>
    </g>
    <g id="xtick_5">
     <g id="line2d_9">
      <path clip-path="url(#p8fb82c79fd)" d="M 414.58775 413.300417 
L 414.58775 38.70825 
" style="fill:none;stroke:#b0b0b0;stroke-dasharray:2.96,1.28;stroke-dashoffset:0;stroke-width:0.8;"/>
     </g>
     <g id="line2d_10">
      <g>
       <use style="stroke:#000000;stroke-width:0.8;" x="414.58775" xlink:href="#m9df37e8c80" y="413.300417"/>
      </g>
     </g>
     <g id="text_5">
      <!-- 50 -->
      <g transform="translate(403.13525 433.977604)scale(0.18 -0.18)">
       <defs>
        <path d="M 691 4666 
L 3169 4666 
L 3169 4134 
L 1269 4134 
L 1269 2991 
Q 1406 3038 1543 3061 
Q 1681 3084 1819 3084 
Q 2600 3084 3056 2656 
Q 3513 2228 3513 1497 
Q 3513 744 3044 326 
Q 2575 -91 1722 -91 
Q 1428 -91 1123 -41 
Q 819 9 494 109 
L 494 744 
Q 775 591 1075 516 
Q 1375 441 1709 441 
Q 2250 441 2565 725 
Q 2881 1009 2881 1497 
Q 2881 1984 2565 2268 
Q 2250 2553 1709 2553 
Q 1456 2553 1204 2497 
Q 953 2441 691 2322 
L 691 4666 
z
" id="DejaVuSans-35" transform="scale(0.015625)"/>
       </defs>
       <use xlink:href="#DejaVuSans-35"/>
       <use x="63.623047" xlink:href="#DejaVuSans-30"/>
      </g>
     </g>
    </g>
    <g id="xtick_6">
     <g id="line2d_11">
      <path clip-path="url(#p8fb82c79fd)" d="M 475.155813 413.300417 
L 475.155813 38.70825 
" style="fill:none;stroke:#b0b0b0;stroke-dasharray:2.96,1.28;stroke-dashoffset:0;stroke-width:0.8;"/>
     </g>
     <g id="line2d_12">
      <g>
       <use style="stroke:#000000;stroke-width:0.8;" x="475.155813" xlink:href="#m9df37e8c80" y="413.300417"/>
      </g>
     </g>
     <g id="text_6">
      <!-- 60 -->
      <g transform="translate(463.703313 433.977604)scale(0.18 -0.18)">
       <defs>
        <path d="M 2113 2584 
Q 1688 2584 1439 2293 
Q 1191 2003 1191 1497 
Q 1191 994 1439 701 
Q 1688 409 2113 409 
Q 2538 409 2786 701 
Q 3034 994 3034 1497 
Q 3034 2003 2786 2293 
Q 2538 2584 2113 2584 
z
M 3366 4563 
L 3366 3988 
Q 3128 4100 2886 4159 
Q 2644 4219 2406 4219 
Q 1781 4219 1451 3797 
Q 1122 3375 1075 2522 
Q 1259 2794 1537 2939 
Q 1816 3084 2150 3084 
Q 2853 3084 3261 2657 
Q 3669 2231 3669 1497 
Q 3669 778 3244 343 
Q 2819 -91 2113 -91 
Q 1303 -91 875 529 
Q 447 1150 447 2328 
Q 447 3434 972 4092 
Q 1497 4750 2381 4750 
Q 2619 4750 2861 4703 
Q 3103 4656 3366 4563 
z
" id="DejaVuSans-36" transform="scale(0.015625)"/>
       </defs>
       <use xlink:href="#DejaVuSans-36"/>
       <use x="63.623047" xlink:href="#DejaVuSans-30"/>
      </g>
     </g>
    </g>
    <g id="xtick_7">
     <g id="line2d_13">
      <path clip-path="url(#p8fb82c79fd)" d="M 535.723875 413.300417 
L 535.723875 38.70825 
" style="fill:none;stroke:#b0b0b0;stroke-dasharray:2.96,1.28;stroke-dashoffset:0;stroke-width:0.8;"/>
     </g>
     <g id="line2d_14">
      <g>
       <use style="stroke:#000000;stroke-width:0.8;" x="535.723875" xlink:href="#m9df37e8c80" y="413.300417"/>
      </g>
     </g>
     <g id="text_7">
      <!-- 70 -->
      <g transform="translate(524.271375 433.977604)scale(0.18 -0.18)">
       <defs>
        <path d="M 525 4666 
L 3525 4666 
L 3525 4397 
L 1831 0 
L 1172 0 
L 2766 4134 
L 525 4134 
L 525 4666 
z
" id="DejaVuSans-37" transform="scale(0.015625)"/>
       </defs>
       <use xlink:href="#DejaVuSans-37"/>
       <use x="63.623047" xlink:href="#DejaVuSans-30"/>
      </g>
     </g>
    </g>
    <g id="xtick_8">
     <g id="line2d_15">
      <path clip-path="url(#p8fb82c79fd)" d="M 596.291938 413.300417 
L 596.291938 38.70825 
" style="fill:none;stroke:#b0b0b0;stroke-dasharray:2.96,1.28;stroke-dashoffset:0;stroke-width:0.8;"/>
     </g>
     <g id="line2d_16">
      <g>
       <use style="stroke:#000000;stroke-width:0.8;" x="596.291938" xlink:href="#m9df37e8c80" y="413.300417"/>
      </g>
     </g>
     <g id="text_8">
      <!-- 80 -->
      <g transform="translate(584.839438 433.977604)scale(0.18 -0.18)">
       <defs>
        <path d="M 2034 2216 
Q 1584 2216 1326 1975 
Q 1069 1734 1069 1313 
Q 1069 891 1326 650 
Q 1584 409 2034 409 
Q 2484 409 2743 651 
Q 3003 894 3003 1313 
Q 3003 1734 2745 1975 
Q 2488 2216 2034 2216 
z
M 1403 2484 
Q 997 2584 770 2862 
Q 544 3141 544 3541 
Q 544 4100 942 4425 
Q 1341 4750 2034 4750 
Q 2731 4750 3128 4425 
Q 3525 4100 3525 3541 
Q 3525 3141 3298 2862 
Q 3072 2584 2669 2484 
Q 3125 2378 3379 2068 
Q 3634 1759 3634 1313 
Q 3634 634 3220 271 
Q 2806 -91 2034 -91 
Q 1263 -91 848 271 
Q 434 634 434 1313 
Q 434 1759 690 2068 
Q 947 2378 1403 2484 
z
M 1172 3481 
Q 1172 3119 1398 2916 
Q 1625 2713 2034 2713 
Q 2441 2713 2670 2916 
Q 2900 3119 2900 3481 
Q 2900 3844 2670 4047 
Q 2441 4250 2034 4250 
Q 1625 4250 1398 4047 
Q 1172 3844 1172 3481 
z
" id="DejaVuSans-38" transform="scale(0.015625)"/>
       </defs>
       <use xlink:href="#DejaVuSans-38"/>
       <use x="63.623047" xlink:href="#DejaVuSans-30"/>
      </g>
     </g>
    </g>
    <g id="xtick_9">
     <g id="line2d_17">
      <path clip-path="url(#p8fb82c79fd)" d="M 656.860001 413.300417 
L 656.860001 38.70825 
" style="fill:none;stroke:#b0b0b0;stroke-dasharray:2.96,1.28;stroke-dashoffset:0;stroke-width:0.8;"/>
     </g>
     <g id="line2d_18">
      <g>
       <use style="stroke:#000000;stroke-width:0.8;" x="656.860001" xlink:href="#m9df37e8c80" y="413.300417"/>
      </g>
     </g>
     <g id="text_9">
      <!-- 90 -->
      <g transform="translate(645.407501 433.977604)scale(0.18 -0.18)">
       <defs>
        <path d="M 703 97 
L 703 672 
Q 941 559 1184 500 
Q 1428 441 1663 441 
Q 2288 441 2617 861 
Q 2947 1281 2994 2138 
Q 2813 1869 2534 1725 
Q 2256 1581 1919 1581 
Q 1219 1581 811 2004 
Q 403 2428 403 3163 
Q 403 3881 828 4315 
Q 1253 4750 1959 4750 
Q 2769 4750 3195 4129 
Q 3622 3509 3622 2328 
Q 3622 1225 3098 567 
Q 2575 -91 1691 -91 
Q 1453 -91 1209 -44 
Q 966 3 703 97 
z
M 1959 2075 
Q 2384 2075 2632 2365 
Q 2881 2656 2881 3163 
Q 2881 3666 2632 3958 
Q 2384 4250 1959 4250 
Q 1534 4250 1286 3958 
Q 1038 3666 1038 3163 
Q 1038 2656 1286 2365 
Q 1534 2075 1959 2075 
z
" id="DejaVuSans-39" transform="scale(0.015625)"/>
       </defs>
       <use xlink:href="#DejaVuSans-39"/>
       <use x="63.623047" xlink:href="#DejaVuSans-30"/>
      </g>
     </g>
    </g>
    <g id="xtick_10">
     <g id="line2d_19">
      <path clip-path="url(#p8fb82c79fd)" d="M 717.428063 413.300417 
L 717.428063 38.70825 
" style="fill:none;stroke:#b0b0b0;stroke-dasharray:2.96,1.28;stroke-dashoffset:0;stroke-width:0.8;"/>
     </g>
     <g id="line2d_20">
      <g>
       <use style="stroke:#000000;stroke-width:0.8;" x="717.428063" xlink:href="#m9df37e8c80" y="413.300417"/>
      </g>
     </g>
     <g id="text_10">
      <!-- 100 -->
      <g transform="translate(700.249313 433.977604)scale(0.18 -0.18)">
       <use xlink:href="#DejaVuSans-31"/>
       <use x="63.623047" xlink:href="#DejaVuSans-30"/>
       <use x="127.246094" xlink:href="#DejaVuSans-30"/>
      </g>
     </g>
    </g>
    <g id="text_11">
     <!-- Budget -->
     <g transform="translate(412.499906 455.398229)scale(0.18 -0.18)">
      <defs>
       <path d="M 1259 2228 
L 1259 519 
L 2272 519 
Q 2781 519 3026 730 
Q 3272 941 3272 1375 
Q 3272 1813 3026 2020 
Q 2781 2228 2272 2228 
L 1259 2228 
z
M 1259 4147 
L 1259 2741 
L 2194 2741 
Q 2656 2741 2882 2914 
Q 3109 3088 3109 3444 
Q 3109 3797 2882 3972 
Q 2656 4147 2194 4147 
L 1259 4147 
z
M 628 4666 
L 2241 4666 
Q 2963 4666 3353 4366 
Q 3744 4066 3744 3513 
Q 3744 3084 3544 2831 
Q 3344 2578 2956 2516 
Q 3422 2416 3680 2098 
Q 3938 1781 3938 1306 
Q 3938 681 3513 340 
Q 3088 0 2303 0 
L 628 0 
L 628 4666 
z
" id="DejaVuSans-42" transform="scale(0.015625)"/>
       <path d="M 544 1381 
L 544 3500 
L 1119 3500 
L 1119 1403 
Q 1119 906 1312 657 
Q 1506 409 1894 409 
Q 2359 409 2629 706 
Q 2900 1003 2900 1516 
L 2900 3500 
L 3475 3500 
L 3475 0 
L 2900 0 
L 2900 538 
Q 2691 219 2414 64 
Q 2138 -91 1772 -91 
Q 1169 -91 856 284 
Q 544 659 544 1381 
z
M 1991 3584 
L 1991 3584 
z
" id="DejaVuSans-75" transform="scale(0.015625)"/>
       <path d="M 2906 2969 
L 2906 4863 
L 3481 4863 
L 3481 0 
L 2906 0 
L 2906 525 
Q 2725 213 2448 61 
Q 2172 -91 1784 -91 
Q 1150 -91 751 415 
Q 353 922 353 1747 
Q 353 2572 751 3078 
Q 1150 3584 1784 3584 
Q 2172 3584 2448 3432 
Q 2725 3281 2906 2969 
z
M 947 1747 
Q 947 1113 1208 752 
Q 1469 391 1925 391 
Q 2381 391 2643 752 
Q 2906 1113 2906 1747 
Q 2906 2381 2643 2742 
Q 2381 3103 1925 3103 
Q 1469 3103 1208 2742 
Q 947 2381 947 1747 
z
" id="DejaVuSans-64" transform="scale(0.015625)"/>
       <path d="M 2906 1791 
Q 2906 2416 2648 2759 
Q 2391 3103 1925 3103 
Q 1463 3103 1205 2759 
Q 947 2416 947 1791 
Q 947 1169 1205 825 
Q 1463 481 1925 481 
Q 2391 481 2648 825 
Q 2906 1169 2906 1791 
z
M 3481 434 
Q 3481 -459 3084 -895 
Q 2688 -1331 1869 -1331 
Q 1566 -1331 1297 -1286 
Q 1028 -1241 775 -1147 
L 775 -588 
Q 1028 -725 1275 -790 
Q 1522 -856 1778 -856 
Q 2344 -856 2625 -561 
Q 2906 -266 2906 331 
L 2906 616 
Q 2728 306 2450 153 
Q 2172 0 1784 0 
Q 1141 0 747 490 
Q 353 981 353 1791 
Q 353 2603 747 3093 
Q 1141 3584 1784 3584 
Q 2172 3584 2450 3431 
Q 2728 3278 2906 2969 
L 2906 3500 
L 3481 3500 
L 3481 434 
z
" id="DejaVuSans-67" transform="scale(0.015625)"/>
       <path d="M 3597 1894 
L 3597 1613 
L 953 1613 
Q 991 1019 1311 708 
Q 1631 397 2203 397 
Q 2534 397 2845 478 
Q 3156 559 3463 722 
L 3463 178 
Q 3153 47 2828 -22 
Q 2503 -91 2169 -91 
Q 1331 -91 842 396 
Q 353 884 353 1716 
Q 353 2575 817 3079 
Q 1281 3584 2069 3584 
Q 2775 3584 3186 3129 
Q 3597 2675 3597 1894 
z
M 3022 2063 
Q 3016 2534 2758 2815 
Q 2500 3097 2075 3097 
Q 1594 3097 1305 2825 
Q 1016 2553 972 2059 
L 3022 2063 
z
" id="DejaVuSans-65" transform="scale(0.015625)"/>
       <path d="M 1172 4494 
L 1172 3500 
L 2356 3500 
L 2356 3053 
L 1172 3053 
L 1172 1153 
Q 1172 725 1289 603 
Q 1406 481 1766 481 
L 2356 481 
L 2356 0 
L 1766 0 
Q 1100 0 847 248 
Q 594 497 594 1153 
L 594 3053 
L 172 3053 
L 172 3500 
L 594 3500 
L 594 4494 
L 1172 4494 
z
" id="DejaVuSans-74" transform="scale(0.015625)"/>
      </defs>
      <use xlink:href="#DejaVuSans-42"/>
      <use x="68.603516" xlink:href="#DejaVuSans-75"/>
      <use x="131.982422" xlink:href="#DejaVuSans-64"/>
      <use x="195.458984" xlink:href="#DejaVuSans-67"/>
      <use x="258.935547" xlink:href="#DejaVuSans-65"/>
      <use x="320.458984" xlink:href="#DejaVuSans-74"/>
     </g>
    </g>
   </g>
   <g id="matplotlib.axis_2">
    <g id="ytick_1">
     <g id="line2d_21">
      <path clip-path="url(#p8fb82c79fd)" d="M 135.066141 413.300417 
L 754.677422 413.300417 
" style="fill:none;stroke:#b0b0b0;stroke-dasharray:2.96,1.28;stroke-dashoffset:0;stroke-width:0.8;"/>
     </g>
     <g id="line2d_22">
      <defs>
       <path d="M 0 0 
L -3.5 0 
" id="medae87dad0" style="stroke:#000000;stroke-width:0.8;"/>
      </defs>
      <g>
       <use style="stroke:#000000;stroke-width:0.8;" x="135.066141" xlink:href="#medae87dad0" y="413.300417"/>
      </g>
     </g>
     <g id="text_12">
      <!-- 1.00 -->
      <g transform="translate(87.988016 420.13901)scale(0.18 -0.18)">
       <defs>
        <path d="M 684 794 
L 1344 794 
L 1344 0 
L 684 0 
L 684 794 
z
" id="DejaVuSans-2e" transform="scale(0.015625)"/>
       </defs>
       <use xlink:href="#DejaVuSans-31"/>
       <use x="63.623047" xlink:href="#DejaVuSans-2e"/>
       <use x="95.410156" xlink:href="#DejaVuSans-30"/>
       <use x="159.033203" xlink:href="#DejaVuSans-30"/>
      </g>
     </g>
    </g>
    <g id="ytick_2">
     <g id="line2d_23">
      <path clip-path="url(#p8fb82c79fd)" d="M 135.066141 349.408382 
L 754.677422 349.408382 
" style="fill:none;stroke:#b0b0b0;stroke-dasharray:2.96,1.28;stroke-dashoffset:0;stroke-width:0.8;"/>
     </g>
     <g id="line2d_24">
      <g>
       <use style="stroke:#000000;stroke-width:0.8;" x="135.066141" xlink:href="#medae87dad0" y="349.408382"/>
      </g>
     </g>
     <g id="text_13">
      <!-- 1.05 -->
      <g transform="translate(87.988016 356.246975)scale(0.18 -0.18)">
       <use xlink:href="#DejaVuSans-31"/>
       <use x="63.623047" xlink:href="#DejaVuSans-2e"/>
       <use x="95.410156" xlink:href="#DejaVuSans-30"/>
       <use x="159.033203" xlink:href="#DejaVuSans-35"/>
      </g>
     </g>
    </g>
    <g id="ytick_3">
     <g id="line2d_25">
      <path clip-path="url(#p8fb82c79fd)" d="M 135.066141 285.516347 
L 754.677422 285.516347 
" style="fill:none;stroke:#b0b0b0;stroke-dasharray:2.96,1.28;stroke-dashoffset:0;stroke-width:0.8;"/>
     </g>
     <g id="line2d_26">
      <g>
       <use style="stroke:#000000;stroke-width:0.8;" x="135.066141" xlink:href="#medae87dad0" y="285.516347"/>
      </g>
     </g>
     <g id="text_14">
      <!-- 1.10 -->
      <g transform="translate(87.988016 292.354941)scale(0.18 -0.18)">
       <use xlink:href="#DejaVuSans-31"/>
       <use x="63.623047" xlink:href="#DejaVuSans-2e"/>
       <use x="95.410156" xlink:href="#DejaVuSans-31"/>
       <use x="159.033203" xlink:href="#DejaVuSans-30"/>
      </g>
     </g>
    </g>
    <g id="ytick_4">
     <g id="line2d_27">
      <path clip-path="url(#p8fb82c79fd)" d="M 135.066141 221.624312 
L 754.677422 221.624312 
" style="fill:none;stroke:#b0b0b0;stroke-dasharray:2.96,1.28;stroke-dashoffset:0;stroke-width:0.8;"/>
     </g>
     <g id="line2d_28">
      <g>
       <use style="stroke:#000000;stroke-width:0.8;" x="135.066141" xlink:href="#medae87dad0" y="221.624312"/>
      </g>
     </g>
     <g id="text_15">
      <!-- 1.15 -->
      <g transform="translate(87.988016 228.462906)scale(0.18 -0.18)">
       <use xlink:href="#DejaVuSans-31"/>
       <use x="63.623047" xlink:href="#DejaVuSans-2e"/>
       <use x="95.410156" xlink:href="#DejaVuSans-31"/>
       <use x="159.033203" xlink:href="#DejaVuSans-35"/>
      </g>
     </g>
    </g>
    <g id="ytick_5">
     <g id="line2d_29">
      <path clip-path="url(#p8fb82c79fd)" d="M 135.066141 157.732277 
L 754.677422 157.732277 
" style="fill:none;stroke:#b0b0b0;stroke-dasharray:2.96,1.28;stroke-dashoffset:0;stroke-width:0.8;"/>
     </g>
     <g id="line2d_30">
      <g>
       <use style="stroke:#000000;stroke-width:0.8;" x="135.066141" xlink:href="#medae87dad0" y="157.732277"/>
      </g>
     </g>
     <g id="text_16">
      <!-- 1.20 -->
      <g transform="translate(87.988016 164.570871)scale(0.18 -0.18)">
       <use xlink:href="#DejaVuSans-31"/>
       <use x="63.623047" xlink:href="#DejaVuSans-2e"/>
       <use x="95.410156" xlink:href="#DejaVuSans-32"/>
       <use x="159.033203" xlink:href="#DejaVuSans-30"/>
      </g>
     </g>
    </g>
    <g id="ytick_6">
     <g id="line2d_31">
      <path clip-path="url(#p8fb82c79fd)" d="M 135.066141 93.840242 
L 754.677422 93.840242 
" style="fill:none;stroke:#b0b0b0;stroke-dasharray:2.96,1.28;stroke-dashoffset:0;stroke-width:0.8;"/>
     </g>
     <g id="line2d_32">
      <g>
       <use style="stroke:#000000;stroke-width:0.8;" x="135.066141" xlink:href="#medae87dad0" y="93.840242"/>
      </g>
     </g>
     <g id="text_17">
      <!-- 1.25 -->
      <g transform="translate(87.988016 100.678836)scale(0.18 -0.18)">
       <use xlink:href="#DejaVuSans-31"/>
       <use x="63.623047" xlink:href="#DejaVuSans-2e"/>
       <use x="95.410156" xlink:href="#DejaVuSans-32"/>
       <use x="159.033203" xlink:href="#DejaVuSans-35"/>
      </g>
     </g>
    </g>
    <g id="text_18">
     <!-- Approximate Ratio -->
     <g transform="translate(80.244578 309.448396)rotate(-90)scale(0.18 -0.18)">
      <defs>
       <path d="M 2188 4044 
L 1331 1722 
L 3047 1722 
L 2188 4044 
z
M 1831 4666 
L 2547 4666 
L 4325 0 
L 3669 0 
L 3244 1197 
L 1141 1197 
L 716 0 
L 50 0 
L 1831 4666 
z
" id="DejaVuSans-41" transform="scale(0.015625)"/>
       <path d="M 1159 525 
L 1159 -1331 
L 581 -1331 
L 581 3500 
L 1159 3500 
L 1159 2969 
Q 1341 3281 1617 3432 
Q 1894 3584 2278 3584 
Q 2916 3584 3314 3078 
Q 3713 2572 3713 1747 
Q 3713 922 3314 415 
Q 2916 -91 2278 -91 
Q 1894 -91 1617 61 
Q 1341 213 1159 525 
z
M 3116 1747 
Q 3116 2381 2855 2742 
Q 2594 3103 2138 3103 
Q 1681 3103 1420 2742 
Q 1159 2381 1159 1747 
Q 1159 1113 1420 752 
Q 1681 391 2138 391 
Q 2594 391 2855 752 
Q 3116 1113 3116 1747 
z
" id="DejaVuSans-70" transform="scale(0.015625)"/>
       <path d="M 2631 2963 
Q 2534 3019 2420 3045 
Q 2306 3072 2169 3072 
Q 1681 3072 1420 2755 
Q 1159 2438 1159 1844 
L 1159 0 
L 581 0 
L 581 3500 
L 1159 3500 
L 1159 2956 
Q 1341 3275 1631 3429 
Q 1922 3584 2338 3584 
Q 2397 3584 2469 3576 
Q 2541 3569 2628 3553 
L 2631 2963 
z
" id="DejaVuSans-72" transform="scale(0.015625)"/>
       <path d="M 1959 3097 
Q 1497 3097 1228 2736 
Q 959 2375 959 1747 
Q 959 1119 1226 758 
Q 1494 397 1959 397 
Q 2419 397 2687 759 
Q 2956 1122 2956 1747 
Q 2956 2369 2687 2733 
Q 2419 3097 1959 3097 
z
M 1959 3584 
Q 2709 3584 3137 3096 
Q 3566 2609 3566 1747 
Q 3566 888 3137 398 
Q 2709 -91 1959 -91 
Q 1206 -91 779 398 
Q 353 888 353 1747 
Q 353 2609 779 3096 
Q 1206 3584 1959 3584 
z
" id="DejaVuSans-6f" transform="scale(0.015625)"/>
       <path d="M 3513 3500 
L 2247 1797 
L 3578 0 
L 2900 0 
L 1881 1375 
L 863 0 
L 184 0 
L 1544 1831 
L 300 3500 
L 978 3500 
L 1906 2253 
L 2834 3500 
L 3513 3500 
z
" id="DejaVuSans-78" transform="scale(0.015625)"/>
       <path d="M 603 3500 
L 1178 3500 
L 1178 0 
L 603 0 
L 603 3500 
z
M 603 4863 
L 1178 4863 
L 1178 4134 
L 603 4134 
L 603 4863 
z
" id="DejaVuSans-69" transform="scale(0.015625)"/>
       <path d="M 3328 2828 
Q 3544 3216 3844 3400 
Q 4144 3584 4550 3584 
Q 5097 3584 5394 3201 
Q 5691 2819 5691 2113 
L 5691 0 
L 5113 0 
L 5113 2094 
Q 5113 2597 4934 2840 
Q 4756 3084 4391 3084 
Q 3944 3084 3684 2787 
Q 3425 2491 3425 1978 
L 3425 0 
L 2847 0 
L 2847 2094 
Q 2847 2600 2669 2842 
Q 2491 3084 2119 3084 
Q 1678 3084 1418 2786 
Q 1159 2488 1159 1978 
L 1159 0 
L 581 0 
L 581 3500 
L 1159 3500 
L 1159 2956 
Q 1356 3278 1631 3431 
Q 1906 3584 2284 3584 
Q 2666 3584 2933 3390 
Q 3200 3197 3328 2828 
z
" id="DejaVuSans-6d" transform="scale(0.015625)"/>
       <path d="M 2194 1759 
Q 1497 1759 1228 1600 
Q 959 1441 959 1056 
Q 959 750 1161 570 
Q 1363 391 1709 391 
Q 2188 391 2477 730 
Q 2766 1069 2766 1631 
L 2766 1759 
L 2194 1759 
z
M 3341 1997 
L 3341 0 
L 2766 0 
L 2766 531 
Q 2569 213 2275 61 
Q 1981 -91 1556 -91 
Q 1019 -91 701 211 
Q 384 513 384 1019 
Q 384 1609 779 1909 
Q 1175 2209 1959 2209 
L 2766 2209 
L 2766 2266 
Q 2766 2663 2505 2880 
Q 2244 3097 1772 3097 
Q 1472 3097 1187 3025 
Q 903 2953 641 2809 
L 641 3341 
Q 956 3463 1253 3523 
Q 1550 3584 1831 3584 
Q 2591 3584 2966 3190 
Q 3341 2797 3341 1997 
z
" id="DejaVuSans-61" transform="scale(0.015625)"/>
       <path id="DejaVuSans-20" transform="scale(0.015625)"/>
       <path d="M 2841 2188 
Q 3044 2119 3236 1894 
Q 3428 1669 3622 1275 
L 4263 0 
L 3584 0 
L 2988 1197 
Q 2756 1666 2539 1819 
Q 2322 1972 1947 1972 
L 1259 1972 
L 1259 0 
L 628 0 
L 628 4666 
L 2053 4666 
Q 2853 4666 3247 4331 
Q 3641 3997 3641 3322 
Q 3641 2881 3436 2590 
Q 3231 2300 2841 2188 
z
M 1259 4147 
L 1259 2491 
L 2053 2491 
Q 2509 2491 2742 2702 
Q 2975 2913 2975 3322 
Q 2975 3731 2742 3939 
Q 2509 4147 2053 4147 
L 1259 4147 
z
" id="DejaVuSans-52" transform="scale(0.015625)"/>
      </defs>
      <use xlink:href="#DejaVuSans-41"/>
      <use x="68.408203" xlink:href="#DejaVuSans-70"/>
      <use x="131.884766" xlink:href="#DejaVuSans-70"/>
      <use x="195.361328" xlink:href="#DejaVuSans-72"/>
      <use x="234.224609" xlink:href="#DejaVuSans-6f"/>
      <use x="292.28125" xlink:href="#DejaVuSans-78"/>
      <use x="351.460938" xlink:href="#DejaVuSans-69"/>
      <use x="379.244141" xlink:href="#DejaVuSans-6d"/>
      <use x="476.65625" xlink:href="#DejaVuSans-61"/>
      <use x="537.935547" xlink:href="#DejaVuSans-74"/>
      <use x="577.144531" xlink:href="#DejaVuSans-65"/>
      <use x="638.667969" xlink:href="#DejaVuSans-20"/>
      <use x="670.455078" xlink:href="#DejaVuSans-52"/>
      <use x="737.6875" xlink:href="#DejaVuSans-61"/>
      <use x="798.966797" xlink:href="#DejaVuSans-74"/>
      <use x="838.175781" xlink:href="#DejaVuSans-69"/>
      <use x="865.958984" xlink:href="#DejaVuSans-6f"/>
     </g>
    </g>
   </g>
   <g id="patch_33">
    <path d="M 135.066141 413.300417 
L 135.066141 38.70825 
" style="fill:none;stroke:#000000;stroke-linecap:square;stroke-linejoin:miter;stroke-width:0.8;"/>
   </g>
   <g id="patch_34">
    <path d="M 754.677422 413.300417 
L 754.677422 38.70825 
" style="fill:none;stroke:#000000;stroke-linecap:square;stroke-linejoin:miter;stroke-width:0.8;"/>
   </g>
   <g id="patch_35">
    <path d="M 135.066141 413.300417 
L 754.677422 413.300417 
" style="fill:none;stroke:#000000;stroke-linecap:square;stroke-linejoin:miter;stroke-width:0.8;"/>
   </g>
   <g id="patch_36">
    <path d="M 135.066141 38.70825 
L 754.677422 38.70825 
" style="fill:none;stroke:#000000;stroke-linecap:square;stroke-linejoin:miter;stroke-width:0.8;"/>
   </g>
   <g id="legend_1">
    <g id="patch_37">
     <path d="M 407.586797 133.872 
L 742.077422 133.872 
Q 745.677422 133.872 745.677422 130.272 
L 745.677422 51.30825 
Q 745.677422 47.70825 742.077422 47.70825 
L 407.586797 47.70825 
Q 403.986797 47.70825 403.986797 51.30825 
L 403.986797 130.272 
Q 403.986797 133.872 407.586797 133.872 
z
" style="fill:#ffffff;opacity:0.8;stroke:#cccccc;stroke-linejoin:miter;"/>
    </g>
    <g id="patch_38">
     <path d="M 411.186797 68.585438 
L 447.186797 68.585438 
L 447.186797 55.985438 
L 411.186797 55.985438 
z
" style="fill:#ff1f5b;"/>
    </g>
    <g id="text_19">
     <!-- min_max_greedy -->
     <g transform="translate(461.586797 68.585438)scale(0.18 -0.18)">
      <defs>
       <path d="M 3513 2113 
L 3513 0 
L 2938 0 
L 2938 2094 
Q 2938 2591 2744 2837 
Q 2550 3084 2163 3084 
Q 1697 3084 1428 2787 
Q 1159 2491 1159 1978 
L 1159 0 
L 581 0 
L 581 3500 
L 1159 3500 
L 1159 2956 
Q 1366 3272 1645 3428 
Q 1925 3584 2291 3584 
Q 2894 3584 3203 3211 
Q 3513 2838 3513 2113 
z
" id="DejaVuSans-6e" transform="scale(0.015625)"/>
       <path d="M 3263 -1063 
L 3263 -1509 
L -63 -1509 
L -63 -1063 
L 3263 -1063 
z
" id="DejaVuSans-5f" transform="scale(0.015625)"/>
       <path d="M 2059 -325 
Q 1816 -950 1584 -1140 
Q 1353 -1331 966 -1331 
L 506 -1331 
L 506 -850 
L 844 -850 
Q 1081 -850 1212 -737 
Q 1344 -625 1503 -206 
L 1606 56 
L 191 3500 
L 800 3500 
L 1894 763 
L 2988 3500 
L 3597 3500 
L 2059 -325 
z
" id="DejaVuSans-79" transform="scale(0.015625)"/>
      </defs>
      <use xlink:href="#DejaVuSans-6d"/>
      <use x="97.412109" xlink:href="#DejaVuSans-69"/>
      <use x="125.195312" xlink:href="#DejaVuSans-6e"/>
      <use x="188.574219" xlink:href="#DejaVuSans-5f"/>
      <use x="238.574219" xlink:href="#DejaVuSans-6d"/>
      <use x="335.986328" xlink:href="#DejaVuSans-61"/>
      <use x="397.265625" xlink:href="#DejaVuSans-78"/>
      <use x="456.445312" xlink:href="#DejaVuSans-5f"/>
      <use x="506.445312" xlink:href="#DejaVuSans-67"/>
      <use x="569.921875" xlink:href="#DejaVuSans-72"/>
      <use x="608.785156" xlink:href="#DejaVuSans-65"/>
      <use x="670.308594" xlink:href="#DejaVuSans-65"/>
      <use x="731.832031" xlink:href="#DejaVuSans-64"/>
      <use x="795.308594" xlink:href="#DejaVuSans-79"/>
     </g>
    </g>
    <g id="patch_39">
     <path d="M 411.186797 95.506687 
L 447.186797 95.506687 
L 447.186797 82.906688 
L 411.186797 82.906688 
z
" style="fill:#009ade;"/>
    </g>
    <g id="text_20">
     <!-- min_max_equal_weight -->
     <g transform="translate(461.586797 95.506687)scale(0.18 -0.18)">
      <defs>
       <path d="M 947 1747 
Q 947 1113 1208 752 
Q 1469 391 1925 391 
Q 2381 391 2643 752 
Q 2906 1113 2906 1747 
Q 2906 2381 2643 2742 
Q 2381 3103 1925 3103 
Q 1469 3103 1208 2742 
Q 947 2381 947 1747 
z
M 2906 525 
Q 2725 213 2448 61 
Q 2172 -91 1784 -91 
Q 1150 -91 751 415 
Q 353 922 353 1747 
Q 353 2572 751 3078 
Q 1150 3584 1784 3584 
Q 2172 3584 2448 3432 
Q 2725 3281 2906 2969 
L 2906 3500 
L 3481 3500 
L 3481 -1331 
L 2906 -1331 
L 2906 525 
z
" id="DejaVuSans-71" transform="scale(0.015625)"/>
       <path d="M 603 4863 
L 1178 4863 
L 1178 0 
L 603 0 
L 603 4863 
z
" id="DejaVuSans-6c" transform="scale(0.015625)"/>
       <path d="M 269 3500 
L 844 3500 
L 1563 769 
L 2278 3500 
L 2956 3500 
L 3675 769 
L 4391 3500 
L 4966 3500 
L 4050 0 
L 3372 0 
L 2619 2869 
L 1863 0 
L 1184 0 
L 269 3500 
z
" id="DejaVuSans-77" transform="scale(0.015625)"/>
       <path d="M 3513 2113 
L 3513 0 
L 2938 0 
L 2938 2094 
Q 2938 2591 2744 2837 
Q 2550 3084 2163 3084 
Q 1697 3084 1428 2787 
Q 1159 2491 1159 1978 
L 1159 0 
L 581 0 
L 581 4863 
L 1159 4863 
L 1159 2956 
Q 1366 3272 1645 3428 
Q 1925 3584 2291 3584 
Q 2894 3584 3203 3211 
Q 3513 2838 3513 2113 
z
" id="DejaVuSans-68" transform="scale(0.015625)"/>
      </defs>
      <use xlink:href="#DejaVuSans-6d"/>
      <use x="97.412109" xlink:href="#DejaVuSans-69"/>
      <use x="125.195312" xlink:href="#DejaVuSans-6e"/>
      <use x="188.574219" xlink:href="#DejaVuSans-5f"/>
      <use x="238.574219" xlink:href="#DejaVuSans-6d"/>
      <use x="335.986328" xlink:href="#DejaVuSans-61"/>
      <use x="397.265625" xlink:href="#DejaVuSans-78"/>
      <use x="456.445312" xlink:href="#DejaVuSans-5f"/>
      <use x="506.445312" xlink:href="#DejaVuSans-65"/>
      <use x="567.96875" xlink:href="#DejaVuSans-71"/>
      <use x="631.445312" xlink:href="#DejaVuSans-75"/>
      <use x="694.824219" xlink:href="#DejaVuSans-61"/>
      <use x="756.103516" xlink:href="#DejaVuSans-6c"/>
      <use x="783.886719" xlink:href="#DejaVuSans-5f"/>
      <use x="833.886719" xlink:href="#DejaVuSans-77"/>
      <use x="915.673828" xlink:href="#DejaVuSans-65"/>
      <use x="977.197266" xlink:href="#DejaVuSans-69"/>
      <use x="1004.980469" xlink:href="#DejaVuSans-67"/>
      <use x="1068.457031" xlink:href="#DejaVuSans-68"/>
      <use x="1131.835938" xlink:href="#DejaVuSans-74"/>
     </g>
    </g>
    <g id="patch_40">
     <path d="M 411.186797 122.427938 
L 447.186797 122.427938 
L 447.186797 109.827938 
L 411.186797 109.827938 
z
" style="fill:#f28522;"/>
    </g>
    <g id="text_21">
     <!-- min_max_surrogate_relaxation -->
     <g transform="translate(461.586797 122.427938)scale(0.18 -0.18)">
      <defs>
       <path d="M 2834 3397 
L 2834 2853 
Q 2591 2978 2328 3040 
Q 2066 3103 1784 3103 
Q 1356 3103 1142 2972 
Q 928 2841 928 2578 
Q 928 2378 1081 2264 
Q 1234 2150 1697 2047 
L 1894 2003 
Q 2506 1872 2764 1633 
Q 3022 1394 3022 966 
Q 3022 478 2636 193 
Q 2250 -91 1575 -91 
Q 1294 -91 989 -36 
Q 684 19 347 128 
L 347 722 
Q 666 556 975 473 
Q 1284 391 1588 391 
Q 1994 391 2212 530 
Q 2431 669 2431 922 
Q 2431 1156 2273 1281 
Q 2116 1406 1581 1522 
L 1381 1569 
Q 847 1681 609 1914 
Q 372 2147 372 2553 
Q 372 3047 722 3315 
Q 1072 3584 1716 3584 
Q 2034 3584 2315 3537 
Q 2597 3491 2834 3397 
z
" id="DejaVuSans-73" transform="scale(0.015625)"/>
      </defs>
      <use xlink:href="#DejaVuSans-6d"/>
      <use x="97.412109" xlink:href="#DejaVuSans-69"/>
      <use x="125.195312" xlink:href="#DejaVuSans-6e"/>
      <use x="188.574219" xlink:href="#DejaVuSans-5f"/>
      <use x="238.574219" xlink:href="#DejaVuSans-6d"/>
      <use x="335.986328" xlink:href="#DejaVuSans-61"/>
      <use x="397.265625" xlink:href="#DejaVuSans-78"/>
      <use x="456.445312" xlink:href="#DejaVuSans-5f"/>
      <use x="506.445312" xlink:href="#DejaVuSans-73"/>
      <use x="558.544922" xlink:href="#DejaVuSans-75"/>
      <use x="621.923828" xlink:href="#DejaVuSans-72"/>
      <use x="661.287109" xlink:href="#DejaVuSans-72"/>
      <use x="700.150391" xlink:href="#DejaVuSans-6f"/>
      <use x="761.332031" xlink:href="#DejaVuSans-67"/>
      <use x="824.808594" xlink:href="#DejaVuSans-61"/>
      <use x="886.087891" xlink:href="#DejaVuSans-74"/>
      <use x="925.296875" xlink:href="#DejaVuSans-65"/>
      <use x="986.820312" xlink:href="#DejaVuSans-5f"/>
      <use x="1036.820312" xlink:href="#DejaVuSans-72"/>
      <use x="1075.683594" xlink:href="#DejaVuSans-65"/>
      <use x="1137.207031" xlink:href="#DejaVuSans-6c"/>
      <use x="1164.990234" xlink:href="#DejaVuSans-61"/>
      <use x="1226.269531" xlink:href="#DejaVuSans-78"/>
      <use x="1285.449219" xlink:href="#DejaVuSans-61"/>
      <use x="1346.728516" xlink:href="#DejaVuSans-74"/>
      <use x="1385.9375" xlink:href="#DejaVuSans-69"/>
      <use x="1413.720703" xlink:href="#DejaVuSans-6f"/>
      <use x="1474.902344" xlink:href="#DejaVuSans-6e"/>
     </g>
    </g>
   </g>
  </g>
 </g>
 <defs>
  <clipPath id="p8fb82c79fd">
   <rect height="374.592167" width="619.611281" x="135.066141" y="38.70825"/>
  </clipPath>
 </defs>
</svg>
