<?xml version="1.0" encoding="utf-8" standalone="no"?>
<!DOCTYPE svg PUBLIC "-//W3C//DTD SVG 1.1//EN"
  "http://www.w3.org/Graphics/SVG/1.1/DTD/svg11.dtd">
<svg height="498.24pt" version="1.1" viewBox="0 0 824.4 498.24" width="824.4pt" xmlns="http://www.w3.org/2000/svg" xmlns:xlink="http://www.w3.org/1999/xlink">
 <metadata>
  <rdf:RDF xmlns:cc="http://creativecommons.org/ns#" xmlns:dc="http://purl.org/dc/elements/1.1/" xmlns:rdf="http://www.w3.org/1999/02/22-rdf-syntax-ns#">
   <cc:Work>
    <dc:type rdf:resource="http://purl.org/dc/dcmitype/StillImage"/>
    <dc:date>2022-07-22T13:45:11.666036</dc:date>
    <dc:format>image/svg+xml</dc:format>
    <dc:creator>
     <cc:Agent>
      <dc:title>Matplotlib v3.4.3, https://matplotlib.org/</dc:title>
     </cc:Agent>
    </dc:creator>
   </cc:Work>
  </rdf:RDF>
 </metadata>
 <defs>
  <style type="text/css">*{stroke-linecap:butt;stroke-linejoin:round;}</style>
 </defs>
 <g id="figure_1">
  <g id="patch_1">
   <path d="M 0 498.24 
L 824.4 498.24 
L 824.4 0 
L 0 0 
z
" style="fill:#ffffff;"/>
  </g>
  <g id="axes_1">
   <g id="patch_2">
    <path d="M 136.738047 404.531667 
L 764.019141 404.531667 
L 764.019141 37.887 
L 136.738047 37.887 
z
" style="fill:#ffffff;"/>
   </g>
   <g id="patch_3">
    <path clip-path="url(#p5e9dd14fc5)" d="M 165.250824 616.018695 
L 171.253514 616.018695 
L 171.253514 396.228949 
L 165.250824 396.228949 
z
" style="fill:#ff1f5b;"/>
   </g>
   <g id="patch_4">
    <path clip-path="url(#p5e9dd14fc5)" d="M 225.277723 616.018695 
L 231.280413 616.018695 
L 231.280413 397.243366 
L 225.277723 397.243366 
z
" style="fill:#ff1f5b;"/>
   </g>
   <g id="patch_5">
    <path clip-path="url(#p5e9dd14fc5)" d="M 285.304622 616.018695 
L 291.307312 616.018695 
L 291.307312 397.156591 
L 285.304622 397.156591 
z
" style="fill:#ff1f5b;"/>
   </g>
   <g id="patch_6">
    <path clip-path="url(#p5e9dd14fc5)" d="M 345.331521 616.018695 
L 351.334211 616.018695 
L 351.334211 380.03078 
L 345.331521 380.03078 
z
" style="fill:#ff1f5b;"/>
   </g>
   <g id="patch_7">
    <path clip-path="url(#p5e9dd14fc5)" d="M 405.35842 616.018695 
L 411.361109 616.018695 
L 411.361109 378.725598 
L 405.35842 378.725598 
z
" style="fill:#ff1f5b;"/>
   </g>
   <g id="patch_8">
    <path clip-path="url(#p5e9dd14fc5)" d="M 465.385318 616.018695 
L 471.388008 616.018695 
L 471.388008 382.409229 
L 465.385318 382.409229 
z
" style="fill:#ff1f5b;"/>
   </g>
   <g id="patch_9">
    <path clip-path="url(#p5e9dd14fc5)" d="M 525.412217 616.018695 
L 531.414907 616.018695 
L 531.414907 377.917895 
L 525.412217 377.917895 
z
" style="fill:#ff1f5b;"/>
   </g>
   <g id="patch_10">
    <path clip-path="url(#p5e9dd14fc5)" d="M 585.439116 616.018695 
L 591.441806 616.018695 
L 591.441806 385.394847 
L 585.439116 385.394847 
z
" style="fill:#ff1f5b;"/>
   </g>
   <g id="patch_11">
    <path clip-path="url(#p5e9dd14fc5)" d="M 645.466015 616.018695 
L 651.468705 616.018695 
L 651.468705 380.219914 
L 645.466015 380.219914 
z
" style="fill:#ff1f5b;"/>
   </g>
   <g id="patch_12">
    <path clip-path="url(#p5e9dd14fc5)" d="M 705.492914 616.018695 
L 711.495604 616.018695 
L 711.495604 383.247719 
L 705.492914 383.247719 
z
" style="fill:#ff1f5b;"/>
   </g>
   <g id="patch_13">
    <path clip-path="url(#p5e9dd14fc5)" d="M 171.253514 616.018695 
L 177.256204 616.018695 
L 177.256204 357.851103 
L 171.253514 357.851103 
z
" style="fill:#009ade;"/>
   </g>
   <g id="patch_14">
    <path clip-path="url(#p5e9dd14fc5)" d="M 231.280413 616.018695 
L 237.283103 616.018695 
L 237.283103 345.157848 
L 231.280413 345.157848 
z
" style="fill:#009ade;"/>
   </g>
   <g id="patch_15">
    <path clip-path="url(#p5e9dd14fc5)" d="M 291.307312 616.018695 
L 297.310001 616.018695 
L 297.310001 325.915672 
L 291.307312 325.915672 
z
" style="fill:#009ade;"/>
   </g>
   <g id="patch_16">
    <path clip-path="url(#p5e9dd14fc5)" d="M 351.334211 616.018695 
L 357.3369 616.018695 
L 357.3369 306.945419 
L 351.334211 306.945419 
z
" style="fill:#009ade;"/>
   </g>
   <g id="patch_17">
    <path clip-path="url(#p5e9dd14fc5)" d="M 411.361109 616.018695 
L 417.363799 616.018695 
L 417.363799 283.147323 
L 411.361109 283.147323 
z
" style="fill:#009ade;"/>
   </g>
   <g id="patch_18">
    <path clip-path="url(#p5e9dd14fc5)" d="M 471.388008 616.018695 
L 477.390698 616.018695 
L 477.390698 274.294826 
L 471.388008 274.294826 
z
" style="fill:#009ade;"/>
   </g>
   <g id="patch_19">
    <path clip-path="url(#p5e9dd14fc5)" d="M 531.414907 616.018695 
L 537.417597 616.018695 
L 537.417597 264.802158 
L 531.414907 264.802158 
z
" style="fill:#009ade;"/>
   </g>
   <g id="patch_20">
    <path clip-path="url(#p5e9dd14fc5)" d="M 591.441806 616.018695 
L 597.444496 616.018695 
L 597.444496 263.999751 
L 591.441806 263.999751 
z
" style="fill:#009ade;"/>
   </g>
   <g id="patch_21">
    <path clip-path="url(#p5e9dd14fc5)" d="M 651.468705 616.018695 
L 657.471395 616.018695 
L 657.471395 278.603967 
L 651.468705 278.603967 
z
" style="fill:#009ade;"/>
   </g>
   <g id="patch_22">
    <path clip-path="url(#p5e9dd14fc5)" d="M 711.495604 616.018695 
L 717.498294 616.018695 
L 717.498294 285.542449 
L 711.495604 285.542449 
z
" style="fill:#009ade;"/>
   </g>
   <g id="patch_23">
    <path clip-path="url(#p5e9dd14fc5)" d="M 177.256204 616.018695 
L 183.258894 616.018695 
L 183.258894 339.674693 
L 177.256204 339.674693 
z
" style="fill:#f28522;"/>
   </g>
   <g id="patch_24">
    <path clip-path="url(#p5e9dd14fc5)" d="M 237.283103 616.018695 
L 243.285792 616.018695 
L 243.285792 292.518852 
L 237.283103 292.518852 
z
" style="fill:#f28522;"/>
   </g>
   <g id="patch_25">
    <path clip-path="url(#p5e9dd14fc5)" d="M 297.310001 616.018695 
L 303.312691 616.018695 
L 303.312691 286.146118 
L 297.310001 286.146118 
z
" style="fill:#f28522;"/>
   </g>
   <g id="patch_26">
    <path clip-path="url(#p5e9dd14fc5)" d="M 357.3369 616.018695 
L 363.33959 616.018695 
L 363.33959 250.391695 
L 357.3369 250.391695 
z
" style="fill:#f28522;"/>
   </g>
   <g id="patch_27">
    <path clip-path="url(#p5e9dd14fc5)" d="M 417.363799 616.018695 
L 423.366489 616.018695 
L 423.366489 219.276478 
L 417.363799 219.276478 
z
" style="fill:#f28522;"/>
   </g>
   <g id="patch_28">
    <path clip-path="url(#p5e9dd14fc5)" d="M 477.390698 616.018695 
L 483.393388 616.018695 
L 483.393388 207.383618 
L 477.390698 207.383618 
z
" style="fill:#f28522;"/>
   </g>
   <g id="patch_29">
    <path clip-path="url(#p5e9dd14fc5)" d="M 537.417597 616.018695 
L 543.420287 616.018695 
L 543.420287 193.318883 
L 537.417597 193.318883 
z
" style="fill:#f28522;"/>
   </g>
   <g id="patch_30">
    <path clip-path="url(#p5e9dd14fc5)" d="M 597.444496 616.018695 
L 603.447186 616.018695 
L 603.447186 174.373045 
L 597.444496 174.373045 
z
" style="fill:#f28522;"/>
   </g>
   <g id="patch_31">
    <path clip-path="url(#p5e9dd14fc5)" d="M 657.471395 616.018695 
L 663.474085 616.018695 
L 663.474085 155.938612 
L 657.471395 155.938612 
z
" style="fill:#f28522;"/>
   </g>
   <g id="patch_32">
    <path clip-path="url(#p5e9dd14fc5)" d="M 717.498294 616.018695 
L 723.500984 616.018695 
L 723.500984 157.157675 
L 717.498294 157.157675 
z
" style="fill:#f28522;"/>
   </g>
   <g id="patch_33">
    <path clip-path="url(#p5e9dd14fc5)" d="M 183.258894 616.018695 
L 189.261583 616.018695 
L 189.261583 332.968155 
L 183.258894 332.968155 
z
" style="fill:#58b272;"/>
   </g>
   <g id="patch_34">
    <path clip-path="url(#p5e9dd14fc5)" d="M 243.285792 616.018695 
L 249.288482 616.018695 
L 249.288482 260.728651 
L 243.285792 260.728651 
z
" style="fill:#58b272;"/>
   </g>
   <g id="patch_35">
    <path clip-path="url(#p5e9dd14fc5)" d="M 303.312691 616.018695 
L 309.315381 616.018695 
L 309.315381 262.207818 
L 303.312691 262.207818 
z
" style="fill:#58b272;"/>
   </g>
   <g id="patch_36">
    <path clip-path="url(#p5e9dd14fc5)" d="M 363.33959 616.018695 
L 369.34228 616.018695 
L 369.34228 215.708734 
L 363.33959 215.708734 
z
" style="fill:#58b272;"/>
   </g>
   <g id="patch_37">
    <path clip-path="url(#p5e9dd14fc5)" d="M 423.366489 616.018695 
L 429.369179 616.018695 
L 429.369179 165.260876 
L 423.366489 165.260876 
z
" style="fill:#58b272;"/>
   </g>
   <g id="patch_38">
    <path clip-path="url(#p5e9dd14fc5)" d="M 483.393388 616.018695 
L 489.396078 616.018695 
L 489.396078 157.991065 
L 483.393388 157.991065 
z
" style="fill:#58b272;"/>
   </g>
   <g id="patch_39">
    <path clip-path="url(#p5e9dd14fc5)" d="M 543.420287 616.018695 
L 549.422977 616.018695 
L 549.422977 142.763011 
L 543.420287 142.763011 
z
" style="fill:#58b272;"/>
   </g>
   <g id="patch_40">
    <path clip-path="url(#p5e9dd14fc5)" d="M 603.447186 616.018695 
L 609.449876 616.018695 
L 609.449876 121.993477 
L 603.447186 121.993477 
z
" style="fill:#58b272;"/>
   </g>
   <g id="patch_41">
    <path clip-path="url(#p5e9dd14fc5)" d="M 663.474085 616.018695 
L 669.476775 616.018695 
L 669.476775 106.514997 
L 663.474085 106.514997 
z
" style="fill:#58b272;"/>
   </g>
   <g id="patch_42">
    <path clip-path="url(#p5e9dd14fc5)" d="M 723.500984 616.018695 
L 729.503674 616.018695 
L 729.503674 77.481801 
L 723.500984 77.481801 
z
" style="fill:#58b272;"/>
   </g>
   <g id="patch_43">
    <path clip-path="url(#p5e9dd14fc5)" d="M 189.261583 616.018695 
L 195.264273 616.018695 
L 195.264273 320.194046 
L 189.261583 320.194046 
z
" style="fill:#af58ba;"/>
   </g>
   <g id="patch_44">
    <path clip-path="url(#p5e9dd14fc5)" d="M 249.288482 616.018695 
L 255.291172 616.018695 
L 255.291172 249.393158 
L 249.288482 249.393158 
z
" style="fill:#af58ba;"/>
   </g>
   <g id="patch_45">
    <path clip-path="url(#p5e9dd14fc5)" d="M 309.315381 616.018695 
L 315.318071 616.018695 
L 315.318071 229.633524 
L 309.315381 229.633524 
z
" style="fill:#af58ba;"/>
   </g>
   <g id="patch_46">
    <path clip-path="url(#p5e9dd14fc5)" d="M 369.34228 616.018695 
L 375.34497 616.018695 
L 375.34497 191.811165 
L 369.34228 191.811165 
z
" style="fill:#af58ba;"/>
   </g>
   <g id="patch_47">
    <path clip-path="url(#p5e9dd14fc5)" d="M 429.369179 616.018695 
L 435.371869 616.018695 
L 435.371869 130.903736 
L 429.369179 130.903736 
z
" style="fill:#af58ba;"/>
   </g>
   <g id="patch_48">
    <path clip-path="url(#p5e9dd14fc5)" d="M 489.396078 616.018695 
L 495.398768 616.018695 
L 495.398768 106.254967 
L 489.396078 106.254967 
z
" style="fill:#af58ba;"/>
   </g>
   <g id="patch_49">
    <path clip-path="url(#p5e9dd14fc5)" d="M 549.422977 616.018695 
L 555.425667 616.018695 
L 555.425667 104.129318 
L 549.422977 104.129318 
z
" style="fill:#af58ba;"/>
   </g>
   <g id="patch_50">
    <path clip-path="url(#p5e9dd14fc5)" d="M 609.449876 616.018695 
L 615.452566 616.018695 
L 615.452566 82.561714 
L 609.449876 82.561714 
z
" style="fill:#af58ba;"/>
   </g>
   <g id="patch_51">
    <path clip-path="url(#p5e9dd14fc5)" d="M 669.476775 616.018695 
L 675.479465 616.018695 
L 675.479465 66.522706 
L 669.476775 66.522706 
z
" style="fill:#af58ba;"/>
   </g>
   <g id="patch_52">
    <path clip-path="url(#p5e9dd14fc5)" d="M 729.503674 616.018695 
L 735.506364 616.018695 
L 735.506364 40.00187 
L 729.503674 40.00187 
z
" style="fill:#af58ba;"/>
   </g>
   <g id="matplotlib.axis_1">
    <g id="xtick_1">
     <g id="line2d_1">
      <path clip-path="url(#p5e9dd14fc5)" d="M 180.257549 404.531667 
L 180.257549 37.887 
" style="fill:none;stroke:#b0b0b0;stroke-dasharray:2.96,1.28;stroke-dashoffset:0;stroke-width:0.8;"/>
     </g>
     <g id="line2d_2">
      <defs>
       <path d="M 0 0 
L 0 3.5 
" id="mb78d269e2b" style="stroke:#000000;stroke-width:0.8;"/>
      </defs>
      <g>
       <use style="stroke:#000000;stroke-width:0.8;" x="180.257549" xlink:href="#mb78d269e2b" y="404.531667"/>
      </g>
     </g>
     <g id="text_1">
      <!-- 10 -->
      <g transform="translate(168.805049 425.208854)scale(0.18 -0.18)">
       <defs>
        <path d="M 794 531 
L 1825 531 
L 1825 4091 
L 703 3866 
L 703 4441 
L 1819 4666 
L 2450 4666 
L 2450 531 
L 3481 531 
L 3481 0 
L 794 0 
L 794 531 
z
" id="DejaVuSans-31" transform="scale(0.015625)"/>
        <path d="M 2034 4250 
Q 1547 4250 1301 3770 
Q 1056 3291 1056 2328 
Q 1056 1369 1301 889 
Q 1547 409 2034 409 
Q 2525 409 2770 889 
Q 3016 1369 3016 2328 
Q 3016 3291 2770 3770 
Q 2525 4250 2034 4250 
z
M 2034 4750 
Q 2819 4750 3233 4129 
Q 3647 3509 3647 2328 
Q 3647 1150 3233 529 
Q 2819 -91 2034 -91 
Q 1250 -91 836 529 
Q 422 1150 422 2328 
Q 422 3509 836 4129 
Q 1250 4750 2034 4750 
z
" id="DejaVuSans-30" transform="scale(0.015625)"/>
       </defs>
       <use xlink:href="#DejaVuSans-31"/>
       <use x="63.623047" xlink:href="#DejaVuSans-30"/>
      </g>
     </g>
    </g>
    <g id="xtick_2">
     <g id="line2d_3">
      <path clip-path="url(#p5e9dd14fc5)" d="M 240.284448 404.531667 
L 240.284448 37.887 
" style="fill:none;stroke:#b0b0b0;stroke-dasharray:2.96,1.28;stroke-dashoffset:0;stroke-width:0.8;"/>
     </g>
     <g id="line2d_4">
      <g>
       <use style="stroke:#000000;stroke-width:0.8;" x="240.284448" xlink:href="#mb78d269e2b" y="404.531667"/>
      </g>
     </g>
     <g id="text_2">
      <!-- 20 -->
      <g transform="translate(228.831948 425.208854)scale(0.18 -0.18)">
       <defs>
        <path d="M 1228 531 
L 3431 531 
L 3431 0 
L 469 0 
L 469 531 
Q 828 903 1448 1529 
Q 2069 2156 2228 2338 
Q 2531 2678 2651 2914 
Q 2772 3150 2772 3378 
Q 2772 3750 2511 3984 
Q 2250 4219 1831 4219 
Q 1534 4219 1204 4116 
Q 875 4013 500 3803 
L 500 4441 
Q 881 4594 1212 4672 
Q 1544 4750 1819 4750 
Q 2544 4750 2975 4387 
Q 3406 4025 3406 3419 
Q 3406 3131 3298 2873 
Q 3191 2616 2906 2266 
Q 2828 2175 2409 1742 
Q 1991 1309 1228 531 
z
" id="DejaVuSans-32" transform="scale(0.015625)"/>
       </defs>
       <use xlink:href="#DejaVuSans-32"/>
       <use x="63.623047" xlink:href="#DejaVuSans-30"/>
      </g>
     </g>
    </g>
    <g id="xtick_3">
     <g id="line2d_5">
      <path clip-path="url(#p5e9dd14fc5)" d="M 300.311346 404.531667 
L 300.311346 37.887 
" style="fill:none;stroke:#b0b0b0;stroke-dasharray:2.96,1.28;stroke-dashoffset:0;stroke-width:0.8;"/>
     </g>
     <g id="line2d_6">
      <g>
       <use style="stroke:#000000;stroke-width:0.8;" x="300.311346" xlink:href="#mb78d269e2b" y="404.531667"/>
      </g>
     </g>
     <g id="text_3">
      <!-- 30 -->
      <g transform="translate(288.858846 425.208854)scale(0.18 -0.18)">
       <defs>
        <path d="M 2597 2516 
Q 3050 2419 3304 2112 
Q 3559 1806 3559 1356 
Q 3559 666 3084 287 
Q 2609 -91 1734 -91 
Q 1441 -91 1130 -33 
Q 819 25 488 141 
L 488 750 
Q 750 597 1062 519 
Q 1375 441 1716 441 
Q 2309 441 2620 675 
Q 2931 909 2931 1356 
Q 2931 1769 2642 2001 
Q 2353 2234 1838 2234 
L 1294 2234 
L 1294 2753 
L 1863 2753 
Q 2328 2753 2575 2939 
Q 2822 3125 2822 3475 
Q 2822 3834 2567 4026 
Q 2313 4219 1838 4219 
Q 1578 4219 1281 4162 
Q 984 4106 628 3988 
L 628 4550 
Q 988 4650 1302 4700 
Q 1616 4750 1894 4750 
Q 2613 4750 3031 4423 
Q 3450 4097 3450 3541 
Q 3450 3153 3228 2886 
Q 3006 2619 2597 2516 
z
" id="DejaVuSans-33" transform="scale(0.015625)"/>
       </defs>
       <use xlink:href="#DejaVuSans-33"/>
       <use x="63.623047" xlink:href="#DejaVuSans-30"/>
      </g>
     </g>
    </g>
    <g id="xtick_4">
     <g id="line2d_7">
      <path clip-path="url(#p5e9dd14fc5)" d="M 360.338245 404.531667 
L 360.338245 37.887 
" style="fill:none;stroke:#b0b0b0;stroke-dasharray:2.96,1.28;stroke-dashoffset:0;stroke-width:0.8;"/>
     </g>
     <g id="line2d_8">
      <g>
       <use style="stroke:#000000;stroke-width:0.8;" x="360.338245" xlink:href="#mb78d269e2b" y="404.531667"/>
      </g>
     </g>
     <g id="text_4">
      <!-- 40 -->
      <g transform="translate(348.885745 425.208854)scale(0.18 -0.18)">
       <defs>
        <path d="M 2419 4116 
L 825 1625 
L 2419 1625 
L 2419 4116 
z
M 2253 4666 
L 3047 4666 
L 3047 1625 
L 3713 1625 
L 3713 1100 
L 3047 1100 
L 3047 0 
L 2419 0 
L 2419 1100 
L 313 1100 
L 313 1709 
L 2253 4666 
z
" id="DejaVuSans-34" transform="scale(0.015625)"/>
       </defs>
       <use xlink:href="#DejaVuSans-34"/>
       <use x="63.623047" xlink:href="#DejaVuSans-30"/>
      </g>
     </g>
    </g>
    <g id="xtick_5">
     <g id="line2d_9">
      <path clip-path="url(#p5e9dd14fc5)" d="M 420.365144 404.531667 
L 420.365144 37.887 
" style="fill:none;stroke:#b0b0b0;stroke-dasharray:2.96,1.28;stroke-dashoffset:0;stroke-width:0.8;"/>
     </g>
     <g id="line2d_10">
      <g>
       <use style="stroke:#000000;stroke-width:0.8;" x="420.365144" xlink:href="#mb78d269e2b" y="404.531667"/>
      </g>
     </g>
     <g id="text_5">
      <!-- 50 -->
      <g transform="translate(408.912644 425.208854)scale(0.18 -0.18)">
       <defs>
        <path d="M 691 4666 
L 3169 4666 
L 3169 4134 
L 1269 4134 
L 1269 2991 
Q 1406 3038 1543 3061 
Q 1681 3084 1819 3084 
Q 2600 3084 3056 2656 
Q 3513 2228 3513 1497 
Q 3513 744 3044 326 
Q 2575 -91 1722 -91 
Q 1428 -91 1123 -41 
Q 819 9 494 109 
L 494 744 
Q 775 591 1075 516 
Q 1375 441 1709 441 
Q 2250 441 2565 725 
Q 2881 1009 2881 1497 
Q 2881 1984 2565 2268 
Q 2250 2553 1709 2553 
Q 1456 2553 1204 2497 
Q 953 2441 691 2322 
L 691 4666 
z
" id="DejaVuSans-35" transform="scale(0.015625)"/>
       </defs>
       <use xlink:href="#DejaVuSans-35"/>
       <use x="63.623047" xlink:href="#DejaVuSans-30"/>
      </g>
     </g>
    </g>
    <g id="xtick_6">
     <g id="line2d_11">
      <path clip-path="url(#p5e9dd14fc5)" d="M 480.392043 404.531667 
L 480.392043 37.887 
" style="fill:none;stroke:#b0b0b0;stroke-dasharray:2.96,1.28;stroke-dashoffset:0;stroke-width:0.8;"/>
     </g>
     <g id="line2d_12">
      <g>
       <use style="stroke:#000000;stroke-width:0.8;" x="480.392043" xlink:href="#mb78d269e2b" y="404.531667"/>
      </g>
     </g>
     <g id="text_6">
      <!-- 60 -->
      <g transform="translate(468.939543 425.208854)scale(0.18 -0.18)">
       <defs>
        <path d="M 2113 2584 
Q 1688 2584 1439 2293 
Q 1191 2003 1191 1497 
Q 1191 994 1439 701 
Q 1688 409 2113 409 
Q 2538 409 2786 701 
Q 3034 994 3034 1497 
Q 3034 2003 2786 2293 
Q 2538 2584 2113 2584 
z
M 3366 4563 
L 3366 3988 
Q 3128 4100 2886 4159 
Q 2644 4219 2406 4219 
Q 1781 4219 1451 3797 
Q 1122 3375 1075 2522 
Q 1259 2794 1537 2939 
Q 1816 3084 2150 3084 
Q 2853 3084 3261 2657 
Q 3669 2231 3669 1497 
Q 3669 778 3244 343 
Q 2819 -91 2113 -91 
Q 1303 -91 875 529 
Q 447 1150 447 2328 
Q 447 3434 972 4092 
Q 1497 4750 2381 4750 
Q 2619 4750 2861 4703 
Q 3103 4656 3366 4563 
z
" id="DejaVuSans-36" transform="scale(0.015625)"/>
       </defs>
       <use xlink:href="#DejaVuSans-36"/>
       <use x="63.623047" xlink:href="#DejaVuSans-30"/>
      </g>
     </g>
    </g>
    <g id="xtick_7">
     <g id="line2d_13">
      <path clip-path="url(#p5e9dd14fc5)" d="M 540.418942 404.531667 
L 540.418942 37.887 
" style="fill:none;stroke:#b0b0b0;stroke-dasharray:2.96,1.28;stroke-dashoffset:0;stroke-width:0.8;"/>
     </g>
     <g id="line2d_14">
      <g>
       <use style="stroke:#000000;stroke-width:0.8;" x="540.418942" xlink:href="#mb78d269e2b" y="404.531667"/>
      </g>
     </g>
     <g id="text_7">
      <!-- 70 -->
      <g transform="translate(528.966442 425.208854)scale(0.18 -0.18)">
       <defs>
        <path d="M 525 4666 
L 3525 4666 
L 3525 4397 
L 1831 0 
L 1172 0 
L 2766 4134 
L 525 4134 
L 525 4666 
z
" id="DejaVuSans-37" transform="scale(0.015625)"/>
       </defs>
       <use xlink:href="#DejaVuSans-37"/>
       <use x="63.623047" xlink:href="#DejaVuSans-30"/>
      </g>
     </g>
    </g>
    <g id="xtick_8">
     <g id="line2d_15">
      <path clip-path="url(#p5e9dd14fc5)" d="M 600.445841 404.531667 
L 600.445841 37.887 
" style="fill:none;stroke:#b0b0b0;stroke-dasharray:2.96,1.28;stroke-dashoffset:0;stroke-width:0.8;"/>
     </g>
     <g id="line2d_16">
      <g>
       <use style="stroke:#000000;stroke-width:0.8;" x="600.445841" xlink:href="#mb78d269e2b" y="404.531667"/>
      </g>
     </g>
     <g id="text_8">
      <!-- 80 -->
      <g transform="translate(588.993341 425.208854)scale(0.18 -0.18)">
       <defs>
        <path d="M 2034 2216 
Q 1584 2216 1326 1975 
Q 1069 1734 1069 1313 
Q 1069 891 1326 650 
Q 1584 409 2034 409 
Q 2484 409 2743 651 
Q 3003 894 3003 1313 
Q 3003 1734 2745 1975 
Q 2488 2216 2034 2216 
z
M 1403 2484 
Q 997 2584 770 2862 
Q 544 3141 544 3541 
Q 544 4100 942 4425 
Q 1341 4750 2034 4750 
Q 2731 4750 3128 4425 
Q 3525 4100 3525 3541 
Q 3525 3141 3298 2862 
Q 3072 2584 2669 2484 
Q 3125 2378 3379 2068 
Q 3634 1759 3634 1313 
Q 3634 634 3220 271 
Q 2806 -91 2034 -91 
Q 1263 -91 848 271 
Q 434 634 434 1313 
Q 434 1759 690 2068 
Q 947 2378 1403 2484 
z
M 1172 3481 
Q 1172 3119 1398 2916 
Q 1625 2713 2034 2713 
Q 2441 2713 2670 2916 
Q 2900 3119 2900 3481 
Q 2900 3844 2670 4047 
Q 2441 4250 2034 4250 
Q 1625 4250 1398 4047 
Q 1172 3844 1172 3481 
z
" id="DejaVuSans-38" transform="scale(0.015625)"/>
       </defs>
       <use xlink:href="#DejaVuSans-38"/>
       <use x="63.623047" xlink:href="#DejaVuSans-30"/>
      </g>
     </g>
    </g>
    <g id="xtick_9">
     <g id="line2d_17">
      <path clip-path="url(#p5e9dd14fc5)" d="M 660.47274 404.531667 
L 660.47274 37.887 
" style="fill:none;stroke:#b0b0b0;stroke-dasharray:2.96,1.28;stroke-dashoffset:0;stroke-width:0.8;"/>
     </g>
     <g id="line2d_18">
      <g>
       <use style="stroke:#000000;stroke-width:0.8;" x="660.47274" xlink:href="#mb78d269e2b" y="404.531667"/>
      </g>
     </g>
     <g id="text_9">
      <!-- 90 -->
      <g transform="translate(649.02024 425.208854)scale(0.18 -0.18)">
       <defs>
        <path d="M 703 97 
L 703 672 
Q 941 559 1184 500 
Q 1428 441 1663 441 
Q 2288 441 2617 861 
Q 2947 1281 2994 2138 
Q 2813 1869 2534 1725 
Q 2256 1581 1919 1581 
Q 1219 1581 811 2004 
Q 403 2428 403 3163 
Q 403 3881 828 4315 
Q 1253 4750 1959 4750 
Q 2769 4750 3195 4129 
Q 3622 3509 3622 2328 
Q 3622 1225 3098 567 
Q 2575 -91 1691 -91 
Q 1453 -91 1209 -44 
Q 966 3 703 97 
z
M 1959 2075 
Q 2384 2075 2632 2365 
Q 2881 2656 2881 3163 
Q 2881 3666 2632 3958 
Q 2384 4250 1959 4250 
Q 1534 4250 1286 3958 
Q 1038 3666 1038 3163 
Q 1038 2656 1286 2365 
Q 1534 2075 1959 2075 
z
" id="DejaVuSans-39" transform="scale(0.015625)"/>
       </defs>
       <use xlink:href="#DejaVuSans-39"/>
       <use x="63.623047" xlink:href="#DejaVuSans-30"/>
      </g>
     </g>
    </g>
    <g id="xtick_10">
     <g id="line2d_19">
      <path clip-path="url(#p5e9dd14fc5)" d="M 720.499639 404.531667 
L 720.499639 37.887 
" style="fill:none;stroke:#b0b0b0;stroke-dasharray:2.96,1.28;stroke-dashoffset:0;stroke-width:0.8;"/>
     </g>
     <g id="line2d_20">
      <g>
       <use style="stroke:#000000;stroke-width:0.8;" x="720.499639" xlink:href="#mb78d269e2b" y="404.531667"/>
      </g>
     </g>
     <g id="text_10">
      <!-- 100 -->
      <g transform="translate(703.320889 425.208854)scale(0.18 -0.18)">
       <use xlink:href="#DejaVuSans-31"/>
       <use x="63.623047" xlink:href="#DejaVuSans-30"/>
       <use x="127.246094" xlink:href="#DejaVuSans-30"/>
      </g>
     </g>
    </g>
    <g id="text_11">
     <!-- Budget -->
     <g transform="translate(418.006719 446.629479)scale(0.18 -0.18)">
      <defs>
       <path d="M 1259 2228 
L 1259 519 
L 2272 519 
Q 2781 519 3026 730 
Q 3272 941 3272 1375 
Q 3272 1813 3026 2020 
Q 2781 2228 2272 2228 
L 1259 2228 
z
M 1259 4147 
L 1259 2741 
L 2194 2741 
Q 2656 2741 2882 2914 
Q 3109 3088 3109 3444 
Q 3109 3797 2882 3972 
Q 2656 4147 2194 4147 
L 1259 4147 
z
M 628 4666 
L 2241 4666 
Q 2963 4666 3353 4366 
Q 3744 4066 3744 3513 
Q 3744 3084 3544 2831 
Q 3344 2578 2956 2516 
Q 3422 2416 3680 2098 
Q 3938 1781 3938 1306 
Q 3938 681 3513 340 
Q 3088 0 2303 0 
L 628 0 
L 628 4666 
z
" id="DejaVuSans-42" transform="scale(0.015625)"/>
       <path d="M 544 1381 
L 544 3500 
L 1119 3500 
L 1119 1403 
Q 1119 906 1312 657 
Q 1506 409 1894 409 
Q 2359 409 2629 706 
Q 2900 1003 2900 1516 
L 2900 3500 
L 3475 3500 
L 3475 0 
L 2900 0 
L 2900 538 
Q 2691 219 2414 64 
Q 2138 -91 1772 -91 
Q 1169 -91 856 284 
Q 544 659 544 1381 
z
M 1991 3584 
L 1991 3584 
z
" id="DejaVuSans-75" transform="scale(0.015625)"/>
       <path d="M 2906 2969 
L 2906 4863 
L 3481 4863 
L 3481 0 
L 2906 0 
L 2906 525 
Q 2725 213 2448 61 
Q 2172 -91 1784 -91 
Q 1150 -91 751 415 
Q 353 922 353 1747 
Q 353 2572 751 3078 
Q 1150 3584 1784 3584 
Q 2172 3584 2448 3432 
Q 2725 3281 2906 2969 
z
M 947 1747 
Q 947 1113 1208 752 
Q 1469 391 1925 391 
Q 2381 391 2643 752 
Q 2906 1113 2906 1747 
Q 2906 2381 2643 2742 
Q 2381 3103 1925 3103 
Q 1469 3103 1208 2742 
Q 947 2381 947 1747 
z
" id="DejaVuSans-64" transform="scale(0.015625)"/>
       <path d="M 2906 1791 
Q 2906 2416 2648 2759 
Q 2391 3103 1925 3103 
Q 1463 3103 1205 2759 
Q 947 2416 947 1791 
Q 947 1169 1205 825 
Q 1463 481 1925 481 
Q 2391 481 2648 825 
Q 2906 1169 2906 1791 
z
M 3481 434 
Q 3481 -459 3084 -895 
Q 2688 -1331 1869 -1331 
Q 1566 -1331 1297 -1286 
Q 1028 -1241 775 -1147 
L 775 -588 
Q 1028 -725 1275 -790 
Q 1522 -856 1778 -856 
Q 2344 -856 2625 -561 
Q 2906 -266 2906 331 
L 2906 616 
Q 2728 306 2450 153 
Q 2172 0 1784 0 
Q 1141 0 747 490 
Q 353 981 353 1791 
Q 353 2603 747 3093 
Q 1141 3584 1784 3584 
Q 2172 3584 2450 3431 
Q 2728 3278 2906 2969 
L 2906 3500 
L 3481 3500 
L 3481 434 
z
" id="DejaVuSans-67" transform="scale(0.015625)"/>
       <path d="M 3597 1894 
L 3597 1613 
L 953 1613 
Q 991 1019 1311 708 
Q 1631 397 2203 397 
Q 2534 397 2845 478 
Q 3156 559 3463 722 
L 3463 178 
Q 3153 47 2828 -22 
Q 2503 -91 2169 -91 
Q 1331 -91 842 396 
Q 353 884 353 1716 
Q 353 2575 817 3079 
Q 1281 3584 2069 3584 
Q 2775 3584 3186 3129 
Q 3597 2675 3597 1894 
z
M 3022 2063 
Q 3016 2534 2758 2815 
Q 2500 3097 2075 3097 
Q 1594 3097 1305 2825 
Q 1016 2553 972 2059 
L 3022 2063 
z
" id="DejaVuSans-65" transform="scale(0.015625)"/>
       <path d="M 1172 4494 
L 1172 3500 
L 2356 3500 
L 2356 3053 
L 1172 3053 
L 1172 1153 
Q 1172 725 1289 603 
Q 1406 481 1766 481 
L 2356 481 
L 2356 0 
L 1766 0 
Q 1100 0 847 248 
Q 594 497 594 1153 
L 594 3053 
L 172 3053 
L 172 3500 
L 594 3500 
L 594 4494 
L 1172 4494 
z
" id="DejaVuSans-74" transform="scale(0.015625)"/>
      </defs>
      <use xlink:href="#DejaVuSans-42"/>
      <use x="68.603516" xlink:href="#DejaVuSans-75"/>
      <use x="131.982422" xlink:href="#DejaVuSans-64"/>
      <use x="195.458984" xlink:href="#DejaVuSans-67"/>
      <use x="258.935547" xlink:href="#DejaVuSans-65"/>
      <use x="320.458984" xlink:href="#DejaVuSans-74"/>
     </g>
    </g>
   </g>
   <g id="matplotlib.axis_2">
    <g id="ytick_1">
     <g id="line2d_21">
      <path clip-path="url(#p5e9dd14fc5)" d="M 136.738047 404.531667 
L 764.019141 404.531667 
" style="fill:none;stroke:#b0b0b0;stroke-dasharray:2.96,1.28;stroke-dashoffset:0;stroke-width:0.8;"/>
     </g>
     <g id="line2d_22">
      <defs>
       <path d="M 0 0 
L -3.5 0 
" id="m1ddeefd7d5" style="stroke:#000000;stroke-width:0.8;"/>
      </defs>
      <g>
       <use style="stroke:#000000;stroke-width:0.8;" x="136.738047" xlink:href="#m1ddeefd7d5" y="404.531667"/>
      </g>
     </g>
     <g id="text_12">
      <!-- 1.0 -->
      <g transform="translate(101.112422 411.37026)scale(0.18 -0.18)">
       <defs>
        <path d="M 684 794 
L 1344 794 
L 1344 0 
L 684 0 
L 684 794 
z
" id="DejaVuSans-2e" transform="scale(0.015625)"/>
       </defs>
       <use xlink:href="#DejaVuSans-31"/>
       <use x="63.623047" xlink:href="#DejaVuSans-2e"/>
       <use x="95.410156" xlink:href="#DejaVuSans-30"/>
      </g>
     </g>
    </g>
    <g id="ytick_2">
     <g id="line2d_23">
      <path clip-path="url(#p5e9dd14fc5)" d="M 136.738047 362.234261 
L 764.019141 362.234261 
" style="fill:none;stroke:#b0b0b0;stroke-dasharray:2.96,1.28;stroke-dashoffset:0;stroke-width:0.8;"/>
     </g>
     <g id="line2d_24">
      <g>
       <use style="stroke:#000000;stroke-width:0.8;" x="136.738047" xlink:href="#m1ddeefd7d5" y="362.234261"/>
      </g>
     </g>
     <g id="text_13">
      <!-- 1.2 -->
      <g transform="translate(101.112422 369.072855)scale(0.18 -0.18)">
       <use xlink:href="#DejaVuSans-31"/>
       <use x="63.623047" xlink:href="#DejaVuSans-2e"/>
       <use x="95.410156" xlink:href="#DejaVuSans-32"/>
      </g>
     </g>
    </g>
    <g id="ytick_3">
     <g id="line2d_25">
      <path clip-path="url(#p5e9dd14fc5)" d="M 136.738047 319.936855 
L 764.019141 319.936855 
" style="fill:none;stroke:#b0b0b0;stroke-dasharray:2.96,1.28;stroke-dashoffset:0;stroke-width:0.8;"/>
     </g>
     <g id="line2d_26">
      <g>
       <use style="stroke:#000000;stroke-width:0.8;" x="136.738047" xlink:href="#m1ddeefd7d5" y="319.936855"/>
      </g>
     </g>
     <g id="text_14">
      <!-- 1.4 -->
      <g transform="translate(101.112422 326.775449)scale(0.18 -0.18)">
       <use xlink:href="#DejaVuSans-31"/>
       <use x="63.623047" xlink:href="#DejaVuSans-2e"/>
       <use x="95.410156" xlink:href="#DejaVuSans-34"/>
      </g>
     </g>
    </g>
    <g id="ytick_4">
     <g id="line2d_27">
      <path clip-path="url(#p5e9dd14fc5)" d="M 136.738047 277.63945 
L 764.019141 277.63945 
" style="fill:none;stroke:#b0b0b0;stroke-dasharray:2.96,1.28;stroke-dashoffset:0;stroke-width:0.8;"/>
     </g>
     <g id="line2d_28">
      <g>
       <use style="stroke:#000000;stroke-width:0.8;" x="136.738047" xlink:href="#m1ddeefd7d5" y="277.63945"/>
      </g>
     </g>
     <g id="text_15">
      <!-- 1.6 -->
      <g transform="translate(101.112422 284.478043)scale(0.18 -0.18)">
       <use xlink:href="#DejaVuSans-31"/>
       <use x="63.623047" xlink:href="#DejaVuSans-2e"/>
       <use x="95.410156" xlink:href="#DejaVuSans-36"/>
      </g>
     </g>
    </g>
    <g id="ytick_5">
     <g id="line2d_29">
      <path clip-path="url(#p5e9dd14fc5)" d="M 136.738047 235.342044 
L 764.019141 235.342044 
" style="fill:none;stroke:#b0b0b0;stroke-dasharray:2.96,1.28;stroke-dashoffset:0;stroke-width:0.8;"/>
     </g>
     <g id="line2d_30">
      <g>
       <use style="stroke:#000000;stroke-width:0.8;" x="136.738047" xlink:href="#m1ddeefd7d5" y="235.342044"/>
      </g>
     </g>
     <g id="text_16">
      <!-- 1.8 -->
      <g transform="translate(101.112422 242.180638)scale(0.18 -0.18)">
       <use xlink:href="#DejaVuSans-31"/>
       <use x="63.623047" xlink:href="#DejaVuSans-2e"/>
       <use x="95.410156" xlink:href="#DejaVuSans-38"/>
      </g>
     </g>
    </g>
    <g id="ytick_6">
     <g id="line2d_31">
      <path clip-path="url(#p5e9dd14fc5)" d="M 136.738047 193.044638 
L 764.019141 193.044638 
" style="fill:none;stroke:#b0b0b0;stroke-dasharray:2.96,1.28;stroke-dashoffset:0;stroke-width:0.8;"/>
     </g>
     <g id="line2d_32">
      <g>
       <use style="stroke:#000000;stroke-width:0.8;" x="136.738047" xlink:href="#m1ddeefd7d5" y="193.044638"/>
      </g>
     </g>
     <g id="text_17">
      <!-- 2.0 -->
      <g transform="translate(101.112422 199.883232)scale(0.18 -0.18)">
       <use xlink:href="#DejaVuSans-32"/>
       <use x="63.623047" xlink:href="#DejaVuSans-2e"/>
       <use x="95.410156" xlink:href="#DejaVuSans-30"/>
      </g>
     </g>
    </g>
    <g id="ytick_7">
     <g id="line2d_33">
      <path clip-path="url(#p5e9dd14fc5)" d="M 136.738047 150.747233 
L 764.019141 150.747233 
" style="fill:none;stroke:#b0b0b0;stroke-dasharray:2.96,1.28;stroke-dashoffset:0;stroke-width:0.8;"/>
     </g>
     <g id="line2d_34">
      <g>
       <use style="stroke:#000000;stroke-width:0.8;" x="136.738047" xlink:href="#m1ddeefd7d5" y="150.747233"/>
      </g>
     </g>
     <g id="text_18">
      <!-- 2.2 -->
      <g transform="translate(101.112422 157.585827)scale(0.18 -0.18)">
       <use xlink:href="#DejaVuSans-32"/>
       <use x="63.623047" xlink:href="#DejaVuSans-2e"/>
       <use x="95.410156" xlink:href="#DejaVuSans-32"/>
      </g>
     </g>
    </g>
    <g id="ytick_8">
     <g id="line2d_35">
      <path clip-path="url(#p5e9dd14fc5)" d="M 136.738047 108.449827 
L 764.019141 108.449827 
" style="fill:none;stroke:#b0b0b0;stroke-dasharray:2.96,1.28;stroke-dashoffset:0;stroke-width:0.8;"/>
     </g>
     <g id="line2d_36">
      <g>
       <use style="stroke:#000000;stroke-width:0.8;" x="136.738047" xlink:href="#m1ddeefd7d5" y="108.449827"/>
      </g>
     </g>
     <g id="text_19">
      <!-- 2.4 -->
      <g transform="translate(101.112422 115.288421)scale(0.18 -0.18)">
       <use xlink:href="#DejaVuSans-32"/>
       <use x="63.623047" xlink:href="#DejaVuSans-2e"/>
       <use x="95.410156" xlink:href="#DejaVuSans-34"/>
      </g>
     </g>
    </g>
    <g id="ytick_9">
     <g id="line2d_37">
      <path clip-path="url(#p5e9dd14fc5)" d="M 136.738047 66.152422 
L 764.019141 66.152422 
" style="fill:none;stroke:#b0b0b0;stroke-dasharray:2.96,1.28;stroke-dashoffset:0;stroke-width:0.8;"/>
     </g>
     <g id="line2d_38">
      <g>
       <use style="stroke:#000000;stroke-width:0.8;" x="136.738047" xlink:href="#m1ddeefd7d5" y="66.152422"/>
      </g>
     </g>
     <g id="text_20">
      <!-- 2.6 -->
      <g transform="translate(101.112422 72.991015)scale(0.18 -0.18)">
       <use xlink:href="#DejaVuSans-32"/>
       <use x="63.623047" xlink:href="#DejaVuSans-2e"/>
       <use x="95.410156" xlink:href="#DejaVuSans-36"/>
      </g>
     </g>
    </g>
    <g id="text_21">
     <!-- Approximate Ratio -->
     <g transform="translate(93.368984 304.653396)rotate(-90)scale(0.18 -0.18)">
      <defs>
       <path d="M 2188 4044 
L 1331 1722 
L 3047 1722 
L 2188 4044 
z
M 1831 4666 
L 2547 4666 
L 4325 0 
L 3669 0 
L 3244 1197 
L 1141 1197 
L 716 0 
L 50 0 
L 1831 4666 
z
" id="DejaVuSans-41" transform="scale(0.015625)"/>
       <path d="M 1159 525 
L 1159 -1331 
L 581 -1331 
L 581 3500 
L 1159 3500 
L 1159 2969 
Q 1341 3281 1617 3432 
Q 1894 3584 2278 3584 
Q 2916 3584 3314 3078 
Q 3713 2572 3713 1747 
Q 3713 922 3314 415 
Q 2916 -91 2278 -91 
Q 1894 -91 1617 61 
Q 1341 213 1159 525 
z
M 3116 1747 
Q 3116 2381 2855 2742 
Q 2594 3103 2138 3103 
Q 1681 3103 1420 2742 
Q 1159 2381 1159 1747 
Q 1159 1113 1420 752 
Q 1681 391 2138 391 
Q 2594 391 2855 752 
Q 3116 1113 3116 1747 
z
" id="DejaVuSans-70" transform="scale(0.015625)"/>
       <path d="M 2631 2963 
Q 2534 3019 2420 3045 
Q 2306 3072 2169 3072 
Q 1681 3072 1420 2755 
Q 1159 2438 1159 1844 
L 1159 0 
L 581 0 
L 581 3500 
L 1159 3500 
L 1159 2956 
Q 1341 3275 1631 3429 
Q 1922 3584 2338 3584 
Q 2397 3584 2469 3576 
Q 2541 3569 2628 3553 
L 2631 2963 
z
" id="DejaVuSans-72" transform="scale(0.015625)"/>
       <path d="M 1959 3097 
Q 1497 3097 1228 2736 
Q 959 2375 959 1747 
Q 959 1119 1226 758 
Q 1494 397 1959 397 
Q 2419 397 2687 759 
Q 2956 1122 2956 1747 
Q 2956 2369 2687 2733 
Q 2419 3097 1959 3097 
z
M 1959 3584 
Q 2709 3584 3137 3096 
Q 3566 2609 3566 1747 
Q 3566 888 3137 398 
Q 2709 -91 1959 -91 
Q 1206 -91 779 398 
Q 353 888 353 1747 
Q 353 2609 779 3096 
Q 1206 3584 1959 3584 
z
" id="DejaVuSans-6f" transform="scale(0.015625)"/>
       <path d="M 3513 3500 
L 2247 1797 
L 3578 0 
L 2900 0 
L 1881 1375 
L 863 0 
L 184 0 
L 1544 1831 
L 300 3500 
L 978 3500 
L 1906 2253 
L 2834 3500 
L 3513 3500 
z
" id="DejaVuSans-78" transform="scale(0.015625)"/>
       <path d="M 603 3500 
L 1178 3500 
L 1178 0 
L 603 0 
L 603 3500 
z
M 603 4863 
L 1178 4863 
L 1178 4134 
L 603 4134 
L 603 4863 
z
" id="DejaVuSans-69" transform="scale(0.015625)"/>
       <path d="M 3328 2828 
Q 3544 3216 3844 3400 
Q 4144 3584 4550 3584 
Q 5097 3584 5394 3201 
Q 5691 2819 5691 2113 
L 5691 0 
L 5113 0 
L 5113 2094 
Q 5113 2597 4934 2840 
Q 4756 3084 4391 3084 
Q 3944 3084 3684 2787 
Q 3425 2491 3425 1978 
L 3425 0 
L 2847 0 
L 2847 2094 
Q 2847 2600 2669 2842 
Q 2491 3084 2119 3084 
Q 1678 3084 1418 2786 
Q 1159 2488 1159 1978 
L 1159 0 
L 581 0 
L 581 3500 
L 1159 3500 
L 1159 2956 
Q 1356 3278 1631 3431 
Q 1906 3584 2284 3584 
Q 2666 3584 2933 3390 
Q 3200 3197 3328 2828 
z
" id="DejaVuSans-6d" transform="scale(0.015625)"/>
       <path d="M 2194 1759 
Q 1497 1759 1228 1600 
Q 959 1441 959 1056 
Q 959 750 1161 570 
Q 1363 391 1709 391 
Q 2188 391 2477 730 
Q 2766 1069 2766 1631 
L 2766 1759 
L 2194 1759 
z
M 3341 1997 
L 3341 0 
L 2766 0 
L 2766 531 
Q 2569 213 2275 61 
Q 1981 -91 1556 -91 
Q 1019 -91 701 211 
Q 384 513 384 1019 
Q 384 1609 779 1909 
Q 1175 2209 1959 2209 
L 2766 2209 
L 2766 2266 
Q 2766 2663 2505 2880 
Q 2244 3097 1772 3097 
Q 1472 3097 1187 3025 
Q 903 2953 641 2809 
L 641 3341 
Q 956 3463 1253 3523 
Q 1550 3584 1831 3584 
Q 2591 3584 2966 3190 
Q 3341 2797 3341 1997 
z
" id="DejaVuSans-61" transform="scale(0.015625)"/>
       <path id="DejaVuSans-20" transform="scale(0.015625)"/>
       <path d="M 2841 2188 
Q 3044 2119 3236 1894 
Q 3428 1669 3622 1275 
L 4263 0 
L 3584 0 
L 2988 1197 
Q 2756 1666 2539 1819 
Q 2322 1972 1947 1972 
L 1259 1972 
L 1259 0 
L 628 0 
L 628 4666 
L 2053 4666 
Q 2853 4666 3247 4331 
Q 3641 3997 3641 3322 
Q 3641 2881 3436 2590 
Q 3231 2300 2841 2188 
z
M 1259 4147 
L 1259 2491 
L 2053 2491 
Q 2509 2491 2742 2702 
Q 2975 2913 2975 3322 
Q 2975 3731 2742 3939 
Q 2509 4147 2053 4147 
L 1259 4147 
z
" id="DejaVuSans-52" transform="scale(0.015625)"/>
      </defs>
      <use xlink:href="#DejaVuSans-41"/>
      <use x="68.408203" xlink:href="#DejaVuSans-70"/>
      <use x="131.884766" xlink:href="#DejaVuSans-70"/>
      <use x="195.361328" xlink:href="#DejaVuSans-72"/>
      <use x="234.224609" xlink:href="#DejaVuSans-6f"/>
      <use x="292.28125" xlink:href="#DejaVuSans-78"/>
      <use x="351.460938" xlink:href="#DejaVuSans-69"/>
      <use x="379.244141" xlink:href="#DejaVuSans-6d"/>
      <use x="476.65625" xlink:href="#DejaVuSans-61"/>
      <use x="537.935547" xlink:href="#DejaVuSans-74"/>
      <use x="577.144531" xlink:href="#DejaVuSans-65"/>
      <use x="638.667969" xlink:href="#DejaVuSans-20"/>
      <use x="670.455078" xlink:href="#DejaVuSans-52"/>
      <use x="737.6875" xlink:href="#DejaVuSans-61"/>
      <use x="798.966797" xlink:href="#DejaVuSans-74"/>
      <use x="838.175781" xlink:href="#DejaVuSans-69"/>
      <use x="865.958984" xlink:href="#DejaVuSans-6f"/>
     </g>
    </g>
   </g>
   <g id="patch_53">
    <path d="M 136.738047 404.531667 
L 136.738047 37.887 
" style="fill:none;stroke:#000000;stroke-linecap:square;stroke-linejoin:miter;stroke-width:0.8;"/>
   </g>
   <g id="patch_54">
    <path d="M 764.019141 404.531667 
L 764.019141 37.887 
" style="fill:none;stroke:#000000;stroke-linecap:square;stroke-linejoin:miter;stroke-width:0.8;"/>
   </g>
   <g id="patch_55">
    <path d="M 136.738047 404.531667 
L 764.019141 404.531667 
" style="fill:none;stroke:#000000;stroke-linecap:square;stroke-linejoin:miter;stroke-width:0.8;"/>
   </g>
   <g id="patch_56">
    <path d="M 136.738047 37.887 
L 764.019141 37.887 
" style="fill:none;stroke:#000000;stroke-linecap:square;stroke-linejoin:miter;stroke-width:0.8;"/>
   </g>
   <g id="legend_1">
    <g id="patch_57">
     <path d="M 149.338047 186.89325 
L 385.492422 186.89325 
Q 389.092422 186.89325 389.092422 183.29325 
L 389.092422 50.487 
Q 389.092422 46.887 385.492422 46.887 
L 149.338047 46.887 
Q 145.738047 46.887 145.738047 50.487 
L 145.738047 183.29325 
Q 145.738047 186.89325 149.338047 186.89325 
z
" style="fill:#ffffff;opacity:0.8;stroke:#cccccc;stroke-linejoin:miter;"/>
    </g>
    <g id="patch_58">
     <path d="M 152.938047 67.764187 
L 188.938047 67.764187 
L 188.938047 55.164187 
L 152.938047 55.164187 
z
" style="fill:#ff1f5b;"/>
    </g>
    <g id="text_22">
     <!-- min_mac_greedy(1) -->
     <g transform="translate(203.338047 67.764187)scale(0.18 -0.18)">
      <defs>
       <path d="M 3513 2113 
L 3513 0 
L 2938 0 
L 2938 2094 
Q 2938 2591 2744 2837 
Q 2550 3084 2163 3084 
Q 1697 3084 1428 2787 
Q 1159 2491 1159 1978 
L 1159 0 
L 581 0 
L 581 3500 
L 1159 3500 
L 1159 2956 
Q 1366 3272 1645 3428 
Q 1925 3584 2291 3584 
Q 2894 3584 3203 3211 
Q 3513 2838 3513 2113 
z
" id="DejaVuSans-6e" transform="scale(0.015625)"/>
       <path d="M 3263 -1063 
L 3263 -1509 
L -63 -1509 
L -63 -1063 
L 3263 -1063 
z
" id="DejaVuSans-5f" transform="scale(0.015625)"/>
       <path d="M 3122 3366 
L 3122 2828 
Q 2878 2963 2633 3030 
Q 2388 3097 2138 3097 
Q 1578 3097 1268 2742 
Q 959 2388 959 1747 
Q 959 1106 1268 751 
Q 1578 397 2138 397 
Q 2388 397 2633 464 
Q 2878 531 3122 666 
L 3122 134 
Q 2881 22 2623 -34 
Q 2366 -91 2075 -91 
Q 1284 -91 818 406 
Q 353 903 353 1747 
Q 353 2603 823 3093 
Q 1294 3584 2113 3584 
Q 2378 3584 2631 3529 
Q 2884 3475 3122 3366 
z
" id="DejaVuSans-63" transform="scale(0.015625)"/>
       <path d="M 2059 -325 
Q 1816 -950 1584 -1140 
Q 1353 -1331 966 -1331 
L 506 -1331 
L 506 -850 
L 844 -850 
Q 1081 -850 1212 -737 
Q 1344 -625 1503 -206 
L 1606 56 
L 191 3500 
L 800 3500 
L 1894 763 
L 2988 3500 
L 3597 3500 
L 2059 -325 
z
" id="DejaVuSans-79" transform="scale(0.015625)"/>
       <path d="M 1984 4856 
Q 1566 4138 1362 3434 
Q 1159 2731 1159 2009 
Q 1159 1288 1364 580 
Q 1569 -128 1984 -844 
L 1484 -844 
Q 1016 -109 783 600 
Q 550 1309 550 2009 
Q 550 2706 781 3412 
Q 1013 4119 1484 4856 
L 1984 4856 
z
" id="DejaVuSans-28" transform="scale(0.015625)"/>
       <path d="M 513 4856 
L 1013 4856 
Q 1481 4119 1714 3412 
Q 1947 2706 1947 2009 
Q 1947 1309 1714 600 
Q 1481 -109 1013 -844 
L 513 -844 
Q 928 -128 1133 580 
Q 1338 1288 1338 2009 
Q 1338 2731 1133 3434 
Q 928 4138 513 4856 
z
" id="DejaVuSans-29" transform="scale(0.015625)"/>
      </defs>
      <use xlink:href="#DejaVuSans-6d"/>
      <use x="97.412109" xlink:href="#DejaVuSans-69"/>
      <use x="125.195312" xlink:href="#DejaVuSans-6e"/>
      <use x="188.574219" xlink:href="#DejaVuSans-5f"/>
      <use x="238.574219" xlink:href="#DejaVuSans-6d"/>
      <use x="335.986328" xlink:href="#DejaVuSans-61"/>
      <use x="397.265625" xlink:href="#DejaVuSans-63"/>
      <use x="452.246094" xlink:href="#DejaVuSans-5f"/>
      <use x="502.246094" xlink:href="#DejaVuSans-67"/>
      <use x="565.722656" xlink:href="#DejaVuSans-72"/>
      <use x="604.585938" xlink:href="#DejaVuSans-65"/>
      <use x="666.109375" xlink:href="#DejaVuSans-65"/>
      <use x="727.632812" xlink:href="#DejaVuSans-64"/>
      <use x="791.109375" xlink:href="#DejaVuSans-79"/>
      <use x="850.289062" xlink:href="#DejaVuSans-28"/>
      <use x="889.302734" xlink:href="#DejaVuSans-31"/>
      <use x="952.925781" xlink:href="#DejaVuSans-29"/>
     </g>
    </g>
    <g id="patch_59">
     <path d="M 152.938047 94.685437 
L 188.938047 94.685437 
L 188.938047 82.085437 
L 152.938047 82.085437 
z
" style="fill:#009ade;"/>
    </g>
    <g id="text_23">
     <!-- min_mac_greedy(2) -->
     <g transform="translate(203.338047 94.685437)scale(0.18 -0.18)">
      <use xlink:href="#DejaVuSans-6d"/>
      <use x="97.412109" xlink:href="#DejaVuSans-69"/>
      <use x="125.195312" xlink:href="#DejaVuSans-6e"/>
      <use x="188.574219" xlink:href="#DejaVuSans-5f"/>
      <use x="238.574219" xlink:href="#DejaVuSans-6d"/>
      <use x="335.986328" xlink:href="#DejaVuSans-61"/>
      <use x="397.265625" xlink:href="#DejaVuSans-63"/>
      <use x="452.246094" xlink:href="#DejaVuSans-5f"/>
      <use x="502.246094" xlink:href="#DejaVuSans-67"/>
      <use x="565.722656" xlink:href="#DejaVuSans-72"/>
      <use x="604.585938" xlink:href="#DejaVuSans-65"/>
      <use x="666.109375" xlink:href="#DejaVuSans-65"/>
      <use x="727.632812" xlink:href="#DejaVuSans-64"/>
      <use x="791.109375" xlink:href="#DejaVuSans-79"/>
      <use x="850.289062" xlink:href="#DejaVuSans-28"/>
      <use x="889.302734" xlink:href="#DejaVuSans-32"/>
      <use x="952.925781" xlink:href="#DejaVuSans-29"/>
     </g>
    </g>
    <g id="patch_60">
     <path d="M 152.938047 121.606688 
L 188.938047 121.606688 
L 188.938047 109.006688 
L 152.938047 109.006688 
z
" style="fill:#f28522;"/>
    </g>
    <g id="text_24">
     <!-- min_mac_greedy(3) -->
     <g transform="translate(203.338047 121.606688)scale(0.18 -0.18)">
      <use xlink:href="#DejaVuSans-6d"/>
      <use x="97.412109" xlink:href="#DejaVuSans-69"/>
      <use x="125.195312" xlink:href="#DejaVuSans-6e"/>
      <use x="188.574219" xlink:href="#DejaVuSans-5f"/>
      <use x="238.574219" xlink:href="#DejaVuSans-6d"/>
      <use x="335.986328" xlink:href="#DejaVuSans-61"/>
      <use x="397.265625" xlink:href="#DejaVuSans-63"/>
      <use x="452.246094" xlink:href="#DejaVuSans-5f"/>
      <use x="502.246094" xlink:href="#DejaVuSans-67"/>
      <use x="565.722656" xlink:href="#DejaVuSans-72"/>
      <use x="604.585938" xlink:href="#DejaVuSans-65"/>
      <use x="666.109375" xlink:href="#DejaVuSans-65"/>
      <use x="727.632812" xlink:href="#DejaVuSans-64"/>
      <use x="791.109375" xlink:href="#DejaVuSans-79"/>
      <use x="850.289062" xlink:href="#DejaVuSans-28"/>
      <use x="889.302734" xlink:href="#DejaVuSans-33"/>
      <use x="952.925781" xlink:href="#DejaVuSans-29"/>
     </g>
    </g>
    <g id="patch_61">
     <path d="M 152.938047 148.527938 
L 188.938047 148.527938 
L 188.938047 135.927938 
L 152.938047 135.927938 
z
" style="fill:#58b272;"/>
    </g>
    <g id="text_25">
     <!-- min_mac_greedy(4) -->
     <g transform="translate(203.338047 148.527938)scale(0.18 -0.18)">
      <use xlink:href="#DejaVuSans-6d"/>
      <use x="97.412109" xlink:href="#DejaVuSans-69"/>
      <use x="125.195312" xlink:href="#DejaVuSans-6e"/>
      <use x="188.574219" xlink:href="#DejaVuSans-5f"/>
      <use x="238.574219" xlink:href="#DejaVuSans-6d"/>
      <use x="335.986328" xlink:href="#DejaVuSans-61"/>
      <use x="397.265625" xlink:href="#DejaVuSans-63"/>
      <use x="452.246094" xlink:href="#DejaVuSans-5f"/>
      <use x="502.246094" xlink:href="#DejaVuSans-67"/>
      <use x="565.722656" xlink:href="#DejaVuSans-72"/>
      <use x="604.585938" xlink:href="#DejaVuSans-65"/>
      <use x="666.109375" xlink:href="#DejaVuSans-65"/>
      <use x="727.632812" xlink:href="#DejaVuSans-64"/>
      <use x="791.109375" xlink:href="#DejaVuSans-79"/>
      <use x="850.289062" xlink:href="#DejaVuSans-28"/>
      <use x="889.302734" xlink:href="#DejaVuSans-34"/>
      <use x="952.925781" xlink:href="#DejaVuSans-29"/>
     </g>
    </g>
    <g id="patch_62">
     <path d="M 152.938047 175.449187 
L 188.938047 175.449187 
L 188.938047 162.849187 
L 152.938047 162.849187 
z
" style="fill:#af58ba;"/>
    </g>
    <g id="text_26">
     <!-- min_mac_greedy(5) -->
     <g transform="translate(203.338047 175.449187)scale(0.18 -0.18)">
      <use xlink:href="#DejaVuSans-6d"/>
      <use x="97.412109" xlink:href="#DejaVuSans-69"/>
      <use x="125.195312" xlink:href="#DejaVuSans-6e"/>
      <use x="188.574219" xlink:href="#DejaVuSans-5f"/>
      <use x="238.574219" xlink:href="#DejaVuSans-6d"/>
      <use x="335.986328" xlink:href="#DejaVuSans-61"/>
      <use x="397.265625" xlink:href="#DejaVuSans-63"/>
      <use x="452.246094" xlink:href="#DejaVuSans-5f"/>
      <use x="502.246094" xlink:href="#DejaVuSans-67"/>
      <use x="565.722656" xlink:href="#DejaVuSans-72"/>
      <use x="604.585938" xlink:href="#DejaVuSans-65"/>
      <use x="666.109375" xlink:href="#DejaVuSans-65"/>
      <use x="727.632812" xlink:href="#DejaVuSans-64"/>
      <use x="791.109375" xlink:href="#DejaVuSans-79"/>
      <use x="850.289062" xlink:href="#DejaVuSans-28"/>
      <use x="889.302734" xlink:href="#DejaVuSans-35"/>
      <use x="952.925781" xlink:href="#DejaVuSans-29"/>
     </g>
    </g>
   </g>
  </g>
 </g>
 <defs>
  <clipPath id="p5e9dd14fc5">
   <rect height="366.644667" width="627.281094" x="136.738047" y="37.887"/>
  </clipPath>
 </defs>
</svg>
