<?xml version="1.0" encoding="utf-8" standalone="no"?>
<!DOCTYPE svg PUBLIC "-//W3C//DTD SVG 1.1//EN"
  "http://www.w3.org/Graphics/SVG/1.1/DTD/svg11.dtd">
<svg height="516.96pt" version="1.1" viewBox="0 0 786.96 516.96" width="786.96pt" xmlns="http://www.w3.org/2000/svg" xmlns:xlink="http://www.w3.org/1999/xlink">
 <metadata>
  <rdf:RDF xmlns:cc="http://creativecommons.org/ns#" xmlns:dc="http://purl.org/dc/elements/1.1/" xmlns:rdf="http://www.w3.org/1999/02/22-rdf-syntax-ns#">
   <cc:Work>
    <dc:type rdf:resource="http://purl.org/dc/dcmitype/StillImage"/>
    <dc:date>2022-07-22T13:46:58.867445</dc:date>
    <dc:format>image/svg+xml</dc:format>
    <dc:creator>
     <cc:Agent>
      <dc:title>Matplotlib v3.4.3, https://matplotlib.org/</dc:title>
     </cc:Agent>
    </dc:creator>
   </cc:Work>
  </rdf:RDF>
 </metadata>
 <defs>
  <style type="text/css">*{stroke-linecap:butt;stroke-linejoin:round;}</style>
 </defs>
 <g id="figure_1">
  <g id="patch_1">
   <path d="M 0 516.96 
L 786.96 516.96 
L 786.96 0 
L 0 0 
z
" style="fill:#ffffff;"/>
  </g>
  <g id="axes_1">
   <g id="patch_2">
    <path d="M 130.528109 419.730833 
L 729.321328 419.730833 
L 729.321328 39.3105 
L 130.528109 39.3105 
z
" style="fill:#ffffff;"/>
   </g>
   <g id="matplotlib.axis_1">
    <g id="xtick_1">
     <g id="line2d_1">
      <path clip-path="url(#p639ee9b6e3)" d="M 156.15809 419.730833 
L 156.15809 39.3105 
" style="fill:none;stroke:#b0b0b0;stroke-dasharray:2.96,1.28;stroke-dashoffset:0;stroke-width:0.8;"/>
     </g>
     <g id="line2d_2">
      <defs>
       <path d="M 0 0 
L 0 3.5 
" id="ma02ee42dcb" style="stroke:#000000;stroke-width:0.8;"/>
      </defs>
      <g>
       <use style="stroke:#000000;stroke-width:0.8;" x="156.15809" xlink:href="#ma02ee42dcb" y="419.730833"/>
      </g>
     </g>
     <g id="text_1">
      <!-- 10 -->
      <g transform="translate(144.70559 440.408021)scale(0.18 -0.18)">
       <defs>
        <path d="M 794 531 
L 1825 531 
L 1825 4091 
L 703 3866 
L 703 4441 
L 1819 4666 
L 2450 4666 
L 2450 531 
L 3481 531 
L 3481 0 
L 794 0 
L 794 531 
z
" id="DejaVuSans-31" transform="scale(0.015625)"/>
        <path d="M 2034 4250 
Q 1547 4250 1301 3770 
Q 1056 3291 1056 2328 
Q 1056 1369 1301 889 
Q 1547 409 2034 409 
Q 2525 409 2770 889 
Q 3016 1369 3016 2328 
Q 3016 3291 2770 3770 
Q 2525 4250 2034 4250 
z
M 2034 4750 
Q 2819 4750 3233 4129 
Q 3647 3509 3647 2328 
Q 3647 1150 3233 529 
Q 2819 -91 2034 -91 
Q 1250 -91 836 529 
Q 422 1150 422 2328 
Q 422 3509 836 4129 
Q 1250 4750 2034 4750 
z
" id="DejaVuSans-30" transform="scale(0.015625)"/>
       </defs>
       <use xlink:href="#DejaVuSans-31"/>
       <use x="63.623047" xlink:href="#DejaVuSans-30"/>
      </g>
     </g>
    </g>
    <g id="xtick_2">
     <g id="line2d_3">
      <path clip-path="url(#p639ee9b6e3)" d="M 216.868581 419.730833 
L 216.868581 39.3105 
" style="fill:none;stroke:#b0b0b0;stroke-dasharray:2.96,1.28;stroke-dashoffset:0;stroke-width:0.8;"/>
     </g>
     <g id="line2d_4">
      <g>
       <use style="stroke:#000000;stroke-width:0.8;" x="216.868581" xlink:href="#ma02ee42dcb" y="419.730833"/>
      </g>
     </g>
     <g id="text_2">
      <!-- 20 -->
      <g transform="translate(205.416081 440.408021)scale(0.18 -0.18)">
       <defs>
        <path d="M 1228 531 
L 3431 531 
L 3431 0 
L 469 0 
L 469 531 
Q 828 903 1448 1529 
Q 2069 2156 2228 2338 
Q 2531 2678 2651 2914 
Q 2772 3150 2772 3378 
Q 2772 3750 2511 3984 
Q 2250 4219 1831 4219 
Q 1534 4219 1204 4116 
Q 875 4013 500 3803 
L 500 4441 
Q 881 4594 1212 4672 
Q 1544 4750 1819 4750 
Q 2544 4750 2975 4387 
Q 3406 4025 3406 3419 
Q 3406 3131 3298 2873 
Q 3191 2616 2906 2266 
Q 2828 2175 2409 1742 
Q 1991 1309 1228 531 
z
" id="DejaVuSans-32" transform="scale(0.015625)"/>
       </defs>
       <use xlink:href="#DejaVuSans-32"/>
       <use x="63.623047" xlink:href="#DejaVuSans-30"/>
      </g>
     </g>
    </g>
    <g id="xtick_3">
     <g id="line2d_5">
      <path clip-path="url(#p639ee9b6e3)" d="M 277.579073 419.730833 
L 277.579073 39.3105 
" style="fill:none;stroke:#b0b0b0;stroke-dasharray:2.96,1.28;stroke-dashoffset:0;stroke-width:0.8;"/>
     </g>
     <g id="line2d_6">
      <g>
       <use style="stroke:#000000;stroke-width:0.8;" x="277.579073" xlink:href="#ma02ee42dcb" y="419.730833"/>
      </g>
     </g>
     <g id="text_3">
      <!-- 30 -->
      <g transform="translate(266.126573 440.408021)scale(0.18 -0.18)">
       <defs>
        <path d="M 2597 2516 
Q 3050 2419 3304 2112 
Q 3559 1806 3559 1356 
Q 3559 666 3084 287 
Q 2609 -91 1734 -91 
Q 1441 -91 1130 -33 
Q 819 25 488 141 
L 488 750 
Q 750 597 1062 519 
Q 1375 441 1716 441 
Q 2309 441 2620 675 
Q 2931 909 2931 1356 
Q 2931 1769 2642 2001 
Q 2353 2234 1838 2234 
L 1294 2234 
L 1294 2753 
L 1863 2753 
Q 2328 2753 2575 2939 
Q 2822 3125 2822 3475 
Q 2822 3834 2567 4026 
Q 2313 4219 1838 4219 
Q 1578 4219 1281 4162 
Q 984 4106 628 3988 
L 628 4550 
Q 988 4650 1302 4700 
Q 1616 4750 1894 4750 
Q 2613 4750 3031 4423 
Q 3450 4097 3450 3541 
Q 3450 3153 3228 2886 
Q 3006 2619 2597 2516 
z
" id="DejaVuSans-33" transform="scale(0.015625)"/>
       </defs>
       <use xlink:href="#DejaVuSans-33"/>
       <use x="63.623047" xlink:href="#DejaVuSans-30"/>
      </g>
     </g>
    </g>
    <g id="xtick_4">
     <g id="line2d_7">
      <path clip-path="url(#p639ee9b6e3)" d="M 338.289565 419.730833 
L 338.289565 39.3105 
" style="fill:none;stroke:#b0b0b0;stroke-dasharray:2.96,1.28;stroke-dashoffset:0;stroke-width:0.8;"/>
     </g>
     <g id="line2d_8">
      <g>
       <use style="stroke:#000000;stroke-width:0.8;" x="338.289565" xlink:href="#ma02ee42dcb" y="419.730833"/>
      </g>
     </g>
     <g id="text_4">
      <!-- 40 -->
      <g transform="translate(326.837065 440.408021)scale(0.18 -0.18)">
       <defs>
        <path d="M 2419 4116 
L 825 1625 
L 2419 1625 
L 2419 4116 
z
M 2253 4666 
L 3047 4666 
L 3047 1625 
L 3713 1625 
L 3713 1100 
L 3047 1100 
L 3047 0 
L 2419 0 
L 2419 1100 
L 313 1100 
L 313 1709 
L 2253 4666 
z
" id="DejaVuSans-34" transform="scale(0.015625)"/>
       </defs>
       <use xlink:href="#DejaVuSans-34"/>
       <use x="63.623047" xlink:href="#DejaVuSans-30"/>
      </g>
     </g>
    </g>
    <g id="xtick_5">
     <g id="line2d_9">
      <path clip-path="url(#p639ee9b6e3)" d="M 399.000056 419.730833 
L 399.000056 39.3105 
" style="fill:none;stroke:#b0b0b0;stroke-dasharray:2.96,1.28;stroke-dashoffset:0;stroke-width:0.8;"/>
     </g>
     <g id="line2d_10">
      <g>
       <use style="stroke:#000000;stroke-width:0.8;" x="399.000056" xlink:href="#ma02ee42dcb" y="419.730833"/>
      </g>
     </g>
     <g id="text_5">
      <!-- 50 -->
      <g transform="translate(387.547556 440.408021)scale(0.18 -0.18)">
       <defs>
        <path d="M 691 4666 
L 3169 4666 
L 3169 4134 
L 1269 4134 
L 1269 2991 
Q 1406 3038 1543 3061 
Q 1681 3084 1819 3084 
Q 2600 3084 3056 2656 
Q 3513 2228 3513 1497 
Q 3513 744 3044 326 
Q 2575 -91 1722 -91 
Q 1428 -91 1123 -41 
Q 819 9 494 109 
L 494 744 
Q 775 591 1075 516 
Q 1375 441 1709 441 
Q 2250 441 2565 725 
Q 2881 1009 2881 1497 
Q 2881 1984 2565 2268 
Q 2250 2553 1709 2553 
Q 1456 2553 1204 2497 
Q 953 2441 691 2322 
L 691 4666 
z
" id="DejaVuSans-35" transform="scale(0.015625)"/>
       </defs>
       <use xlink:href="#DejaVuSans-35"/>
       <use x="63.623047" xlink:href="#DejaVuSans-30"/>
      </g>
     </g>
    </g>
    <g id="xtick_6">
     <g id="line2d_11">
      <path clip-path="url(#p639ee9b6e3)" d="M 459.710548 419.730833 
L 459.710548 39.3105 
" style="fill:none;stroke:#b0b0b0;stroke-dasharray:2.96,1.28;stroke-dashoffset:0;stroke-width:0.8;"/>
     </g>
     <g id="line2d_12">
      <g>
       <use style="stroke:#000000;stroke-width:0.8;" x="459.710548" xlink:href="#ma02ee42dcb" y="419.730833"/>
      </g>
     </g>
     <g id="text_6">
      <!-- 60 -->
      <g transform="translate(448.258048 440.408021)scale(0.18 -0.18)">
       <defs>
        <path d="M 2113 2584 
Q 1688 2584 1439 2293 
Q 1191 2003 1191 1497 
Q 1191 994 1439 701 
Q 1688 409 2113 409 
Q 2538 409 2786 701 
Q 3034 994 3034 1497 
Q 3034 2003 2786 2293 
Q 2538 2584 2113 2584 
z
M 3366 4563 
L 3366 3988 
Q 3128 4100 2886 4159 
Q 2644 4219 2406 4219 
Q 1781 4219 1451 3797 
Q 1122 3375 1075 2522 
Q 1259 2794 1537 2939 
Q 1816 3084 2150 3084 
Q 2853 3084 3261 2657 
Q 3669 2231 3669 1497 
Q 3669 778 3244 343 
Q 2819 -91 2113 -91 
Q 1303 -91 875 529 
Q 447 1150 447 2328 
Q 447 3434 972 4092 
Q 1497 4750 2381 4750 
Q 2619 4750 2861 4703 
Q 3103 4656 3366 4563 
z
" id="DejaVuSans-36" transform="scale(0.015625)"/>
       </defs>
       <use xlink:href="#DejaVuSans-36"/>
       <use x="63.623047" xlink:href="#DejaVuSans-30"/>
      </g>
     </g>
    </g>
    <g id="xtick_7">
     <g id="line2d_13">
      <path clip-path="url(#p639ee9b6e3)" d="M 520.42104 419.730833 
L 520.42104 39.3105 
" style="fill:none;stroke:#b0b0b0;stroke-dasharray:2.96,1.28;stroke-dashoffset:0;stroke-width:0.8;"/>
     </g>
     <g id="line2d_14">
      <g>
       <use style="stroke:#000000;stroke-width:0.8;" x="520.42104" xlink:href="#ma02ee42dcb" y="419.730833"/>
      </g>
     </g>
     <g id="text_7">
      <!-- 70 -->
      <g transform="translate(508.96854 440.408021)scale(0.18 -0.18)">
       <defs>
        <path d="M 525 4666 
L 3525 4666 
L 3525 4397 
L 1831 0 
L 1172 0 
L 2766 4134 
L 525 4134 
L 525 4666 
z
" id="DejaVuSans-37" transform="scale(0.015625)"/>
       </defs>
       <use xlink:href="#DejaVuSans-37"/>
       <use x="63.623047" xlink:href="#DejaVuSans-30"/>
      </g>
     </g>
    </g>
    <g id="xtick_8">
     <g id="line2d_15">
      <path clip-path="url(#p639ee9b6e3)" d="M 581.131531 419.730833 
L 581.131531 39.3105 
" style="fill:none;stroke:#b0b0b0;stroke-dasharray:2.96,1.28;stroke-dashoffset:0;stroke-width:0.8;"/>
     </g>
     <g id="line2d_16">
      <g>
       <use style="stroke:#000000;stroke-width:0.8;" x="581.131531" xlink:href="#ma02ee42dcb" y="419.730833"/>
      </g>
     </g>
     <g id="text_8">
      <!-- 80 -->
      <g transform="translate(569.679031 440.408021)scale(0.18 -0.18)">
       <defs>
        <path d="M 2034 2216 
Q 1584 2216 1326 1975 
Q 1069 1734 1069 1313 
Q 1069 891 1326 650 
Q 1584 409 2034 409 
Q 2484 409 2743 651 
Q 3003 894 3003 1313 
Q 3003 1734 2745 1975 
Q 2488 2216 2034 2216 
z
M 1403 2484 
Q 997 2584 770 2862 
Q 544 3141 544 3541 
Q 544 4100 942 4425 
Q 1341 4750 2034 4750 
Q 2731 4750 3128 4425 
Q 3525 4100 3525 3541 
Q 3525 3141 3298 2862 
Q 3072 2584 2669 2484 
Q 3125 2378 3379 2068 
Q 3634 1759 3634 1313 
Q 3634 634 3220 271 
Q 2806 -91 2034 -91 
Q 1263 -91 848 271 
Q 434 634 434 1313 
Q 434 1759 690 2068 
Q 947 2378 1403 2484 
z
M 1172 3481 
Q 1172 3119 1398 2916 
Q 1625 2713 2034 2713 
Q 2441 2713 2670 2916 
Q 2900 3119 2900 3481 
Q 2900 3844 2670 4047 
Q 2441 4250 2034 4250 
Q 1625 4250 1398 4047 
Q 1172 3844 1172 3481 
z
" id="DejaVuSans-38" transform="scale(0.015625)"/>
       </defs>
       <use xlink:href="#DejaVuSans-38"/>
       <use x="63.623047" xlink:href="#DejaVuSans-30"/>
      </g>
     </g>
    </g>
    <g id="xtick_9">
     <g id="line2d_17">
      <path clip-path="url(#p639ee9b6e3)" d="M 641.842023 419.730833 
L 641.842023 39.3105 
" style="fill:none;stroke:#b0b0b0;stroke-dasharray:2.96,1.28;stroke-dashoffset:0;stroke-width:0.8;"/>
     </g>
     <g id="line2d_18">
      <g>
       <use style="stroke:#000000;stroke-width:0.8;" x="641.842023" xlink:href="#ma02ee42dcb" y="419.730833"/>
      </g>
     </g>
     <g id="text_9">
      <!-- 90 -->
      <g transform="translate(630.389523 440.408021)scale(0.18 -0.18)">
       <defs>
        <path d="M 703 97 
L 703 672 
Q 941 559 1184 500 
Q 1428 441 1663 441 
Q 2288 441 2617 861 
Q 2947 1281 2994 2138 
Q 2813 1869 2534 1725 
Q 2256 1581 1919 1581 
Q 1219 1581 811 2004 
Q 403 2428 403 3163 
Q 403 3881 828 4315 
Q 1253 4750 1959 4750 
Q 2769 4750 3195 4129 
Q 3622 3509 3622 2328 
Q 3622 1225 3098 567 
Q 2575 -91 1691 -91 
Q 1453 -91 1209 -44 
Q 966 3 703 97 
z
M 1959 2075 
Q 2384 2075 2632 2365 
Q 2881 2656 2881 3163 
Q 2881 3666 2632 3958 
Q 2384 4250 1959 4250 
Q 1534 4250 1286 3958 
Q 1038 3666 1038 3163 
Q 1038 2656 1286 2365 
Q 1534 2075 1959 2075 
z
" id="DejaVuSans-39" transform="scale(0.015625)"/>
       </defs>
       <use xlink:href="#DejaVuSans-39"/>
       <use x="63.623047" xlink:href="#DejaVuSans-30"/>
      </g>
     </g>
    </g>
    <g id="xtick_10">
     <g id="line2d_19">
      <path clip-path="url(#p639ee9b6e3)" d="M 702.552514 419.730833 
L 702.552514 39.3105 
" style="fill:none;stroke:#b0b0b0;stroke-dasharray:2.96,1.28;stroke-dashoffset:0;stroke-width:0.8;"/>
     </g>
     <g id="line2d_20">
      <g>
       <use style="stroke:#000000;stroke-width:0.8;" x="702.552514" xlink:href="#ma02ee42dcb" y="419.730833"/>
      </g>
     </g>
     <g id="text_10">
      <!-- 100 -->
      <g transform="translate(685.373764 440.408021)scale(0.18 -0.18)">
       <use xlink:href="#DejaVuSans-31"/>
       <use x="63.623047" xlink:href="#DejaVuSans-30"/>
       <use x="127.246094" xlink:href="#DejaVuSans-30"/>
      </g>
     </g>
    </g>
    <g id="text_11">
     <!-- Budget -->
     <g transform="translate(397.552844 461.828646)scale(0.18 -0.18)">
      <defs>
       <path d="M 1259 2228 
L 1259 519 
L 2272 519 
Q 2781 519 3026 730 
Q 3272 941 3272 1375 
Q 3272 1813 3026 2020 
Q 2781 2228 2272 2228 
L 1259 2228 
z
M 1259 4147 
L 1259 2741 
L 2194 2741 
Q 2656 2741 2882 2914 
Q 3109 3088 3109 3444 
Q 3109 3797 2882 3972 
Q 2656 4147 2194 4147 
L 1259 4147 
z
M 628 4666 
L 2241 4666 
Q 2963 4666 3353 4366 
Q 3744 4066 3744 3513 
Q 3744 3084 3544 2831 
Q 3344 2578 2956 2516 
Q 3422 2416 3680 2098 
Q 3938 1781 3938 1306 
Q 3938 681 3513 340 
Q 3088 0 2303 0 
L 628 0 
L 628 4666 
z
" id="DejaVuSans-42" transform="scale(0.015625)"/>
       <path d="M 544 1381 
L 544 3500 
L 1119 3500 
L 1119 1403 
Q 1119 906 1312 657 
Q 1506 409 1894 409 
Q 2359 409 2629 706 
Q 2900 1003 2900 1516 
L 2900 3500 
L 3475 3500 
L 3475 0 
L 2900 0 
L 2900 538 
Q 2691 219 2414 64 
Q 2138 -91 1772 -91 
Q 1169 -91 856 284 
Q 544 659 544 1381 
z
M 1991 3584 
L 1991 3584 
z
" id="DejaVuSans-75" transform="scale(0.015625)"/>
       <path d="M 2906 2969 
L 2906 4863 
L 3481 4863 
L 3481 0 
L 2906 0 
L 2906 525 
Q 2725 213 2448 61 
Q 2172 -91 1784 -91 
Q 1150 -91 751 415 
Q 353 922 353 1747 
Q 353 2572 751 3078 
Q 1150 3584 1784 3584 
Q 2172 3584 2448 3432 
Q 2725 3281 2906 2969 
z
M 947 1747 
Q 947 1113 1208 752 
Q 1469 391 1925 391 
Q 2381 391 2643 752 
Q 2906 1113 2906 1747 
Q 2906 2381 2643 2742 
Q 2381 3103 1925 3103 
Q 1469 3103 1208 2742 
Q 947 2381 947 1747 
z
" id="DejaVuSans-64" transform="scale(0.015625)"/>
       <path d="M 2906 1791 
Q 2906 2416 2648 2759 
Q 2391 3103 1925 3103 
Q 1463 3103 1205 2759 
Q 947 2416 947 1791 
Q 947 1169 1205 825 
Q 1463 481 1925 481 
Q 2391 481 2648 825 
Q 2906 1169 2906 1791 
z
M 3481 434 
Q 3481 -459 3084 -895 
Q 2688 -1331 1869 -1331 
Q 1566 -1331 1297 -1286 
Q 1028 -1241 775 -1147 
L 775 -588 
Q 1028 -725 1275 -790 
Q 1522 -856 1778 -856 
Q 2344 -856 2625 -561 
Q 2906 -266 2906 331 
L 2906 616 
Q 2728 306 2450 153 
Q 2172 0 1784 0 
Q 1141 0 747 490 
Q 353 981 353 1791 
Q 353 2603 747 3093 
Q 1141 3584 1784 3584 
Q 2172 3584 2450 3431 
Q 2728 3278 2906 2969 
L 2906 3500 
L 3481 3500 
L 3481 434 
z
" id="DejaVuSans-67" transform="scale(0.015625)"/>
       <path d="M 3597 1894 
L 3597 1613 
L 953 1613 
Q 991 1019 1311 708 
Q 1631 397 2203 397 
Q 2534 397 2845 478 
Q 3156 559 3463 722 
L 3463 178 
Q 3153 47 2828 -22 
Q 2503 -91 2169 -91 
Q 1331 -91 842 396 
Q 353 884 353 1716 
Q 353 2575 817 3079 
Q 1281 3584 2069 3584 
Q 2775 3584 3186 3129 
Q 3597 2675 3597 1894 
z
M 3022 2063 
Q 3016 2534 2758 2815 
Q 2500 3097 2075 3097 
Q 1594 3097 1305 2825 
Q 1016 2553 972 2059 
L 3022 2063 
z
" id="DejaVuSans-65" transform="scale(0.015625)"/>
       <path d="M 1172 4494 
L 1172 3500 
L 2356 3500 
L 2356 3053 
L 1172 3053 
L 1172 1153 
Q 1172 725 1289 603 
Q 1406 481 1766 481 
L 2356 481 
L 2356 0 
L 1766 0 
Q 1100 0 847 248 
Q 594 497 594 1153 
L 594 3053 
L 172 3053 
L 172 3500 
L 594 3500 
L 594 4494 
L 1172 4494 
z
" id="DejaVuSans-74" transform="scale(0.015625)"/>
      </defs>
      <use xlink:href="#DejaVuSans-42"/>
      <use x="68.603516" xlink:href="#DejaVuSans-75"/>
      <use x="131.982422" xlink:href="#DejaVuSans-64"/>
      <use x="195.458984" xlink:href="#DejaVuSans-67"/>
      <use x="258.935547" xlink:href="#DejaVuSans-65"/>
      <use x="320.458984" xlink:href="#DejaVuSans-74"/>
     </g>
    </g>
   </g>
   <g id="matplotlib.axis_2">
    <g id="ytick_1">
     <g id="line2d_21">
      <path clip-path="url(#p639ee9b6e3)" d="M 130.528109 418.940634 
L 729.321328 418.940634 
" style="fill:none;stroke:#b0b0b0;stroke-dasharray:2.96,1.28;stroke-dashoffset:0;stroke-width:0.8;"/>
     </g>
     <g id="line2d_22">
      <defs>
       <path d="M 0 0 
L -3.5 0 
" id="m1400ba7e6e" style="stroke:#000000;stroke-width:0.8;"/>
      </defs>
      <g>
       <use style="stroke:#000000;stroke-width:0.8;" x="130.528109" xlink:href="#m1400ba7e6e" y="418.940634"/>
      </g>
     </g>
     <g id="text_12">
      <!-- 0 -->
      <g transform="translate(112.075609 425.779228)scale(0.18 -0.18)">
       <use xlink:href="#DejaVuSans-30"/>
      </g>
     </g>
    </g>
    <g id="ytick_2">
     <g id="line2d_23">
      <path clip-path="url(#p639ee9b6e3)" d="M 130.528109 342.024741 
L 729.321328 342.024741 
" style="fill:none;stroke:#b0b0b0;stroke-dasharray:2.96,1.28;stroke-dashoffset:0;stroke-width:0.8;"/>
     </g>
     <g id="line2d_24">
      <g>
       <use style="stroke:#000000;stroke-width:0.8;" x="130.528109" xlink:href="#m1400ba7e6e" y="342.024741"/>
      </g>
     </g>
     <g id="text_13">
      <!-- 20 -->
      <g transform="translate(100.623109 348.863335)scale(0.18 -0.18)">
       <use xlink:href="#DejaVuSans-32"/>
       <use x="63.623047" xlink:href="#DejaVuSans-30"/>
      </g>
     </g>
    </g>
    <g id="ytick_3">
     <g id="line2d_25">
      <path clip-path="url(#p639ee9b6e3)" d="M 130.528109 265.108849 
L 729.321328 265.108849 
" style="fill:none;stroke:#b0b0b0;stroke-dasharray:2.96,1.28;stroke-dashoffset:0;stroke-width:0.8;"/>
     </g>
     <g id="line2d_26">
      <g>
       <use style="stroke:#000000;stroke-width:0.8;" x="130.528109" xlink:href="#m1400ba7e6e" y="265.108849"/>
      </g>
     </g>
     <g id="text_14">
      <!-- 40 -->
      <g transform="translate(100.623109 271.947443)scale(0.18 -0.18)">
       <use xlink:href="#DejaVuSans-34"/>
       <use x="63.623047" xlink:href="#DejaVuSans-30"/>
      </g>
     </g>
    </g>
    <g id="ytick_4">
     <g id="line2d_27">
      <path clip-path="url(#p639ee9b6e3)" d="M 130.528109 188.192957 
L 729.321328 188.192957 
" style="fill:none;stroke:#b0b0b0;stroke-dasharray:2.96,1.28;stroke-dashoffset:0;stroke-width:0.8;"/>
     </g>
     <g id="line2d_28">
      <g>
       <use style="stroke:#000000;stroke-width:0.8;" x="130.528109" xlink:href="#m1400ba7e6e" y="188.192957"/>
      </g>
     </g>
     <g id="text_15">
      <!-- 60 -->
      <g transform="translate(100.623109 195.03155)scale(0.18 -0.18)">
       <use xlink:href="#DejaVuSans-36"/>
       <use x="63.623047" xlink:href="#DejaVuSans-30"/>
      </g>
     </g>
    </g>
    <g id="ytick_5">
     <g id="line2d_29">
      <path clip-path="url(#p639ee9b6e3)" d="M 130.528109 111.277064 
L 729.321328 111.277064 
" style="fill:none;stroke:#b0b0b0;stroke-dasharray:2.96,1.28;stroke-dashoffset:0;stroke-width:0.8;"/>
     </g>
     <g id="line2d_30">
      <g>
       <use style="stroke:#000000;stroke-width:0.8;" x="130.528109" xlink:href="#m1400ba7e6e" y="111.277064"/>
      </g>
     </g>
     <g id="text_16">
      <!-- 80 -->
      <g transform="translate(100.623109 118.115658)scale(0.18 -0.18)">
       <use xlink:href="#DejaVuSans-38"/>
       <use x="63.623047" xlink:href="#DejaVuSans-30"/>
      </g>
     </g>
    </g>
    <g id="text_17">
     <!-- Running Time (ms) -->
     <g transform="translate(92.879672 314.617073)rotate(-90)scale(0.18 -0.18)">
      <defs>
       <path d="M 2841 2188 
Q 3044 2119 3236 1894 
Q 3428 1669 3622 1275 
L 4263 0 
L 3584 0 
L 2988 1197 
Q 2756 1666 2539 1819 
Q 2322 1972 1947 1972 
L 1259 1972 
L 1259 0 
L 628 0 
L 628 4666 
L 2053 4666 
Q 2853 4666 3247 4331 
Q 3641 3997 3641 3322 
Q 3641 2881 3436 2590 
Q 3231 2300 2841 2188 
z
M 1259 4147 
L 1259 2491 
L 2053 2491 
Q 2509 2491 2742 2702 
Q 2975 2913 2975 3322 
Q 2975 3731 2742 3939 
Q 2509 4147 2053 4147 
L 1259 4147 
z
" id="DejaVuSans-52" transform="scale(0.015625)"/>
       <path d="M 3513 2113 
L 3513 0 
L 2938 0 
L 2938 2094 
Q 2938 2591 2744 2837 
Q 2550 3084 2163 3084 
Q 1697 3084 1428 2787 
Q 1159 2491 1159 1978 
L 1159 0 
L 581 0 
L 581 3500 
L 1159 3500 
L 1159 2956 
Q 1366 3272 1645 3428 
Q 1925 3584 2291 3584 
Q 2894 3584 3203 3211 
Q 3513 2838 3513 2113 
z
" id="DejaVuSans-6e" transform="scale(0.015625)"/>
       <path d="M 603 3500 
L 1178 3500 
L 1178 0 
L 603 0 
L 603 3500 
z
M 603 4863 
L 1178 4863 
L 1178 4134 
L 603 4134 
L 603 4863 
z
" id="DejaVuSans-69" transform="scale(0.015625)"/>
       <path id="DejaVuSans-20" transform="scale(0.015625)"/>
       <path d="M -19 4666 
L 3928 4666 
L 3928 4134 
L 2272 4134 
L 2272 0 
L 1638 0 
L 1638 4134 
L -19 4134 
L -19 4666 
z
" id="DejaVuSans-54" transform="scale(0.015625)"/>
       <path d="M 3328 2828 
Q 3544 3216 3844 3400 
Q 4144 3584 4550 3584 
Q 5097 3584 5394 3201 
Q 5691 2819 5691 2113 
L 5691 0 
L 5113 0 
L 5113 2094 
Q 5113 2597 4934 2840 
Q 4756 3084 4391 3084 
Q 3944 3084 3684 2787 
Q 3425 2491 3425 1978 
L 3425 0 
L 2847 0 
L 2847 2094 
Q 2847 2600 2669 2842 
Q 2491 3084 2119 3084 
Q 1678 3084 1418 2786 
Q 1159 2488 1159 1978 
L 1159 0 
L 581 0 
L 581 3500 
L 1159 3500 
L 1159 2956 
Q 1356 3278 1631 3431 
Q 1906 3584 2284 3584 
Q 2666 3584 2933 3390 
Q 3200 3197 3328 2828 
z
" id="DejaVuSans-6d" transform="scale(0.015625)"/>
       <path d="M 1984 4856 
Q 1566 4138 1362 3434 
Q 1159 2731 1159 2009 
Q 1159 1288 1364 580 
Q 1569 -128 1984 -844 
L 1484 -844 
Q 1016 -109 783 600 
Q 550 1309 550 2009 
Q 550 2706 781 3412 
Q 1013 4119 1484 4856 
L 1984 4856 
z
" id="DejaVuSans-28" transform="scale(0.015625)"/>
       <path d="M 2834 3397 
L 2834 2853 
Q 2591 2978 2328 3040 
Q 2066 3103 1784 3103 
Q 1356 3103 1142 2972 
Q 928 2841 928 2578 
Q 928 2378 1081 2264 
Q 1234 2150 1697 2047 
L 1894 2003 
Q 2506 1872 2764 1633 
Q 3022 1394 3022 966 
Q 3022 478 2636 193 
Q 2250 -91 1575 -91 
Q 1294 -91 989 -36 
Q 684 19 347 128 
L 347 722 
Q 666 556 975 473 
Q 1284 391 1588 391 
Q 1994 391 2212 530 
Q 2431 669 2431 922 
Q 2431 1156 2273 1281 
Q 2116 1406 1581 1522 
L 1381 1569 
Q 847 1681 609 1914 
Q 372 2147 372 2553 
Q 372 3047 722 3315 
Q 1072 3584 1716 3584 
Q 2034 3584 2315 3537 
Q 2597 3491 2834 3397 
z
" id="DejaVuSans-73" transform="scale(0.015625)"/>
       <path d="M 513 4856 
L 1013 4856 
Q 1481 4119 1714 3412 
Q 1947 2706 1947 2009 
Q 1947 1309 1714 600 
Q 1481 -109 1013 -844 
L 513 -844 
Q 928 -128 1133 580 
Q 1338 1288 1338 2009 
Q 1338 2731 1133 3434 
Q 928 4138 513 4856 
z
" id="DejaVuSans-29" transform="scale(0.015625)"/>
      </defs>
      <use xlink:href="#DejaVuSans-52"/>
      <use x="64.982422" xlink:href="#DejaVuSans-75"/>
      <use x="128.361328" xlink:href="#DejaVuSans-6e"/>
      <use x="191.740234" xlink:href="#DejaVuSans-6e"/>
      <use x="255.119141" xlink:href="#DejaVuSans-69"/>
      <use x="282.902344" xlink:href="#DejaVuSans-6e"/>
      <use x="346.28125" xlink:href="#DejaVuSans-67"/>
      <use x="409.757812" xlink:href="#DejaVuSans-20"/>
      <use x="441.544922" xlink:href="#DejaVuSans-54"/>
      <use x="499.503906" xlink:href="#DejaVuSans-69"/>
      <use x="527.287109" xlink:href="#DejaVuSans-6d"/>
      <use x="624.699219" xlink:href="#DejaVuSans-65"/>
      <use x="686.222656" xlink:href="#DejaVuSans-20"/>
      <use x="718.009766" xlink:href="#DejaVuSans-28"/>
      <use x="757.023438" xlink:href="#DejaVuSans-6d"/>
      <use x="854.435547" xlink:href="#DejaVuSans-73"/>
      <use x="906.535156" xlink:href="#DejaVuSans-29"/>
     </g>
    </g>
   </g>
   <g id="line2d_31">
    <path clip-path="url(#p639ee9b6e3)" style="fill:none;stroke:#ff1f5b;stroke-linecap:square;stroke-width:2;"/>
    <defs>
     <path d="M 0 4 
C 1.060812 4 2.078319 3.578535 2.828427 2.828427 
C 3.578535 2.078319 4 1.060812 4 0 
C 4 -1.060812 3.578535 -2.078319 2.828427 -2.828427 
C 2.078319 -3.578535 1.060812 -4 0 -4 
C -1.060812 -4 -2.078319 -3.578535 -2.828427 -2.828427 
C -3.578535 -2.078319 -4 -1.060812 -4 0 
C -4 1.060812 -3.578535 2.078319 -2.828427 2.828427 
C -2.078319 3.578535 -1.060812 4 0 4 
z
" id="m08a840a527" style="stroke:#ff1f5b;"/>
    </defs>
    <g clip-path="url(#p639ee9b6e3)"/>
   </g>
   <g id="line2d_32">
    <path clip-path="url(#p639ee9b6e3)" d="M 156.15809 354.277982 
L 216.868581 321.176581 
L 277.579073 287.998764 
L 338.289565 254.28175 
L 399.000056 222.565982 
L 459.710548 189.618897 
L 520.42104 163.754052 
L 581.131531 136.42628 
L 641.842023 110.86937 
L 702.552514 81.617354 
" style="fill:none;stroke:#009ade;stroke-linecap:square;stroke-width:2;"/>
    <defs>
     <path d="M 0 -4 
L -4 4 
L 4 4 
z
" id="mb158a8620a" style="stroke:#009ade;stroke-linejoin:miter;"/>
    </defs>
    <g clip-path="url(#p639ee9b6e3)">
     <use style="fill:#009ade;stroke:#009ade;stroke-linejoin:miter;" x="156.15809" xlink:href="#mb158a8620a" y="354.277982"/>
     <use style="fill:#009ade;stroke:#009ade;stroke-linejoin:miter;" x="216.868581" xlink:href="#mb158a8620a" y="321.176581"/>
     <use style="fill:#009ade;stroke:#009ade;stroke-linejoin:miter;" x="277.579073" xlink:href="#mb158a8620a" y="287.998764"/>
     <use style="fill:#009ade;stroke:#009ade;stroke-linejoin:miter;" x="338.289565" xlink:href="#mb158a8620a" y="254.28175"/>
     <use style="fill:#009ade;stroke:#009ade;stroke-linejoin:miter;" x="399.000056" xlink:href="#mb158a8620a" y="222.565982"/>
     <use style="fill:#009ade;stroke:#009ade;stroke-linejoin:miter;" x="459.710548" xlink:href="#mb158a8620a" y="189.618897"/>
     <use style="fill:#009ade;stroke:#009ade;stroke-linejoin:miter;" x="520.42104" xlink:href="#mb158a8620a" y="163.754052"/>
     <use style="fill:#009ade;stroke:#009ade;stroke-linejoin:miter;" x="581.131531" xlink:href="#mb158a8620a" y="136.42628"/>
     <use style="fill:#009ade;stroke:#009ade;stroke-linejoin:miter;" x="641.842023" xlink:href="#mb158a8620a" y="110.86937"/>
     <use style="fill:#009ade;stroke:#009ade;stroke-linejoin:miter;" x="702.552514" xlink:href="#mb158a8620a" y="81.617354"/>
    </g>
   </g>
   <g id="line2d_33">
    <path clip-path="url(#p639ee9b6e3)" d="M 156.15809 372.291097 
L 216.868581 353.276791 
L 277.579073 338.112915 
L 338.289565 322.485285 
L 399.000056 308.552194 
L 459.710548 290.462205 
L 520.42104 272.063896 
L 581.131531 254.666595 
L 641.842023 240.194491 
L 702.552514 227.338951 
" style="fill:none;stroke:#f28522;stroke-linecap:square;stroke-width:2;"/>
    <defs>
     <path d="M -2 4 
L 0 2 
L 2 4 
L 4 2 
L 2 0 
L 4 -2 
L 2 -4 
L 0 -2 
L -2 -4 
L -4 -2 
L -2 0 
L -4 2 
z
" id="mb82f7a2b39" style="stroke:#f28522;stroke-linejoin:miter;"/>
    </defs>
    <g clip-path="url(#p639ee9b6e3)">
     <use style="fill:#f28522;stroke:#f28522;stroke-linejoin:miter;" x="156.15809" xlink:href="#mb82f7a2b39" y="372.291097"/>
     <use style="fill:#f28522;stroke:#f28522;stroke-linejoin:miter;" x="216.868581" xlink:href="#mb82f7a2b39" y="353.276791"/>
     <use style="fill:#f28522;stroke:#f28522;stroke-linejoin:miter;" x="277.579073" xlink:href="#mb82f7a2b39" y="338.112915"/>
     <use style="fill:#f28522;stroke:#f28522;stroke-linejoin:miter;" x="338.289565" xlink:href="#mb82f7a2b39" y="322.485285"/>
     <use style="fill:#f28522;stroke:#f28522;stroke-linejoin:miter;" x="399.000056" xlink:href="#mb82f7a2b39" y="308.552194"/>
     <use style="fill:#f28522;stroke:#f28522;stroke-linejoin:miter;" x="459.710548" xlink:href="#mb82f7a2b39" y="290.462205"/>
     <use style="fill:#f28522;stroke:#f28522;stroke-linejoin:miter;" x="520.42104" xlink:href="#mb82f7a2b39" y="272.063896"/>
     <use style="fill:#f28522;stroke:#f28522;stroke-linejoin:miter;" x="581.131531" xlink:href="#mb82f7a2b39" y="254.666595"/>
     <use style="fill:#f28522;stroke:#f28522;stroke-linejoin:miter;" x="641.842023" xlink:href="#mb82f7a2b39" y="240.194491"/>
     <use style="fill:#f28522;stroke:#f28522;stroke-linejoin:miter;" x="702.552514" xlink:href="#mb82f7a2b39" y="227.338951"/>
    </g>
   </g>
   <g id="line2d_34">
    <path clip-path="url(#p639ee9b6e3)" d="M 156.15809 375.755032 
L 216.868581 361.821941 
L 277.579073 350.352346 
L 338.289565 341.191675 
L 399.000056 328.874617 
L 459.710548 320.637988 
L 520.42104 308.783402 
L 581.131531 296.466234 
L 641.842023 289.307597 
L 702.552514 274.604192 
" style="fill:none;stroke:#58b272;stroke-linecap:square;stroke-width:2;"/>
    <defs>
     <path d="M 0 5.656854 
L 3.394113 0 
L 0 -5.656854 
L -3.394113 0 
z
" id="m3632b79c0f" style="stroke:#58b272;stroke-linejoin:miter;"/>
    </defs>
    <g clip-path="url(#p639ee9b6e3)">
     <use style="fill:#58b272;stroke:#58b272;stroke-linejoin:miter;" x="156.15809" xlink:href="#m3632b79c0f" y="375.755032"/>
     <use style="fill:#58b272;stroke:#58b272;stroke-linejoin:miter;" x="216.868581" xlink:href="#m3632b79c0f" y="361.821941"/>
     <use style="fill:#58b272;stroke:#58b272;stroke-linejoin:miter;" x="277.579073" xlink:href="#m3632b79c0f" y="350.352346"/>
     <use style="fill:#58b272;stroke:#58b272;stroke-linejoin:miter;" x="338.289565" xlink:href="#m3632b79c0f" y="341.191675"/>
     <use style="fill:#58b272;stroke:#58b272;stroke-linejoin:miter;" x="399.000056" xlink:href="#m3632b79c0f" y="328.874617"/>
     <use style="fill:#58b272;stroke:#58b272;stroke-linejoin:miter;" x="459.710548" xlink:href="#m3632b79c0f" y="320.637988"/>
     <use style="fill:#58b272;stroke:#58b272;stroke-linejoin:miter;" x="520.42104" xlink:href="#m3632b79c0f" y="308.783402"/>
     <use style="fill:#58b272;stroke:#58b272;stroke-linejoin:miter;" x="581.131531" xlink:href="#m3632b79c0f" y="296.466234"/>
     <use style="fill:#58b272;stroke:#58b272;stroke-linejoin:miter;" x="641.842023" xlink:href="#m3632b79c0f" y="289.307597"/>
     <use style="fill:#58b272;stroke:#58b272;stroke-linejoin:miter;" x="702.552514" xlink:href="#m3632b79c0f" y="274.604192"/>
    </g>
   </g>
   <g id="line2d_35">
    <path clip-path="url(#p639ee9b6e3)" d="M 156.15809 378.911711 
L 216.868581 371.211162 
L 277.579073 360.281993 
L 338.289565 352.815329 
L 399.000056 344.039612 
L 459.710548 335.879966 
L 520.42104 328.951656 
L 581.131531 322.177588 
L 641.842023 313.401798 
L 702.552514 308.860275 
" style="fill:none;stroke:#af58ba;stroke-linecap:square;stroke-width:2;"/>
    <defs>
     <path d="M -4 4 
L 4 4 
L 4 -4 
L -4 -4 
z
" id="m67a71dd580" style="stroke:#af58ba;stroke-linejoin:miter;"/>
    </defs>
    <g clip-path="url(#p639ee9b6e3)">
     <use style="fill:#af58ba;stroke:#af58ba;stroke-linejoin:miter;" x="156.15809" xlink:href="#m67a71dd580" y="378.911711"/>
     <use style="fill:#af58ba;stroke:#af58ba;stroke-linejoin:miter;" x="216.868581" xlink:href="#m67a71dd580" y="371.211162"/>
     <use style="fill:#af58ba;stroke:#af58ba;stroke-linejoin:miter;" x="277.579073" xlink:href="#m67a71dd580" y="360.281993"/>
     <use style="fill:#af58ba;stroke:#af58ba;stroke-linejoin:miter;" x="338.289565" xlink:href="#m67a71dd580" y="352.815329"/>
     <use style="fill:#af58ba;stroke:#af58ba;stroke-linejoin:miter;" x="399.000056" xlink:href="#m67a71dd580" y="344.039612"/>
     <use style="fill:#af58ba;stroke:#af58ba;stroke-linejoin:miter;" x="459.710548" xlink:href="#m67a71dd580" y="335.879966"/>
     <use style="fill:#af58ba;stroke:#af58ba;stroke-linejoin:miter;" x="520.42104" xlink:href="#m67a71dd580" y="328.951656"/>
     <use style="fill:#af58ba;stroke:#af58ba;stroke-linejoin:miter;" x="581.131531" xlink:href="#m67a71dd580" y="322.177588"/>
     <use style="fill:#af58ba;stroke:#af58ba;stroke-linejoin:miter;" x="641.842023" xlink:href="#m67a71dd580" y="313.401798"/>
     <use style="fill:#af58ba;stroke:#af58ba;stroke-linejoin:miter;" x="702.552514" xlink:href="#m67a71dd580" y="308.860275"/>
    </g>
   </g>
   <g id="line2d_36">
    <path clip-path="url(#p639ee9b6e3)" d="M 156.15809 382.144732 
L 216.868581 374.828496 
L 277.579073 366.210194 
L 338.289565 361.360131 
L 399.000056 351.662793 
L 459.710548 349.659145 
L 520.42104 339.959698 
L 581.131531 335.57172 
L 641.842023 328.412514 
L 702.552514 321.02298 
" style="fill:none;stroke:#a6761d;stroke-linecap:square;stroke-width:2;"/>
    <defs>
     <path d="M -0 4 
L 4 -4 
L -4 -4 
z
" id="m30f5cfa5bb" style="stroke:#a6761d;stroke-linejoin:miter;"/>
    </defs>
    <g clip-path="url(#p639ee9b6e3)">
     <use style="fill:#a6761d;stroke:#a6761d;stroke-linejoin:miter;" x="156.15809" xlink:href="#m30f5cfa5bb" y="382.144732"/>
     <use style="fill:#a6761d;stroke:#a6761d;stroke-linejoin:miter;" x="216.868581" xlink:href="#m30f5cfa5bb" y="374.828496"/>
     <use style="fill:#a6761d;stroke:#a6761d;stroke-linejoin:miter;" x="277.579073" xlink:href="#m30f5cfa5bb" y="366.210194"/>
     <use style="fill:#a6761d;stroke:#a6761d;stroke-linejoin:miter;" x="338.289565" xlink:href="#m30f5cfa5bb" y="361.360131"/>
     <use style="fill:#a6761d;stroke:#a6761d;stroke-linejoin:miter;" x="399.000056" xlink:href="#m30f5cfa5bb" y="351.662793"/>
     <use style="fill:#a6761d;stroke:#a6761d;stroke-linejoin:miter;" x="459.710548" xlink:href="#m30f5cfa5bb" y="349.659145"/>
     <use style="fill:#a6761d;stroke:#a6761d;stroke-linejoin:miter;" x="520.42104" xlink:href="#m30f5cfa5bb" y="339.959698"/>
     <use style="fill:#a6761d;stroke:#a6761d;stroke-linejoin:miter;" x="581.131531" xlink:href="#m30f5cfa5bb" y="335.57172"/>
     <use style="fill:#a6761d;stroke:#a6761d;stroke-linejoin:miter;" x="641.842023" xlink:href="#m30f5cfa5bb" y="328.412514"/>
     <use style="fill:#a6761d;stroke:#a6761d;stroke-linejoin:miter;" x="702.552514" xlink:href="#m30f5cfa5bb" y="321.02298"/>
    </g>
   </g>
   <g id="patch_3">
    <path d="M 130.528109 419.730833 
L 130.528109 39.3105 
" style="fill:none;stroke:#000000;stroke-linecap:square;stroke-linejoin:miter;stroke-width:0.8;"/>
   </g>
   <g id="patch_4">
    <path d="M 729.321328 419.730833 
L 729.321328 39.3105 
" style="fill:none;stroke:#000000;stroke-linecap:square;stroke-linejoin:miter;stroke-width:0.8;"/>
   </g>
   <g id="patch_5">
    <path d="M 130.528109 419.730833 
L 729.321328 419.730833 
" style="fill:none;stroke:#000000;stroke-linecap:square;stroke-linejoin:miter;stroke-width:0.8;"/>
   </g>
   <g id="patch_6">
    <path d="M 130.528109 39.3105 
L 729.321328 39.3105 
" style="fill:none;stroke:#000000;stroke-linecap:square;stroke-linejoin:miter;stroke-width:0.8;"/>
   </g>
   <g id="legend_1">
    <g id="patch_7">
     <path d="M 143.128109 215.238 
L 380.039047 215.238 
Q 383.639047 215.238 383.639047 211.638 
L 383.639047 51.9105 
Q 383.639047 48.3105 380.039047 48.3105 
L 143.128109 48.3105 
Q 139.528109 48.3105 139.528109 51.9105 
L 139.528109 211.638 
Q 139.528109 215.238 143.128109 215.238 
z
" style="fill:#ffffff;opacity:0.8;stroke:#cccccc;stroke-linejoin:miter;"/>
    </g>
    <g id="line2d_37">
     <path d="M 146.728109 62.887687 
L 182.728109 62.887687 
" style="fill:none;stroke:#ff1f5b;stroke-linecap:square;stroke-width:2;"/>
    </g>
    <g id="line2d_38">
     <g>
      <use style="fill:#ff1f5b;stroke:#ff1f5b;" x="164.728109" xlink:href="#m08a840a527" y="62.887687"/>
     </g>
    </g>
    <g id="text_18">
     <!-- min_max_pulp -->
     <g transform="translate(197.128109 69.187687)scale(0.18 -0.18)">
      <defs>
       <path d="M 3263 -1063 
L 3263 -1509 
L -63 -1509 
L -63 -1063 
L 3263 -1063 
z
" id="DejaVuSans-5f" transform="scale(0.015625)"/>
       <path d="M 2194 1759 
Q 1497 1759 1228 1600 
Q 959 1441 959 1056 
Q 959 750 1161 570 
Q 1363 391 1709 391 
Q 2188 391 2477 730 
Q 2766 1069 2766 1631 
L 2766 1759 
L 2194 1759 
z
M 3341 1997 
L 3341 0 
L 2766 0 
L 2766 531 
Q 2569 213 2275 61 
Q 1981 -91 1556 -91 
Q 1019 -91 701 211 
Q 384 513 384 1019 
Q 384 1609 779 1909 
Q 1175 2209 1959 2209 
L 2766 2209 
L 2766 2266 
Q 2766 2663 2505 2880 
Q 2244 3097 1772 3097 
Q 1472 3097 1187 3025 
Q 903 2953 641 2809 
L 641 3341 
Q 956 3463 1253 3523 
Q 1550 3584 1831 3584 
Q 2591 3584 2966 3190 
Q 3341 2797 3341 1997 
z
" id="DejaVuSans-61" transform="scale(0.015625)"/>
       <path d="M 3513 3500 
L 2247 1797 
L 3578 0 
L 2900 0 
L 1881 1375 
L 863 0 
L 184 0 
L 1544 1831 
L 300 3500 
L 978 3500 
L 1906 2253 
L 2834 3500 
L 3513 3500 
z
" id="DejaVuSans-78" transform="scale(0.015625)"/>
       <path d="M 1159 525 
L 1159 -1331 
L 581 -1331 
L 581 3500 
L 1159 3500 
L 1159 2969 
Q 1341 3281 1617 3432 
Q 1894 3584 2278 3584 
Q 2916 3584 3314 3078 
Q 3713 2572 3713 1747 
Q 3713 922 3314 415 
Q 2916 -91 2278 -91 
Q 1894 -91 1617 61 
Q 1341 213 1159 525 
z
M 3116 1747 
Q 3116 2381 2855 2742 
Q 2594 3103 2138 3103 
Q 1681 3103 1420 2742 
Q 1159 2381 1159 1747 
Q 1159 1113 1420 752 
Q 1681 391 2138 391 
Q 2594 391 2855 752 
Q 3116 1113 3116 1747 
z
" id="DejaVuSans-70" transform="scale(0.015625)"/>
       <path d="M 603 4863 
L 1178 4863 
L 1178 0 
L 603 0 
L 603 4863 
z
" id="DejaVuSans-6c" transform="scale(0.015625)"/>
      </defs>
      <use xlink:href="#DejaVuSans-6d"/>
      <use x="97.412109" xlink:href="#DejaVuSans-69"/>
      <use x="125.195312" xlink:href="#DejaVuSans-6e"/>
      <use x="188.574219" xlink:href="#DejaVuSans-5f"/>
      <use x="238.574219" xlink:href="#DejaVuSans-6d"/>
      <use x="335.986328" xlink:href="#DejaVuSans-61"/>
      <use x="397.265625" xlink:href="#DejaVuSans-78"/>
      <use x="456.445312" xlink:href="#DejaVuSans-5f"/>
      <use x="506.445312" xlink:href="#DejaVuSans-70"/>
      <use x="569.921875" xlink:href="#DejaVuSans-75"/>
      <use x="633.300781" xlink:href="#DejaVuSans-6c"/>
      <use x="661.083984" xlink:href="#DejaVuSans-70"/>
     </g>
    </g>
    <g id="line2d_39">
     <path d="M 146.728109 89.808937 
L 182.728109 89.808937 
" style="fill:none;stroke:#009ade;stroke-linecap:square;stroke-width:2;"/>
    </g>
    <g id="line2d_40">
     <g>
      <use style="fill:#009ade;stroke:#009ade;stroke-linejoin:miter;" x="164.728109" xlink:href="#mb158a8620a" y="89.808937"/>
     </g>
    </g>
    <g id="text_19">
     <!-- min_max_greedy(1) -->
     <g transform="translate(197.128109 96.108937)scale(0.18 -0.18)">
      <defs>
       <path d="M 2631 2963 
Q 2534 3019 2420 3045 
Q 2306 3072 2169 3072 
Q 1681 3072 1420 2755 
Q 1159 2438 1159 1844 
L 1159 0 
L 581 0 
L 581 3500 
L 1159 3500 
L 1159 2956 
Q 1341 3275 1631 3429 
Q 1922 3584 2338 3584 
Q 2397 3584 2469 3576 
Q 2541 3569 2628 3553 
L 2631 2963 
z
" id="DejaVuSans-72" transform="scale(0.015625)"/>
       <path d="M 2059 -325 
Q 1816 -950 1584 -1140 
Q 1353 -1331 966 -1331 
L 506 -1331 
L 506 -850 
L 844 -850 
Q 1081 -850 1212 -737 
Q 1344 -625 1503 -206 
L 1606 56 
L 191 3500 
L 800 3500 
L 1894 763 
L 2988 3500 
L 3597 3500 
L 2059 -325 
z
" id="DejaVuSans-79" transform="scale(0.015625)"/>
      </defs>
      <use xlink:href="#DejaVuSans-6d"/>
      <use x="97.412109" xlink:href="#DejaVuSans-69"/>
      <use x="125.195312" xlink:href="#DejaVuSans-6e"/>
      <use x="188.574219" xlink:href="#DejaVuSans-5f"/>
      <use x="238.574219" xlink:href="#DejaVuSans-6d"/>
      <use x="335.986328" xlink:href="#DejaVuSans-61"/>
      <use x="397.265625" xlink:href="#DejaVuSans-78"/>
      <use x="456.445312" xlink:href="#DejaVuSans-5f"/>
      <use x="506.445312" xlink:href="#DejaVuSans-67"/>
      <use x="569.921875" xlink:href="#DejaVuSans-72"/>
      <use x="608.785156" xlink:href="#DejaVuSans-65"/>
      <use x="670.308594" xlink:href="#DejaVuSans-65"/>
      <use x="731.832031" xlink:href="#DejaVuSans-64"/>
      <use x="795.308594" xlink:href="#DejaVuSans-79"/>
      <use x="854.488281" xlink:href="#DejaVuSans-28"/>
      <use x="893.501953" xlink:href="#DejaVuSans-31"/>
      <use x="957.125" xlink:href="#DejaVuSans-29"/>
     </g>
    </g>
    <g id="line2d_41">
     <path d="M 146.728109 116.730188 
L 182.728109 116.730188 
" style="fill:none;stroke:#f28522;stroke-linecap:square;stroke-width:2;"/>
    </g>
    <g id="line2d_42">
     <g>
      <use style="fill:#f28522;stroke:#f28522;stroke-linejoin:miter;" x="164.728109" xlink:href="#mb82f7a2b39" y="116.730188"/>
     </g>
    </g>
    <g id="text_20">
     <!-- min_max_greedy(2) -->
     <g transform="translate(197.128109 123.030188)scale(0.18 -0.18)">
      <use xlink:href="#DejaVuSans-6d"/>
      <use x="97.412109" xlink:href="#DejaVuSans-69"/>
      <use x="125.195312" xlink:href="#DejaVuSans-6e"/>
      <use x="188.574219" xlink:href="#DejaVuSans-5f"/>
      <use x="238.574219" xlink:href="#DejaVuSans-6d"/>
      <use x="335.986328" xlink:href="#DejaVuSans-61"/>
      <use x="397.265625" xlink:href="#DejaVuSans-78"/>
      <use x="456.445312" xlink:href="#DejaVuSans-5f"/>
      <use x="506.445312" xlink:href="#DejaVuSans-67"/>
      <use x="569.921875" xlink:href="#DejaVuSans-72"/>
      <use x="608.785156" xlink:href="#DejaVuSans-65"/>
      <use x="670.308594" xlink:href="#DejaVuSans-65"/>
      <use x="731.832031" xlink:href="#DejaVuSans-64"/>
      <use x="795.308594" xlink:href="#DejaVuSans-79"/>
      <use x="854.488281" xlink:href="#DejaVuSans-28"/>
      <use x="893.501953" xlink:href="#DejaVuSans-32"/>
      <use x="957.125" xlink:href="#DejaVuSans-29"/>
     </g>
    </g>
    <g id="line2d_43">
     <path d="M 146.728109 143.651437 
L 182.728109 143.651437 
" style="fill:none;stroke:#58b272;stroke-linecap:square;stroke-width:2;"/>
    </g>
    <g id="line2d_44">
     <g>
      <use style="fill:#58b272;stroke:#58b272;stroke-linejoin:miter;" x="164.728109" xlink:href="#m3632b79c0f" y="143.651437"/>
     </g>
    </g>
    <g id="text_21">
     <!-- min_max_greedy(3) -->
     <g transform="translate(197.128109 149.951437)scale(0.18 -0.18)">
      <use xlink:href="#DejaVuSans-6d"/>
      <use x="97.412109" xlink:href="#DejaVuSans-69"/>
      <use x="125.195312" xlink:href="#DejaVuSans-6e"/>
      <use x="188.574219" xlink:href="#DejaVuSans-5f"/>
      <use x="238.574219" xlink:href="#DejaVuSans-6d"/>
      <use x="335.986328" xlink:href="#DejaVuSans-61"/>
      <use x="397.265625" xlink:href="#DejaVuSans-78"/>
      <use x="456.445312" xlink:href="#DejaVuSans-5f"/>
      <use x="506.445312" xlink:href="#DejaVuSans-67"/>
      <use x="569.921875" xlink:href="#DejaVuSans-72"/>
      <use x="608.785156" xlink:href="#DejaVuSans-65"/>
      <use x="670.308594" xlink:href="#DejaVuSans-65"/>
      <use x="731.832031" xlink:href="#DejaVuSans-64"/>
      <use x="795.308594" xlink:href="#DejaVuSans-79"/>
      <use x="854.488281" xlink:href="#DejaVuSans-28"/>
      <use x="893.501953" xlink:href="#DejaVuSans-33"/>
      <use x="957.125" xlink:href="#DejaVuSans-29"/>
     </g>
    </g>
    <g id="line2d_45">
     <path d="M 146.728109 170.572687 
L 182.728109 170.572687 
" style="fill:none;stroke:#af58ba;stroke-linecap:square;stroke-width:2;"/>
    </g>
    <g id="line2d_46">
     <g>
      <use style="fill:#af58ba;stroke:#af58ba;stroke-linejoin:miter;" x="164.728109" xlink:href="#m67a71dd580" y="170.572687"/>
     </g>
    </g>
    <g id="text_22">
     <!-- min_max_greedy(4) -->
     <g transform="translate(197.128109 176.872687)scale(0.18 -0.18)">
      <use xlink:href="#DejaVuSans-6d"/>
      <use x="97.412109" xlink:href="#DejaVuSans-69"/>
      <use x="125.195312" xlink:href="#DejaVuSans-6e"/>
      <use x="188.574219" xlink:href="#DejaVuSans-5f"/>
      <use x="238.574219" xlink:href="#DejaVuSans-6d"/>
      <use x="335.986328" xlink:href="#DejaVuSans-61"/>
      <use x="397.265625" xlink:href="#DejaVuSans-78"/>
      <use x="456.445312" xlink:href="#DejaVuSans-5f"/>
      <use x="506.445312" xlink:href="#DejaVuSans-67"/>
      <use x="569.921875" xlink:href="#DejaVuSans-72"/>
      <use x="608.785156" xlink:href="#DejaVuSans-65"/>
      <use x="670.308594" xlink:href="#DejaVuSans-65"/>
      <use x="731.832031" xlink:href="#DejaVuSans-64"/>
      <use x="795.308594" xlink:href="#DejaVuSans-79"/>
      <use x="854.488281" xlink:href="#DejaVuSans-28"/>
      <use x="893.501953" xlink:href="#DejaVuSans-34"/>
      <use x="957.125" xlink:href="#DejaVuSans-29"/>
     </g>
    </g>
    <g id="line2d_47">
     <path d="M 146.728109 197.493937 
L 182.728109 197.493937 
" style="fill:none;stroke:#a6761d;stroke-linecap:square;stroke-width:2;"/>
    </g>
    <g id="line2d_48">
     <g>
      <use style="fill:#a6761d;stroke:#a6761d;stroke-linejoin:miter;" x="164.728109" xlink:href="#m30f5cfa5bb" y="197.493937"/>
     </g>
    </g>
    <g id="text_23">
     <!-- min_max_greedy(5) -->
     <g transform="translate(197.128109 203.793937)scale(0.18 -0.18)">
      <use xlink:href="#DejaVuSans-6d"/>
      <use x="97.412109" xlink:href="#DejaVuSans-69"/>
      <use x="125.195312" xlink:href="#DejaVuSans-6e"/>
      <use x="188.574219" xlink:href="#DejaVuSans-5f"/>
      <use x="238.574219" xlink:href="#DejaVuSans-6d"/>
      <use x="335.986328" xlink:href="#DejaVuSans-61"/>
      <use x="397.265625" xlink:href="#DejaVuSans-78"/>
      <use x="456.445312" xlink:href="#DejaVuSans-5f"/>
      <use x="506.445312" xlink:href="#DejaVuSans-67"/>
      <use x="569.921875" xlink:href="#DejaVuSans-72"/>
      <use x="608.785156" xlink:href="#DejaVuSans-65"/>
      <use x="670.308594" xlink:href="#DejaVuSans-65"/>
      <use x="731.832031" xlink:href="#DejaVuSans-64"/>
      <use x="795.308594" xlink:href="#DejaVuSans-79"/>
      <use x="854.488281" xlink:href="#DejaVuSans-28"/>
      <use x="893.501953" xlink:href="#DejaVuSans-35"/>
      <use x="957.125" xlink:href="#DejaVuSans-29"/>
     </g>
    </g>
   </g>
  </g>
 </g>
 <defs>
  <clipPath id="p639ee9b6e3">
   <rect height="380.420333" width="598.793219" x="130.528109" y="39.3105"/>
  </clipPath>
 </defs>
</svg>
